GeoramaExtraCondensed-SemiBold.ufo
<glyph name="exclam" format="2">
  <advance width="161.3"/>
  <unicode hex="0021"/>
  <outline>
    <contour>
      <point x="33.8" y="261.25" type="line"/>
      <point x="126.4" y="261.25" type="line"/>
      <point x="135.2" y="740.0" type="line"/>
      <point x="26.65" y="740.0" type="line"/>
    </contour>
    <contour>
      <point x="23.2" y="66.5" type="curve" smooth="yes"/>
      <point x="23.2" y="16.400000000000002"/>
      <point x="39.05" y="-5.5"/>
      <point x="80.65" y="-5.5" type="curve" smooth="yes"/>
      <point x="122.7" y="-5.5"/>
      <point x="138.10000000000002" y="16.400000000000002"/>
      <point x="138.10000000000002" y="66.5" type="curve" smooth="yes"/>
      <point x="138.10000000000002" y="117.15"/>
      <point x="122.7" y="139.05"/>
      <point x="80.65" y="139.05" type="curve" smooth="yes"/>
      <point x="38.6" y="139.05"/>
      <point x="23.2" y="117.15"/>
    </contour>
  </outline>
</glyph>
<glyph name="numbersign" format="2">
  <advance width="343.5"/>
  <unicode hex="0023"/>
  <outline>
    <contour>
      <point x="34.2" y="431.3" type="line"/>
      <point x="77.5" y="431.3" type="line"/>
      <point x="60.9" y="262.55" type="line"/>
      <point x="17.450000000000003" y="262.55" type="line"/>
      <point x="17.450000000000003" y="166.1" type="line"/>
      <point x="55.6" y="166.1" type="line"/>
      <point x="40.95" y="0.0" type="line"/>
      <point x="118.7" y="0.0" type="line"/>
      <point x="133.35000000000002" y="166.1" type="line"/>
      <point x="183.5" y="166.1" type="line"/>
      <point x="168.85" y="0.0" type="line"/>
      <point x="246.60000000000002" y="0.0" type="line"/>
      <point x="261.25" y="166.1" type="line"/>
      <point x="309.3" y="166.1" type="line"/>
      <point x="309.3" y="262.55" type="line"/>
      <point x="266.55" y="262.55" type="line"/>
      <point x="283.15" y="431.3" type="line"/>
      <point x="326.05" y="431.3" type="line"/>
      <point x="326.05" y="528.85" type="line"/>
      <point x="288.9" y="528.85" type="line"/>
      <point x="304.1" y="700.0" type="line"/>
      <point x="226.35" y="700.0" type="line"/>
      <point x="211.15" y="528.85" type="line"/>
      <point x="161.0" y="528.85" type="line"/>
      <point x="176.2" y="700.0" type="line"/>
      <point x="98.45" y="700.0" type="line"/>
      <point x="83.25" y="528.85" type="line"/>
      <point x="34.2" y="528.85" type="line"/>
    </contour>
    <contour>
      <point x="155.25" y="431.3" type="line"/>
      <point x="205.4" y="431.3" type="line"/>
      <point x="188.8" y="262.55" type="line"/>
      <point x="138.65" y="262.55" type="line"/>
    </contour>
  </outline>
</glyph>
<glyph name="dollar" format="2">
  <advance width="343.5"/>
  <unicode hex="0024"/>
  <outline>
    <contour>
      <point x="147.55" y="-10.0" type="curve" smooth="yes"/>
      <point x="232.65" y="-10.0"/>
      <point x="315.45" y="40.7"/>
      <point x="315.45" y="169.1" type="curve" smooth="yes"/>
      <point x="315.45" y="280.8"/>
      <point x="260.1" y="338.35"/>
      <point x="211.35000000000002" y="389.75" type="curve" smooth="yes"/>
      <point x="172.95" y="434.2"/>
      <point x="137.85000000000002" y="476.35"/>
      <point x="137.85000000000002" y="535.75" type="curve" smooth="yes"/>
      <point x="137.85000000000002" y="581.0"/>
      <point x="158.35000000000002" y="606.2"/>
      <point x="199.35000000000002" y="606.2" type="curve" smooth="yes"/>
      <point x="227.60000000000002" y="606.2"/>
      <point x="253.25" y="600.1"/>
      <point x="277.9" y="589.25" type="curve"/>
      <point x="300.2" y="683.9" type="line"/>
      <point x="274.75" y="698.95"/>
      <point x="228.25" y="710.0"/>
      <point x="180.1" y="710.0" type="curve" smooth="yes"/>
      <point x="90.25" y="710.0"/>
      <point x="33.7" y="641.5"/>
      <point x="33.7" y="535.75" type="curve" smooth="yes"/>
      <point x="33.7" y="431.75"/>
      <point x="81.25" y="367.9"/>
      <point x="127.25" y="314.95" type="curve" smooth="yes"/>
      <point x="171.15" y="264.0"/>
      <point x="213.5" y="222.3"/>
      <point x="213.5" y="163.9" type="curve" smooth="yes"/>
      <point x="213.5" y="119.9"/>
      <point x="187.55" y="90.95"/>
      <point x="145.4" y="90.95" type="curve" smooth="yes"/>
      <point x="117.45" y="90.95"/>
      <point x="87.35" y="98.25"/>
      <point x="49.35" y="113.85000000000001" type="curve"/>
      <point x="28.049999999999997" y="19.950000000000003" type="line"/>
      <point x="58.9" y="2.700000000000001"/>
      <point x="105.75" y="-10.0"/>
    </contour>
    <contour>
      <point x="122.75" y="-105.0" type="line"/>
      <point x="220.3" y="-105.0" type="line"/>
      <point x="220.3" y="13.65" type="line"/>
      <point x="122.75" y="4.800000000000001" type="line"/>
    </contour>
    <contour>
      <point x="122.75" y="686.5" type="line"/>
      <point x="220.3" y="696.2" type="line"/>
      <point x="220.3" y="803.9" type="line"/>
      <point x="122.75" y="803.9" type="line"/>
    </contour>
  </outline>
</glyph>
<glyph name="ampersand" format="2">
  <advance width="436.9"/>
  <unicode hex="0026"/>
  <outline>
    <contour>
      <point x="327.2" y="-7.199999999999999" type="line"/>
      <point x="435.50000000000006" y="-2.6999999999999997" type="line"/>
      <point x="192.3" y="421.7" type="line" smooth="yes"/>
      <point x="167.9" y="465.3"/>
      <point x="157.8" y="501.0"/>
      <point x="157.8" y="531.4" type="curve" smooth="yes"/>
      <point x="157.8" y="582.0"/>
      <point x="173.70000000000002" y="606.3"/>
      <point x="202.10000000000002" y="606.3" type="curve" smooth="yes"/>
      <point x="231.4" y="606.3"/>
      <point x="243.6" y="579.0999999999999"/>
      <point x="243.6" y="532.8000000000001" type="curve" smooth="yes"/>
      <point x="243.6" y="500.8"/>
      <point x="241.0" y="474.7"/>
      <point x="224.0" y="454.9" type="curve"/>
      <point x="262.0" y="395.5" type="line"/>
      <point x="307.4" y="428.8"/>
      <point x="332.9" y="481.09999999999997"/>
      <point x="332.9" y="555.5999999999999" type="curve" smooth="yes"/>
      <point x="332.9" y="658.0"/>
      <point x="285.3" y="710.0"/>
      <point x="201.0" y="710.0" type="curve" smooth="yes"/>
      <point x="104.7" y="710.0"/>
      <point x="54.199999999999996" y="647.7"/>
      <point x="54.199999999999996" y="535.9" type="curve" smooth="yes"/>
      <point x="54.199999999999996" y="479.3"/>
      <point x="75.0" y="421.3"/>
      <point x="108.9" y="363.0" type="curve" smooth="yes"/>
    </contour>
    <contour>
      <point x="176.6" y="-10.0" type="curve" smooth="yes"/>
      <point x="238.3" y="-10.0"/>
      <point x="277.3" y="16.700000000000003"/>
      <point x="306.6" y="67.69999999999999" type="curve"/>
      <point x="262.9" y="141.8" type="line"/>
      <point x="247.70000000000002" y="104.50000000000001"/>
      <point x="229.3" y="83.60000000000001"/>
      <point x="188.70000000000002" y="83.60000000000001" type="curve" smooth="yes"/>
      <point x="142.4" y="83.60000000000001"/>
      <point x="111.2" y="129.3"/>
      <point x="111.2" y="191.5" type="curve" smooth="yes"/>
      <point x="111.2" y="249.39999999999998"/>
      <point x="126.7" y="282.59999999999997"/>
      <point x="160.10000000000002" y="319.1" type="curve"/>
      <point x="115.8" y="396.8" type="line"/>
      <point x="42.5" y="341.2"/>
      <point x="14.099999999999998" y="272.8"/>
      <point x="14.099999999999998" y="180.6" type="curve" smooth="yes"/>
      <point x="14.099999999999998" y="66.89999999999999"/>
      <point x="77.80000000000001" y="-10.0"/>
    </contour>
    <contour>
      <point x="352.1" y="120.39999999999999" type="line"/>
      <point x="376.90000000000003" y="175.20000000000002"/>
      <point x="394.6" y="237.20000000000002"/>
      <point x="394.6" y="305.9" type="curve" smooth="yes"/>
      <point x="394.6" y="327.8"/>
      <point x="393.6" y="347.0"/>
      <point x="390.7" y="366.09999999999997" type="curve"/>
      <point x="309.7" y="365.2" type="line"/>
      <point x="311.6" y="351.7"/>
      <point x="312.6" y="338.9"/>
      <point x="312.6" y="321.40000000000003" type="curve" smooth="yes"/>
      <point x="312.6" y="278.59999999999997"/>
      <point x="306.0" y="241.70000000000002"/>
      <point x="298.4" y="214.6" type="curve"/>
    </contour>
  </outline>
</glyph>
<glyph name="quotesingle" format="2">
  <advance width="158.75"/>
  <unicode hex="0027"/>
  <outline>
    <contour>
      <point x="34.599999999999994" y="427.0" type="line"/>
      <point x="122.5" y="427.0" type="line"/>
      <point x="129.7" y="700.0" type="line"/>
      <point x="29.049999999999997" y="700.0" type="line"/>
    </contour>
  </outline>
</glyph>
<glyph name="parenleft" format="2">
  <advance width="208.4"/>
  <unicode hex="0028"/>
  <outline>
    <contour>
      <point x="30.2" y="265.0" type="curve" smooth="yes"/>
      <point x="30.2" y="-16.4"/>
      <point x="84.35" y="-196.1"/>
      <point x="201.75" y="-220.45" type="curve"/>
      <point x="201.75" y="-122.3" type="line"/>
      <point x="146.95" y="-89.39999999999999"/>
      <point x="117.1" y="11.450000000000001"/>
      <point x="117.1" y="265.0" type="curve" smooth="yes"/>
      <point x="117.1" y="518.55"/>
      <point x="146.95" y="619.4"/>
      <point x="201.75" y="652.3" type="curve"/>
      <point x="201.75" y="750.45" type="line"/>
      <point x="84.35" y="726.1"/>
      <point x="30.2" y="546.4"/>
    </contour>
  </outline>
</glyph>
<glyph name="parenright" format="2">
  <advance width="208.4"/>
  <unicode hex="0029"/>
  <outline>
    <contour>
      <point x="6.65" y="-122.3" type="curve"/>
      <point x="6.65" y="-220.45" type="line"/>
      <point x="124.05000000000001" y="-196.1"/>
      <point x="178.2" y="-16.4"/>
      <point x="178.2" y="265.0" type="curve" smooth="yes"/>
      <point x="178.2" y="546.4"/>
      <point x="124.05000000000001" y="726.1"/>
      <point x="6.65" y="750.45" type="curve"/>
      <point x="6.65" y="652.3" type="line"/>
      <point x="61.45" y="619.4"/>
      <point x="91.3" y="518.55"/>
      <point x="91.3" y="265.0" type="curve" smooth="yes"/>
      <point x="91.3" y="11.450000000000001"/>
      <point x="61.45" y="-89.39999999999999"/>
    </contour>
  </outline>
</glyph>
<glyph name="asterisk" format="2">
  <advance width="268.9"/>
  <unicode hex="002A"/>
  <outline>
    <contour>
      <point x="79.30000000000001" y="414.5" type="line"/>
      <point x="134.45" y="489.4" type="line"/>
      <point x="189.6" y="414.5" type="line"/>
      <point x="232.65" y="444.3" type="line"/>
      <point x="187.05" y="528.15" type="line"/>
      <point x="265.6" y="568.95" type="line"/>
      <point x="248.7" y="618.5" type="line"/>
      <point x="167.10000000000002" y="591.25" type="line"/>
      <point x="161.05" y="690.05" type="line"/>
      <point x="107.85" y="690.05" type="line"/>
      <point x="101.8" y="591.25" type="line"/>
      <point x="20.200000000000003" y="618.5" type="line"/>
      <point x="3.3000000000000003" y="568.95" type="line"/>
      <point x="81.85" y="528.15" type="line"/>
      <point x="36.25" y="444.3" type="line"/>
    </contour>
  </outline>
</glyph>
<glyph name="plus" format="2">
  <advance width="397.5"/>
  <unicode hex="002B"/>
  <outline>
    <contour>
      <point x="150.25" y="122.05000000000001" type="line"/>
      <point x="247.25" y="122.05000000000001" type="line"/>
      <point x="247.25" y="263.6" type="line"/>
      <point x="356.85" y="263.6" type="line"/>
      <point x="356.85" y="360.6" type="line"/>
      <point x="247.25" y="360.6" type="line"/>
      <point x="247.25" y="502.15" type="line"/>
      <point x="150.25" y="502.15" type="line"/>
      <point x="150.25" y="360.6" type="line"/>
      <point x="40.65" y="360.6" type="line"/>
      <point x="40.65" y="263.6" type="line"/>
      <point x="150.25" y="263.6" type="line"/>
    </contour>
  </outline>
</glyph>
<glyph name="comma" format="2">
  <advance width="150.5"/>
  <unicode hex="002C"/>
  <outline>
    <contour>
      <point x="22.65" y="76.35" type="line"/>
      <point x="29.1" y="44.800000000000004"/>
      <point x="30.9" y="15.750000000000004"/>
      <point x="30.9" y="0.9500000000000028" type="curve" smooth="yes"/>
      <point x="30.9" y="-52.8"/>
      <point x="13.35" y="-115.3"/>
      <point x="-20.2" y="-162.15" type="curve"/>
      <point x="56.800000000000004" y="-189.15" type="line"/>
      <point x="109.7" y="-128.7"/>
      <point x="130.10000000000002" y="-61.65"/>
      <point x="130.10000000000002" y="3.700000000000003" type="curve" smooth="yes"/>
      <point x="130.10000000000002" y="33.5"/>
      <point x="125.45" y="58.150000000000006"/>
      <point x="119.55000000000001" y="80.05000000000001" type="curve"/>
    </contour>
  </outline>
</glyph>
<glyph name="hyphen" format="2">
  <advance width="255.35000000000002"/>
  <unicode hex="002D"/>
  <outline>
    <contour>
      <point x="24.450000000000003" y="243.45" type="line"/>
      <point x="230.9" y="243.45" type="line"/>
      <point x="230.9" y="348.15" type="line"/>
      <point x="24.450000000000003" y="348.15" type="line"/>
    </contour>
  </outline>
</glyph>
<glyph name="period" format="2">
  <advance width="150.5"/>
  <unicode hex="002E"/>
  <outline>
    <contour>
      <point x="17.799999999999997" y="68.15" type="curve" smooth="yes"/>
      <point x="17.799999999999997" y="18.05"/>
      <point x="33.65" y="-3.8500000000000005"/>
      <point x="75.25" y="-3.8500000000000005" type="curve" smooth="yes"/>
      <point x="117.30000000000001" y="-3.8500000000000005"/>
      <point x="132.7" y="18.05"/>
      <point x="132.7" y="68.15" type="curve" smooth="yes"/>
      <point x="132.7" y="118.80000000000001"/>
      <point x="117.30000000000001" y="140.7"/>
      <point x="75.25" y="140.7" type="curve" smooth="yes"/>
      <point x="33.2" y="140.7"/>
      <point x="17.799999999999997" y="118.80000000000001"/>
    </contour>
  </outline>
</glyph>
<glyph name="slash" format="2">
  <advance width="300.0"/>
  <unicode hex="002F"/>
  <outline>
    <contour>
      <point x="-4.6000000000000005" y="-210.0" type="line"/>
      <point x="85.9" y="-210.0" type="line"/>
      <point x="304.6" y="740.0" type="line"/>
      <point x="213.55" y="740.0" type="line"/>
    </contour>
  </outline>
</glyph>
<glyph name="zero" format="2">
  <advance width="343.5"/>
  <unicode hex="0030"/>
  <outline>
    <contour>
      <point x="15.0" y="350.0" type="curve" smooth="yes"/>
      <point x="15.0" y="77.7"/>
      <point x="56.25" y="-10.0"/>
      <point x="171.75" y="-10.0" type="curve" smooth="yes"/>
      <point x="285.6" y="-10.0"/>
      <point x="328.5" y="79.9"/>
      <point x="328.5" y="350.0" type="curve" smooth="yes"/>
      <point x="328.5" y="621.1"/>
      <point x="293.85" y="710.0"/>
      <point x="171.75" y="710.0" type="curve" smooth="yes"/>
      <point x="54.6" y="710.0"/>
      <point x="15.0" y="625.5"/>
    </contour>
    <contour>
      <point x="121.35000000000001" y="342.85" type="curve" smooth="yes"/>
      <point x="121.35000000000001" y="575.95"/>
      <point x="135.15" y="609.7"/>
      <point x="171.75" y="609.7" type="curve" smooth="yes"/>
      <point x="208.35" y="609.7"/>
      <point x="222.15" y="576.5"/>
      <point x="222.15" y="342.85" type="curve" smooth="yes"/>
      <point x="222.15" y="127.80000000000001"/>
      <point x="210.0" y="90.30000000000001"/>
      <point x="171.75" y="90.30000000000001" type="curve" smooth="yes"/>
      <point x="133.5" y="90.30000000000001"/>
      <point x="121.35000000000001" y="127.25"/>
    </contour>
  </outline>
</glyph>
<glyph name="one" format="2">
  <advance width="343.5"/>
  <unicode hex="0031"/>
  <outline>
    <contour>
      <point x="40.2" y="0.0" type="line"/>
      <point x="321.75" y="0.0" type="line"/>
      <point x="321.75" y="97.0" type="line"/>
      <point x="239.15" y="97.0" type="line"/>
      <point x="239.15" y="700.0" type="line"/>
      <point x="184.8" y="700.0" type="line"/>
      <point x="24.0" y="618.5" type="line"/>
      <point x="44.25" y="510.45" type="line"/>
      <point x="133.35" y="563.25" type="line"/>
      <point x="133.35" y="97.0" type="line"/>
      <point x="40.2" y="97.0" type="line"/>
    </contour>
  </outline>
</glyph>
<glyph name="two" format="2">
  <advance width="343.5"/>
  <unicode hex="0032"/>
  <outline>
    <contour>
      <point x="36.0" y="87.4" type="curve"/>
      <point x="38.25" y="0.0" type="line"/>
      <point x="314.95" y="0.0" type="line"/>
      <point x="314.95" y="97.0" type="line"/>
      <point x="153.15" y="97.0" type="line"/>
      <point x="261.65" y="303.85"/>
      <point x="297.05" y="403.75"/>
      <point x="297.05" y="519.3" type="curve" smooth="yes"/>
      <point x="297.05" y="649.15"/>
      <point x="247.95" y="710.0"/>
      <point x="157.05" y="710.0" type="curve" smooth="yes"/>
      <point x="104.35" y="710.0"/>
      <point x="60.85" y="693.15"/>
      <point x="18.1" y="653.15" type="curve"/>
      <point x="58.6" y="546.55" type="line"/>
      <point x="83.15" y="571.2"/>
      <point x="103.5" y="580.45"/>
      <point x="131.2" y="580.45" type="curve" smooth="yes"/>
      <point x="167.85" y="580.45"/>
      <point x="191.15" y="553.8"/>
      <point x="191.15" y="481.5" type="curve" smooth="yes"/>
      <point x="191.15" y="405.25"/>
      <point x="138.75" y="280.35"/>
    </contour>
  </outline>
</glyph>
<glyph name="three" format="2">
  <advance width="343.5"/>
  <unicode hex="0033"/>
  <outline>
    <contour>
      <point x="10.600000000000001" y="35.75" type="line"/>
      <point x="54.150000000000006" y="2.9"/>
      <point x="89.65" y="-10.0"/>
      <point x="141.85" y="-10.0" type="curve" smooth="yes"/>
      <point x="245.9" y="-10.0"/>
      <point x="307.5" y="69.2"/>
      <point x="307.5" y="202.4" type="curve" smooth="yes"/>
      <point x="307.5" y="282.6"/>
      <point x="279.55" y="343.15"/>
      <point x="227.5" y="372.75" type="curve"/>
      <point x="271.2" y="406.2"/>
      <point x="296.8" y="467.75"/>
      <point x="296.8" y="535.65" type="curve" smooth="yes"/>
      <point x="296.8" y="642.1"/>
      <point x="241.8" y="710.0"/>
      <point x="145.15" y="710.0" type="curve" smooth="yes"/>
      <point x="94.35" y="710.0"/>
      <point x="47.75" y="693.6"/>
      <point x="13.8" y="662.7" type="curve"/>
      <point x="50.55" y="571.6" type="line"/>
      <point x="68.1" y="585.2"/>
      <point x="94.6" y="593.2"/>
      <point x="120.4" y="593.2" type="curve" smooth="yes"/>
      <point x="168.3" y="593.2"/>
      <point x="192.1" y="556.4"/>
      <point x="192.1" y="498.25" type="curve" smooth="yes"/>
      <point x="192.1" y="443.55"/>
      <point x="170.5" y="404.85"/>
      <point x="135.7" y="404.85" type="curve" smooth="yes"/>
      <point x="85.65" y="404.85" type="line"/>
      <point x="85.65" y="312.8" type="line"/>
      <point x="128.6" y="312.8" type="line" smooth="yes"/>
      <point x="176.3" y="312.8"/>
      <point x="202.25" y="277.6"/>
      <point x="202.25" y="211.2" type="curve" smooth="yes"/>
      <point x="202.25" y="142.15"/>
      <point x="173.5" y="100.2"/>
      <point x="126.9" y="100.2" type="curve" smooth="yes"/>
      <point x="97.4" y="100.2"/>
      <point x="77.05000000000001" y="108.45"/>
      <point x="51.45" y="128.05" type="curve"/>
    </contour>
  </outline>
</glyph>
<glyph name="four" format="2">
  <advance width="343.5"/>
  <unicode hex="0034"/>
  <outline>
    <contour>
      <point x="19.099999999999998" y="128.3" type="line"/>
      <point x="176.79999999999998" y="128.3" type="line"/>
      <point x="176.79999999999998" y="0.0" type="line"/>
      <point x="280.90000000000003" y="0.0" type="line"/>
      <point x="280.90000000000003" y="128.3" type="line"/>
      <point x="333.40000000000003" y="128.3" type="line"/>
      <point x="333.40000000000003" y="225.20000000000002" type="line"/>
      <point x="280.90000000000003" y="225.20000000000002" type="line"/>
      <point x="280.90000000000003" y="699.1" type="line"/>
      <point x="156.9" y="701.8000000000001" type="line"/>
      <point x="16.400000000000002" y="229.1" type="line"/>
    </contour>
    <contour>
      <point x="91.5" y="225.20000000000002" type="line"/>
      <point x="182.29999999999998" y="546.4" type="line"/>
      <point x="182.29999999999998" y="225.20000000000002" type="line"/>
    </contour>
  </outline>
</glyph>
<glyph name="five" format="2">
  <advance width="343.5"/>
  <unicode hex="0035"/>
  <outline>
    <contour>
      <point x="24.4" y="33.05" type="line"/>
      <point x="59.6" y="4.8"/>
      <point x="96.1" y="-10.0"/>
      <point x="145.5" y="-10.0" type="curve" smooth="yes"/>
      <point x="250.75" y="-10.0"/>
      <point x="323.05" y="71.7"/>
      <point x="323.05" y="217.3" type="curve" smooth="yes"/>
      <point x="323.05" y="340.6"/>
      <point x="272.8" y="404.85"/>
      <point x="189.95" y="408.7" type="curve" smooth="yes"/>
      <point x="156.60000000000002" y="409.8" type="line"/>
      <point x="166.85000000000002" y="599.15" type="line"/>
      <point x="306.35" y="599.15" type="line"/>
      <point x="306.35" y="700.0" type="line"/>
      <point x="80.75" y="700.0" type="line"/>
      <point x="53.0" y="331.5" type="line"/>
      <point x="61.9" y="319.4" type="line"/>
      <point x="131.2" y="319.4" type="line" smooth="yes"/>
      <point x="187.3" y="319.4"/>
      <point x="216.15" y="283.6"/>
      <point x="216.15" y="212.9" type="curve" smooth="yes"/>
      <point x="216.15" y="143.10000000000002"/>
      <point x="189.25" y="99.10000000000001"/>
      <point x="131.75" y="99.10000000000001" type="curve" smooth="yes"/>
      <point x="95.45" y="99.10000000000001"/>
      <point x="70.15" y="112.05000000000001"/>
      <point x="49.75" y="127.55000000000001" type="curve"/>
    </contour>
  </outline>
</glyph>
<glyph name="six" format="2">
  <advance width="343.5"/>
  <unicode hex="0036"/>
  <outline>
    <contour>
      <point x="175.75" y="-10.0" type="curve" smooth="yes"/>
      <point x="276.9" y="-10.0"/>
      <point x="330.45" y="73.0"/>
      <point x="330.45" y="227.4" type="curve" smooth="yes"/>
      <point x="330.45" y="357.0"/>
      <point x="285.85" y="433.95"/>
      <point x="210.85000000000002" y="433.95" type="curve" smooth="yes"/>
      <point x="168.45" y="433.95"/>
      <point x="134.35000000000002" y="407.5"/>
      <point x="116.35000000000001" y="365.25" type="curve"/>
      <point x="115.2" y="275.75" type="line"/>
      <point x="127.2" y="319.55"/>
      <point x="148.35000000000002" y="346.2"/>
      <point x="175.75" y="346.2" type="curve" smooth="yes"/>
      <point x="206.3" y="346.2"/>
      <point x="224.65" y="302.75"/>
      <point x="224.65" y="222.75" type="curve" smooth="yes"/>
      <point x="224.65" y="132.5"/>
      <point x="205.6" y="86.65"/>
      <point x="177.5" y="86.65" type="curve" smooth="yes"/>
      <point x="140.9" y="86.65"/>
      <point x="127.75000000000001" y="131.5"/>
      <point x="127.75000000000001" y="346.0" type="curve" smooth="yes"/>
      <point x="127.75000000000001" y="520.7"/>
      <point x="139.85000000000002" y="606.75"/>
      <point x="224.65" y="606.75" type="curve" smooth="yes"/>
      <point x="249.55" y="606.75"/>
      <point x="270.25" y="596.85"/>
      <point x="287.05" y="581.6" type="curve"/>
      <point x="322.6" y="673.15" type="line"/>
      <point x="297.2" y="695.15"/>
      <point x="250.7" y="710.0"/>
      <point x="207.95" y="710.0" type="curve" smooth="yes"/>
      <point x="81.75" y="710.0"/>
      <point x="17.55" y="591.2"/>
      <point x="17.55" y="325.9" type="curve" smooth="yes"/>
      <point x="17.55" y="86.1"/>
      <point x="65.6" y="-10.0"/>
    </contour>
  </outline>
</glyph>
<glyph name="seven" format="2">
  <advance width="343.5"/>
  <unicode hex="0037"/>
  <outline>
    <contour>
      <point x="85.65" y="0.0" type="curve"/>
      <point x="198.60000000000002" y="0.0" type="line"/>
      <point x="199.05" y="129.8"/>
      <point x="213.5" y="225.7"/>
      <point x="249.3" y="355.3" type="curve" smooth="yes"/>
      <point x="321.55" y="621.95" type="line"/>
      <point x="321.55" y="700.0" type="line"/>
      <point x="20.95" y="700.0" type="line"/>
      <point x="20.95" y="600.25" type="line"/>
      <point x="210.45" y="600.25" type="line"/>
      <point x="145.5" y="391.6" type="line" smooth="yes"/>
      <point x="102.2" y="250.75"/>
      <point x="85.65" y="137.9"/>
    </contour>
  </outline>
</glyph>
<glyph name="eight" format="2">
  <advance width="343.5"/>
  <unicode hex="0038"/>
  <outline>
    <contour>
      <point x="165.45" y="393.35" type="curve"/>
      <point x="218.60000000000002" y="350.35" type="line"/>
      <point x="288.25" y="405.65"/>
      <point x="316.85" y="467.0"/>
      <point x="316.85" y="541.4" type="curve" smooth="yes"/>
      <point x="316.85" y="646.6"/>
      <point x="263.35" y="710.0"/>
      <point x="175.5" y="710.0" type="curve" smooth="yes"/>
      <point x="79.4" y="710.0"/>
      <point x="25.35" y="645.5"/>
      <point x="25.35" y="529.3" type="curve" smooth="yes"/>
      <point x="25.35" y="317.5"/>
      <point x="227.55" y="334.4"/>
      <point x="227.55" y="173.55" type="curve" smooth="yes"/>
      <point x="227.55" y="116.7"/>
      <point x="207.75" y="84.80000000000001"/>
      <point x="173.85" y="84.80000000000001" type="curve" smooth="yes"/>
      <point x="137.4" y="84.80000000000001"/>
      <point x="116.95" y="119.25"/>
      <point x="116.95" y="184.2" type="curve" smooth="yes"/>
      <point x="116.95" y="248.15"/>
      <point x="136.15" y="289.2"/>
      <point x="177.25" y="326.05" type="curve"/>
      <point x="118.15" y="376.0" type="line"/>
      <point x="47.5" y="325.95"/>
      <point x="15.55" y="259.55"/>
      <point x="15.55" y="176.25" type="curve" smooth="yes"/>
      <point x="15.55" y="57.3"/>
      <point x="71.6" y="-10.0"/>
      <point x="170.1" y="-10.0" type="curve" smooth="yes"/>
      <point x="272.0" y="-10.0"/>
      <point x="328.95" y="56.85"/>
      <point x="328.95" y="176.95" type="curve" smooth="yes"/>
      <point x="328.95" y="408.1"/>
      <point x="124.55000000000001" y="380.45"/>
      <point x="124.55000000000001" y="532.2" type="curve" smooth="yes"/>
      <point x="124.55000000000001" y="582.25"/>
      <point x="143.0" y="613.45"/>
      <point x="171.65" y="613.45" type="curve" smooth="yes"/>
      <point x="204.05" y="613.45"/>
      <point x="222.05" y="582.25"/>
      <point x="222.05" y="523.9" type="curve" smooth="yes"/>
      <point x="222.05" y="466.8"/>
      <point x="209.55" y="429.7"/>
    </contour>
  </outline>
</glyph>
<glyph name="nine" format="2">
  <advance width="343.5"/>
  <unicode hex="0039"/>
  <outline>
    <contour>
      <point x="141.85" y="-10.0" type="curve" smooth="yes"/>
      <point x="268.05" y="-10.0"/>
      <point x="330.45" y="108.8"/>
      <point x="330.45" y="374.1" type="curve" smooth="yes"/>
      <point x="330.45" y="613.9"/>
      <point x="282.4" y="710.0"/>
      <point x="172.25" y="710.0" type="curve" smooth="yes"/>
      <point x="71.1" y="710.0"/>
      <point x="17.55" y="627.0"/>
      <point x="17.55" y="472.6" type="curve" smooth="yes"/>
      <point x="17.55" y="343.0"/>
      <point x="62.15" y="266.05"/>
      <point x="137.15" y="266.05" type="curve" smooth="yes"/>
      <point x="179.55" y="266.05"/>
      <point x="213.65" y="293.4"/>
      <point x="231.65" y="335.65" type="curve"/>
      <point x="235.5" y="429.65" type="line"/>
      <point x="222.15" y="380.0"/>
      <point x="199.65" y="353.8"/>
      <point x="172.25" y="353.8" type="curve" smooth="yes"/>
      <point x="141.7" y="353.8"/>
      <point x="123.35000000000001" y="397.25"/>
      <point x="123.35000000000001" y="477.25" type="curve" smooth="yes"/>
      <point x="123.35000000000001" y="567.5"/>
      <point x="142.4" y="613.35"/>
      <point x="171.6" y="613.35" type="curve" smooth="yes"/>
      <point x="207.1" y="613.35"/>
      <point x="220.25" y="568.5"/>
      <point x="220.25" y="354.0" type="curve" smooth="yes"/>
      <point x="220.25" y="179.3"/>
      <point x="209.95" y="93.25"/>
      <point x="125.15" y="93.25" type="curve" smooth="yes"/>
      <point x="100.25" y="93.25"/>
      <point x="77.75" y="103.15"/>
      <point x="60.95" y="118.4" type="curve"/>
      <point x="25.4" y="26.85" type="line"/>
      <point x="50.8" y="4.8500000000000005"/>
      <point x="99.1" y="-10.0"/>
    </contour>
  </outline>
</glyph>
<glyph name="less" format="2">
  <advance width="397.5"/>
  <unicode hex="003C"/>
  <outline>
    <contour>
      <point x="367.95" y="99.45" type="line"/>
      <point x="367.95" y="188.35000000000002" type="line"/>
      <point x="128.75" y="302.1" type="line"/>
      <point x="367.95" y="416.85" type="line"/>
      <point x="367.95" y="504.3" type="line"/>
      <point x="29.549999999999997" y="350.05" type="line"/>
      <point x="29.549999999999997" y="254.15" type="line"/>
    </contour>
  </outline>
</glyph>
<glyph name="equal" format="2">
  <advance width="386.5"/>
  <unicode hex="003D"/>
  <outline>
    <contour>
      <point x="345.85" y="243.2" type="line"/>
      <point x="40.65" y="243.2" type="line"/>
      <point x="40.65" y="146.2" type="line"/>
      <point x="345.85" y="146.2" type="line"/>
    </contour>
    <contour>
      <point x="345.85" y="459.0" type="line"/>
      <point x="40.65" y="459.0" type="line"/>
      <point x="40.65" y="362.0" type="line"/>
      <point x="345.85" y="362.0" type="line"/>
    </contour>
  </outline>
</glyph>
<glyph name="greater" format="2">
  <advance width="397.5"/>
  <unicode hex="003E"/>
  <outline>
    <contour>
      <point x="367.95" y="253.7" type="line"/>
      <point x="367.95" y="349.6" type="line"/>
      <point x="29.549999999999997" y="504.3" type="line"/>
      <point x="29.549999999999997" y="415.95" type="line"/>
      <point x="268.75" y="301.65" type="line"/>
      <point x="29.549999999999997" y="187.45" type="line"/>
      <point x="29.549999999999997" y="99.45" type="line"/>
    </contour>
  </outline>
</glyph>
<glyph name="question" format="2">
  <advance width="302.6"/>
  <unicode hex="003F"/>
  <outline>
    <contour>
      <point x="92.45" y="261.25" type="line"/>
      <point x="185.60000000000002" y="261.25" type="line"/>
      <point x="185.60000000000002" y="336.5" type="line"/>
      <point x="258.55" y="393.85"/>
      <point x="291.35" y="459.95"/>
      <point x="291.35" y="562.05" type="curve" smooth="yes"/>
      <point x="291.35" y="685.55"/>
      <point x="230.10000000000002" y="749.45"/>
      <point x="130.95" y="749.45" type="curve" smooth="yes"/>
      <point x="82.85" y="749.45"/>
      <point x="38.4" y="729.0"/>
      <point x="6.9" y="699.2" type="curve"/>
      <point x="46.95" y="602.05" type="line"/>
      <point x="74.85" y="627.9"/>
      <point x="94.5" y="634.2"/>
      <point x="115.0" y="634.2" type="curve" smooth="yes"/>
      <point x="156.0" y="634.2"/>
      <point x="181.8" y="596.65"/>
      <point x="181.8" y="542.05" type="curve" smooth="yes"/>
      <point x="181.8" y="485.25"/>
      <point x="164.4" y="439.05"/>
      <point x="90.25" y="383.45" type="curve"/>
    </contour>
    <contour>
      <point x="81.4" y="66.5" type="curve" smooth="yes"/>
      <point x="81.4" y="16.400000000000002"/>
      <point x="97.6" y="-5.5"/>
      <point x="139.3" y="-5.5" type="curve" smooth="yes"/>
      <point x="180.35000000000002" y="-5.5"/>
      <point x="196.75" y="16.400000000000002"/>
      <point x="196.75" y="66.5" type="curve" smooth="yes"/>
      <point x="196.75" y="117.15"/>
      <point x="180.35000000000002" y="139.05"/>
      <point x="139.3" y="139.05" type="curve" smooth="yes"/>
      <point x="96.7" y="139.05"/>
      <point x="81.4" y="117.15"/>
    </contour>
  </outline>
</glyph>
<glyph name="at" format="2">
  <advance width="614.2"/>
  <unicode hex="0040"/>
  <outline>
    <contour>
      <point x="317.90000000000003" y="-124.10000000000001" type="curve" smooth="yes"/>
      <point x="371.6" y="-124.10000000000001"/>
      <point x="436.6" y="-102.00000000000001"/>
      <point x="465.90000000000003" y="-75.50000000000001" type="curve"/>
      <point x="447.50000000000006" y="-32.5" type="line"/>
      <point x="411.90000000000003" y="-54.699999999999996"/>
      <point x="366.90000000000003" y="-70.79999999999998"/>
      <point x="317.8" y="-70.79999999999998" type="curve" smooth="yes"/>
      <point x="175.5" y="-70.79999999999998"/>
      <point x="82.0" y="10.8"/>
      <point x="82.0" y="264.7" type="curve" smooth="yes"/>
      <point x="82.0" y="496.3"/>
      <point x="152.4" y="659.9"/>
      <point x="316.6" y="659.9" type="curve" smooth="yes"/>
      <point x="484.90000000000003" y="659.9"/>
      <point x="537.7" y="546.0999999999999"/>
      <point x="537.7" y="341.8" type="curve" smooth="yes"/>
      <point x="537.7" y="218.0"/>
      <point x="512.5" y="122.3"/>
      <point x="473.90000000000003" y="122.3" type="curve" smooth="yes"/>
      <point x="448.09999999999997" y="122.3"/>
      <point x="425.5" y="142.60000000000002"/>
      <point x="432.40000000000003" y="249.29999999999998" type="curve" smooth="yes"/>
      <point x="452.1" y="526.6999999999999" type="line"/>
      <point x="408.40000000000003" y="546.4"/>
      <point x="373.1" y="555.6999999999999"/>
      <point x="324.2" y="555.6999999999999" type="curve" smooth="yes"/>
      <point x="205.4" y="555.6999999999999"/>
      <point x="159.8" y="423.40000000000003"/>
      <point x="159.8" y="262.3" type="curve" smooth="yes"/>
      <point x="159.8" y="103.8"/>
      <point x="201.70000000000002" y="53.699999999999996"/>
      <point x="256.70000000000005" y="53.699999999999996" type="curve" smooth="yes"/>
      <point x="307.5" y="53.699999999999996"/>
      <point x="330.3" y="92.7"/>
      <point x="354.90000000000003" y="161.89999999999998" type="curve"/>
      <point x="364.8" y="80.6"/>
      <point x="394.8" y="48.199999999999996"/>
      <point x="454.1" y="48.199999999999996" type="curve" smooth="yes"/>
      <point x="548.3" y="48.199999999999996"/>
      <point x="595.1" y="178.2"/>
      <point x="595.1" y="351.7" type="curve" smooth="yes"/>
      <point x="595.1" y="593.4"/>
      <point x="495.7" y="710.0"/>
      <point x="325.4" y="710.0" type="curve" smooth="yes"/>
      <point x="114.00000000000001" y="710.0"/>
      <point x="20.200000000000003" y="529.5"/>
      <point x="20.200000000000003" y="272.40000000000003" type="curve" smooth="yes"/>
      <point x="20.200000000000003" y="-11.099999999999998"/>
      <point x="132.5" y="-124.10000000000001"/>
    </contour>
    <contour>
      <point x="297.09999999999997" y="156.20000000000002" type="curve" smooth="yes"/>
      <point x="281.09999999999997" y="156.20000000000002"/>
      <point x="266.7" y="179.60000000000002"/>
      <point x="266.7" y="256.8" type="curve" smooth="yes"/>
      <point x="266.7" y="360.5"/>
      <point x="284.90000000000003" y="480.59999999999997"/>
      <point x="325.40000000000003" y="480.59999999999997" type="curve" smooth="yes"/>
      <point x="334.0" y="480.59999999999997"/>
      <point x="343.6" y="476.59999999999997"/>
      <point x="352.90000000000003" y="471.9" type="curve"/>
      <point x="339.90000000000003" y="317.5" type="line" smooth="yes"/>
      <point x="327.7" y="173.2"/>
      <point x="319.90000000000003" y="156.20000000000002"/>
    </contour>
  </outline>
</glyph>
<glyph name="A" format="2">
  <advance width="370.35"/>
  <unicode hex="0041"/>
  <anchor x="360.25" y="0.0" name="ogonek"/>
  <anchor x="184.8" y="0.0" name="bottom"/>
  <anchor x="184.8" y="700.0" name="top"/>
  <outline>
    <contour>
      <point x="10.1" y="0.0" type="line"/>
      <point x="115.9" y="0.0" type="line"/>
      <point x="135.5" y="149.5" type="line"/>
      <point x="233.1" y="149.5" type="line"/>
      <point x="253.35" y="0.0" type="line"/>
      <point x="360.25" y="0.0" type="line"/>
      <point x="258.25" y="704.5" type="line"/>
      <point x="110.25" y="704.5" type="line"/>
    </contour>
    <contour>
      <point x="145.10000000000002" y="262.55" type="line"/>
      <point x="184.8" y="612.1" type="line"/>
      <point x="223.5" y="262.55" type="line"/>
    </contour>
  </outline>
</glyph>
<glyph name="B" format="2">
  <advance width="356.8"/>
  <unicode hex="0042"/>
  <anchor x="172.6" y="700.0" name="top"/>
  <anchor x="172.6" y="0.0" name="bottom"/>
  <outline>
    <contour>
      <point x="31.45" y="0.05000000000000071" type="line"/>
      <point x="103.5" y="-8.45"/>
      <point x="113.7" y="-10.0"/>
      <point x="165.3" y="-10.0" type="curve" smooth="yes"/>
      <point x="287.7" y="-10.0"/>
      <point x="343.15" y="54.85"/>
      <point x="343.15" y="198.6" type="curve" smooth="yes"/>
      <point x="343.15" y="282.05"/>
      <point x="311.9" y="347.15"/>
      <point x="258.4" y="375.15" type="curve"/>
      <point x="258.4" y="376.7" type="line"/>
      <point x="298.9" y="404.3"/>
      <point x="323.85" y="463.85"/>
      <point x="323.85" y="535.1" type="curve" smooth="yes"/>
      <point x="323.85" y="653.9"/>
      <point x="272.75" y="710.0"/>
      <point x="165.3" y="710.0" type="curve" smooth="yes"/>
      <point x="129.8" y="710.0"/>
      <point x="85.15" y="706.35"/>
      <point x="31.45" y="699.05" type="curve"/>
    </contour>
    <contour>
      <point x="137.25" y="397.0" type="line"/>
      <point x="137.25" y="603.85" type="line"/>
      <point x="146.4" y="606.85"/>
      <point x="156.0" y="607.85"/>
      <point x="167.95" y="607.85" type="curve" smooth="yes"/>
      <point x="209.35" y="607.85"/>
      <point x="229.6" y="573.45"/>
      <point x="229.6" y="502.65" type="curve" smooth="yes"/>
      <point x="229.6" y="438.55"/>
      <point x="208.1" y="397.0"/>
      <point x="170.45" y="397.0" type="curve" smooth="yes"/>
    </contour>
    <contour>
      <point x="137.25" y="95.05000000000001" type="curve"/>
      <point x="137.25" y="307.15" type="line"/>
      <point x="170.15" y="307.15" type="line" smooth="yes"/>
      <point x="215.5" y="307.15"/>
      <point x="239.0" y="268.55"/>
      <point x="239.0" y="201.8" type="curve" smooth="yes"/>
      <point x="239.0" y="124.9"/>
      <point x="217.85" y="92.05000000000001"/>
      <point x="167.15" y="92.05000000000001" type="curve" smooth="yes"/>
      <point x="158.8" y="92.05000000000001"/>
      <point x="151.0" y="93.05000000000001"/>
    </contour>
  </outline>
</glyph>
<glyph name="C" format="2">
  <advance width="310.4"/>
  <unicode hex="0043"/>
  <anchor x="185.55" y="700.0" name="top"/>
  <anchor x="190.05" y="0.0" name="bottom"/>
  <outline>
    <contour>
      <point x="17.549999999999997" y="343.7" type="curve" smooth="yes"/>
      <point x="17.549999999999997" y="73.8"/>
      <point x="74.85" y="-10.0"/>
      <point x="196.2" y="-10.0" type="curve" smooth="yes"/>
      <point x="231.9" y="-10.0"/>
      <point x="270.6" y="-4.1499999999999995"/>
      <point x="299.6" y="9.0" type="curve"/>
      <point x="281.3" y="109.4" type="line"/>
      <point x="264.0" y="102.2"/>
      <point x="233.3" y="96.55000000000001"/>
      <point x="215.9" y="96.55000000000001" type="curve" smooth="yes"/>
      <point x="152.85" y="96.55000000000001"/>
      <point x="123.9" y="146.5"/>
      <point x="123.9" y="340.95" type="curve" smooth="yes"/>
      <point x="123.9" y="551.4"/>
      <point x="153.95" y="603.55"/>
      <point x="216.05" y="603.55" type="curve" smooth="yes"/>
      <point x="237.0" y="603.55"/>
      <point x="254.65" y="599.9"/>
      <point x="278.6" y="591.15" type="curve"/>
      <point x="299.65" y="690.0" type="line"/>
      <point x="273.7" y="703.05"/>
      <point x="236.55" y="710.0"/>
      <point x="200.75" y="710.0" type="curve" smooth="yes"/>
      <point x="73.45" y="710.0"/>
      <point x="17.549999999999997" y="614.85"/>
    </contour>
  </outline>
</glyph>
<glyph name="D" format="2">
  <advance width="368.4"/>
  <unicode hex="0044"/>
  <anchor x="176.3" y="700.0" name="top"/>
  <outline>
    <contour>
      <point x="157.7" y="-10.0" type="curve" smooth="yes"/>
      <point x="297.9" y="-10.0"/>
      <point x="350.85" y="91.65"/>
      <point x="350.85" y="352.2" type="curve" smooth="yes"/>
      <point x="350.85" y="607.7"/>
      <point x="305.6" y="710.0"/>
      <point x="160.35" y="710.0" type="curve" smooth="yes"/>
      <point x="113.05" y="710.0"/>
      <point x="74.3" y="707.45"/>
      <point x="31.45" y="700.7" type="curve"/>
      <point x="31.45" y="-2.6999999999999997" type="line"/>
      <point x="66.3" y="-7.9"/>
      <point x="109.9" y="-10.0"/>
    </contour>
    <contour>
      <point x="165.5" y="91.05000000000001" type="curve" smooth="yes"/>
      <point x="154.60000000000002" y="91.05000000000001"/>
      <point x="147.10000000000002" y="92.05000000000001"/>
      <point x="136.7" y="93.5" type="curve"/>
      <point x="136.7" y="604.4" type="line"/>
      <point x="146.2" y="606.4"/>
      <point x="157.7" y="607.4"/>
      <point x="166.85" y="607.4" type="curve" smooth="yes"/>
      <point x="224.7" y="607.4"/>
      <point x="241.3" y="556.3"/>
      <point x="241.3" y="350.0" type="curve" smooth="yes"/>
      <point x="241.3" y="149.75"/>
      <point x="224.5" y="91.05000000000001"/>
    </contour>
  </outline>
</glyph>
<glyph name="E" format="2">
  <advance width="306.65"/>
  <unicode hex="0045"/>
  <anchor x="295.1" y="0.0" name="ogonek"/>
  <anchor x="162.95" y="0.0" name="bottom"/>
  <anchor x="160.7" y="700.0" name="top"/>
  <outline>
    <contour>
      <point x="31.45" y="0.0" type="line"/>
      <point x="295.1" y="0.0" type="line"/>
      <point x="295.1" y="106.9" type="line"/>
      <point x="137.25" y="106.9" type="line"/>
      <point x="137.25" y="304.5" type="line"/>
      <point x="265.15" y="304.5" type="line"/>
      <point x="265.15" y="405.45" type="line"/>
      <point x="137.25" y="405.45" type="line"/>
      <point x="137.25" y="590.35" type="line"/>
      <point x="284.55" y="590.35" type="line"/>
      <point x="284.55" y="700.0" type="line"/>
      <point x="31.45" y="700.0" type="line"/>
    </contour>
  </outline>
</glyph>
<glyph name="F" format="2">
  <advance width="292.4"/>
  <unicode hex="0046"/>
  <outline>
    <contour>
      <point x="31.45" y="0.0" type="line"/>
      <point x="137.8" y="0.0" type="line"/>
      <point x="137.8" y="271.9" type="line"/>
      <point x="256.6" y="271.9" type="line"/>
      <point x="256.6" y="381.1" type="line"/>
      <point x="136.7" y="381.1" type="line"/>
      <point x="136.7" y="590.35" type="line"/>
      <point x="284.0" y="590.35" type="line"/>
      <point x="284.0" y="700.0" type="line"/>
      <point x="31.45" y="700.0" type="line"/>
    </contour>
  </outline>
</glyph>
<glyph name="G" format="2">
  <advance width="347.35"/>
  <unicode hex="0047"/>
  <anchor x="188.3" y="700.0" name="top"/>
  <anchor x="189.2" y="0.0" name="bottom"/>
  <outline>
    <contour>
      <point x="17.549999999999997" y="344.8" type="curve" smooth="yes"/>
      <point x="17.549999999999997" y="98.85"/>
      <point x="68.3" y="-10.0"/>
      <point x="187.4" y="-10.0" type="curve" smooth="yes"/>
      <point x="241.8" y="-10.0"/>
      <point x="286.85" y="1.25"/>
      <point x="323.15" y="25.500000000000004" type="curve"/>
      <point x="323.15" y="380.8" type="line"/>
      <point x="173.9" y="380.8" type="line"/>
      <point x="173.9" y="278.2" type="line"/>
      <point x="225.6" y="278.2" type="line"/>
      <point x="225.6" y="97.25" type="line"/>
      <point x="217.9" y="93.15"/>
      <point x="206.1" y="91.05000000000001"/>
      <point x="190.6" y="91.05000000000001" type="curve" smooth="yes"/>
      <point x="141.95" y="91.05000000000001"/>
      <point x="122.80000000000001" y="157.5"/>
      <point x="122.80000000000001" y="337.1" type="curve" smooth="yes"/>
      <point x="122.80000000000001" y="528.85"/>
      <point x="149.10000000000002" y="604.65"/>
      <point x="214.95" y="604.65" type="curve" smooth="yes"/>
      <point x="238.65" y="604.65"/>
      <point x="269.5" y="598.8"/>
      <point x="290.7" y="590.6" type="curve"/>
      <point x="309.55" y="690.55" type="line"/>
      <point x="284.95" y="701.5"/>
      <point x="236.8" y="710.0"/>
      <point x="202.4" y="710.0" type="curve" smooth="yes"/>
      <point x="72.5" y="710.0"/>
      <point x="17.549999999999997" y="599.7"/>
    </contour>
  </outline>
</glyph>
<glyph name="H" format="2">
  <advance width="376.75"/>
  <unicode hex="0048"/>
  <anchor x="188.65" y="700.0" name="top"/>
  <outline>
    <contour>
      <point x="31.45" y="0.0" type="line"/>
      <point x="136.7" y="0.0" type="line"/>
      <point x="136.7" y="256.35" type="line"/>
      <point x="240.05" y="256.35" type="line"/>
      <point x="240.05" y="0.0" type="line"/>
      <point x="345.3" y="0.0" type="line"/>
      <point x="345.3" y="700.0" type="line"/>
      <point x="240.05" y="700.0" type="line"/>
      <point x="240.05" y="366.65" type="line"/>
      <point x="136.7" y="366.65" type="line"/>
      <point x="136.7" y="700.0" type="line"/>
      <point x="31.45" y="700.0" type="line"/>
    </contour>
  </outline>
</glyph>
<glyph name="I" format="2">
  <advance width="168.15"/>
  <unicode hex="0049"/>
  <anchor x="136.7" y="0.0" name="ogonek"/>
  <anchor x="84.35" y="0.0" name="bottom"/>
  <anchor x="84.35" y="700.0" name="top"/>
  <outline>
    <contour>
      <point x="31.45" y="0.0" type="line"/>
      <point x="136.7" y="0.0" type="line"/>
      <point x="136.7" y="700.0" type="line"/>
      <point x="31.45" y="700.0" type="line"/>
    </contour>
  </outline>
</glyph>
<glyph name="J" format="2">
  <advance width="261.95"/>
  <unicode hex="004A"/>
  <anchor x="136.25" y="700.0" name="top"/>
  <outline>
    <contour>
      <point x="2.25" y="11.850000000000001" type="line"/>
      <point x="28.4" y="-0.29999999999999893"/>
      <point x="61.6" y="-10.0"/>
      <point x="102.45" y="-10.0" type="curve" smooth="yes"/>
      <point x="195.2" y="-10.0"/>
      <point x="233.85000000000002" y="52.35"/>
      <point x="233.85000000000002" y="155.85" type="curve" smooth="yes"/>
      <point x="233.85000000000002" y="700.0" type="line"/>
      <point x="29.85" y="700.0" type="line"/>
      <point x="29.85" y="591.35" type="line"/>
      <point x="128.6" y="591.35" type="line"/>
      <point x="128.6" y="194.65" type="line" smooth="yes"/>
      <point x="128.6" y="115.30000000000001"/>
      <point x="108.75" y="95.35000000000001"/>
      <point x="64.5" y="95.35000000000001" type="curve" smooth="yes"/>
      <point x="52.25" y="95.35000000000001"/>
      <point x="35.25" y="98.55000000000001"/>
      <point x="20.450000000000003" y="103.55000000000001" type="curve"/>
    </contour>
  </outline>
</glyph>
<glyph name="K" format="2">
  <advance width="365.40000000000003"/>
  <unicode hex="004B"/>
  <anchor x="186.3" y="700.0" name="top"/>
  <anchor x="199.20000000000002" y="0.0" name="bottom"/>
  <outline>
    <contour>
      <point x="333.3" y="-10.0" type="curve" smooth="yes"/>
      <point x="339.6" y="-10.0"/>
      <point x="345.8" y="-10.0"/>
      <point x="355.0" y="-8.0" type="curve"/>
      <point x="355.0" y="125.7" type="line"/>
      <point x="352.00000000000006" y="125.70000000000002"/>
      <point x="348.90000000000003" y="125.70000000000002"/>
      <point x="345.9" y="125.70000000000002" type="curve" smooth="yes"/>
      <point x="332.90000000000003" y="125.70000000000002"/>
      <point x="314.80000000000007" y="132.0"/>
      <point x="273.1" y="208.8" type="curve" smooth="yes"/>
      <point x="137.7" y="457.8" type="line"/>
      <point x="137.7" y="700.0" type="line"/>
      <point x="31.9" y="700.0" type="line"/>
      <point x="31.9" y="0.0" type="line"/>
      <point x="137.7" y="0.0" type="line"/>
      <point x="137.7" y="258.79999999999995" type="line"/>
      <point x="233.8" y="75.39999999999999" type="line" smooth="yes"/>
      <point x="263.8" y="18.5"/>
      <point x="292.70000000000005" y="-10.0"/>
    </contour>
    <contour>
      <point x="203.4" y="279.3" type="line"/>
      <point x="277.3" y="377.2"/>
      <point x="332.1" y="505.7"/>
      <point x="356.6" y="679.2" type="curve"/>
      <point x="261.8" y="700.9" type="line"/>
      <point x="241.5" y="550.0"/>
      <point x="187.4" y="431.20000000000005"/>
      <point x="147.7" y="368.5" type="curve"/>
    </contour>
  </outline>
</glyph>
<glyph name="L" format="2">
  <advance width="283.35"/>
  <unicode hex="004C"/>
  <anchor x="141.95" y="350.0" name="center"/>
  <anchor x="84.35" y="700.0" name="top"/>
  <anchor x="188.55" y="700.0" name="topright"/>
  <anchor x="154.6" y="0.0" name="bottom"/>
  <outline>
    <contour>
      <point x="31.45" y="0.0" type="line"/>
      <point x="276.05" y="0.0" type="line"/>
      <point x="276.05" y="106.45" type="line"/>
      <point x="137.25" y="106.45" type="line"/>
      <point x="137.25" y="700.0" type="line"/>
      <point x="31.45" y="700.0" type="line"/>
    </contour>
  </outline>
</glyph>
<glyph name="M" format="2">
  <advance width="443.45"/>
  <unicode hex="004D"/>
  <outline>
    <contour>
      <point x="31.45" y="0.0" type="line"/>
      <point x="126.80000000000001" y="0.0" type="line"/>
      <point x="126.80000000000001" y="491.79999999999995" type="line"/>
      <point x="193.05" y="196.14999999999998" type="line"/>
      <point x="248.85000000000002" y="196.14999999999998" type="line"/>
      <point x="316.65" y="491.35" type="line"/>
      <point x="316.65" y="0.0" type="line"/>
      <point x="412.0" y="0.0" type="line"/>
      <point x="412.0" y="700.0" type="line"/>
      <point x="301.9" y="700.0" type="line"/>
      <point x="223.60000000000002" y="373.95" type="line"/>
      <point x="145.3" y="700.0" type="line"/>
      <point x="31.45" y="700.0" type="line"/>
    </contour>
  </outline>
</glyph>
<glyph name="N" format="2">
  <advance width="384.95"/>
  <unicode hex="004E"/>
  <anchor x="192.7" y="700.0" name="top"/>
  <anchor x="192.7" y="0.0" name="bottom"/>
  <outline>
    <contour>
      <point x="31.45" y="0.0" type="line"/>
      <point x="125.15" y="0.0" type="line"/>
      <point x="125.15" y="437.54999999999995" type="line"/>
      <point x="243.4" y="0.0" type="line"/>
      <point x="353.5" y="0.0" type="line"/>
      <point x="353.5" y="700.0" type="line"/>
      <point x="259.8" y="700.0" type="line"/>
      <point x="259.8" y="244.15" type="line"/>
      <point x="142.10000000000002" y="700.0" type="line"/>
      <point x="31.45" y="700.0" type="line"/>
    </contour>
  </outline>
</glyph>
<glyph name="O" format="2">
  <advance width="367.0"/>
  <unicode hex="004F"/>
  <anchor x="245.6" y="6.6000000000000005" name="ogonek"/>
  <anchor x="183.10000000000002" y="700.0" name="top"/>
  <anchor x="275.90000000000003" y="695.5" name="topright"/>
  <anchor x="183.0" y="0.0" name="bottom"/>
  <outline>
    <contour>
      <point x="183.10000000000002" y="92.60000000000001" type="curve" smooth="yes"/>
      <point x="139.5" y="92.60000000000001"/>
      <point x="126.0" y="138.5"/>
      <point x="126.0" y="349.0" type="curve" smooth="yes"/>
      <point x="126.0" y="561.3000000000001"/>
      <point x="139.6" y="608.3"/>
      <point x="183.10000000000002" y="608.3" type="curve" smooth="yes"/>
      <point x="227.6" y="608.3"/>
      <point x="241.1" y="562.4"/>
      <point x="241.1" y="350.09999999999997" type="curve" smooth="yes"/>
      <point x="241.1" y="139.60000000000002"/>
      <point x="227.5" y="92.60000000000001"/>
    </contour>
    <contour>
      <point x="183.0" y="-10.0" type="curve" smooth="yes"/>
      <point x="298.8" y="-10.0"/>
      <point x="349.0" y="69.80000000000001"/>
      <point x="349.0" y="351.1" type="curve" smooth="yes"/>
      <point x="349.0" y="631.3000000000001"/>
      <point x="299.8" y="710.0"/>
      <point x="183.10000000000002" y="710.0" type="curve" smooth="yes"/>
      <point x="67.3" y="710.0"/>
      <point x="17.999999999999996" y="630.1999999999999"/>
      <point x="17.999999999999996" y="348.9" type="curve" smooth="yes"/>
      <point x="17.999999999999996" y="68.7"/>
      <point x="67.2" y="-10.0"/>
    </contour>
  </outline>
</glyph>
<glyph name="P" format="2">
  <advance width="351.4"/>
  <unicode hex="0050"/>
  <outline>
    <contour>
      <point x="31.45" y="0.0" type="line"/>
      <point x="137.25" y="0.0" type="line"/>
      <point x="137.25" y="219.1" type="line"/>
      <point x="157.15" y="216.45"/>
      <point x="166.10000000000002" y="216.45"/>
      <point x="185.4" y="216.45" type="curve" smooth="yes"/>
      <point x="290.3" y="216.45"/>
      <point x="339.25" y="296.6"/>
      <point x="339.25" y="471.3" type="curve" smooth="yes"/>
      <point x="339.25" y="639.35"/>
      <point x="296.05" y="710.0"/>
      <point x="164.75" y="710.0" type="curve" smooth="yes"/>
      <point x="142.45" y="710.0"/>
      <point x="97.25" y="708.55"/>
      <point x="31.45" y="702.9" type="curve"/>
    </contour>
    <contour>
      <point x="137.8" y="606.05" type="line"/>
      <point x="151.05" y="609.05"/>
      <point x="163.3" y="609.5"/>
      <point x="171.8" y="609.5" type="curve" smooth="yes"/>
      <point x="221.05" y="609.5"/>
      <point x="233.45" y="570.6"/>
      <point x="233.45" y="476.55" type="curve" smooth="yes"/>
      <point x="233.45" y="358.65"/>
      <point x="212.85" y="316.2"/>
      <point x="167.7" y="316.2" type="curve" smooth="yes"/>
      <point x="155.55" y="316.2"/>
      <point x="146.95" y="316.2"/>
      <point x="137.8" y="317.75" type="curve"/>
    </contour>
  </outline>
</glyph>
<glyph name="Q" format="2">
  <advance width="367.0"/>
  <unicode hex="0051"/>
  <outline>
    <contour>
      <point x="251.79999999999998" y="33.7" type="curve"/>
      <point x="174.3" y="7.6" type="line"/>
      <point x="189.3" y="-130.1"/>
      <point x="212.8" y="-182.5"/>
      <point x="278.9" y="-182.5" type="curve" smooth="yes"/>
      <point x="298.6" y="-182.5"/>
      <point x="320.00000000000006" y="-177.4"/>
      <point x="338.0" y="-170.4" type="curve"/>
      <point x="325.40000000000003" y="-64.39999999999999" type="line"/>
      <point x="315.8" y="-69.19999999999999"/>
      <point x="305.1" y="-73.1"/>
      <point x="296.1" y="-73.1" type="curve" smooth="yes"/>
      <point x="272.0" y="-73.1"/>
      <point x="263.3" y="-44.4"/>
    </contour>
    <component base="O"/>
  </outline>
</glyph>
<glyph name="R" format="2">
  <advance width="364.1"/>
  <unicode hex="0052"/>
  <anchor x="181.8" y="700.0" name="top"/>
  <anchor x="185.4" y="0.0" name="bottom"/>
  <outline>
    <contour>
      <point x="319.40000000000003" y="-10.0" type="curve" smooth="yes"/>
      <point x="337.6" y="-10.0"/>
      <point x="348.1" y="-7.1"/>
      <point x="356.40000000000003" y="-5.0" type="curve"/>
      <point x="353.7" y="112.2" type="line"/>
      <point x="352.4" y="112.20000000000002"/>
      <point x="344.90000000000003" y="112.2"/>
      <point x="343.6" y="112.2" type="curve" smooth="yes"/>
      <point x="317.7" y="112.2"/>
      <point x="301.20000000000005" y="126.9"/>
      <point x="260.70000000000005" y="284.2" type="curve"/>
      <point x="314.0" y="311.5"/>
      <point x="338.70000000000005" y="390.40000000000003"/>
      <point x="338.70000000000005" y="496.2" type="curve" smooth="yes"/>
      <point x="338.70000000000005" y="647.6"/>
      <point x="280.7" y="709.9"/>
      <point x="173.0" y="709.9" type="curve" smooth="yes"/>
      <point x="120.9" y="709.9"/>
      <point x="76.89999999999999" y="706.8000000000001"/>
      <point x="31.9" y="701.7" type="curve"/>
      <point x="31.9" y="0.0" type="line"/>
      <point x="135.7" y="0.0" type="line"/>
      <point x="135.7" y="247.2" type="line"/>
      <point x="140.3" y="246.3"/>
      <point x="148.4" y="246.3"/>
      <point x="155.70000000000002" y="246.3" type="curve" smooth="yes"/>
      <point x="160.3" y="246.3"/>
      <point x="166.6" y="247.2"/>
      <point x="171.2" y="248.09999999999997" type="curve"/>
      <point x="235.70000000000002" y="-4.440892098500626e-16"/>
      <point x="264.7" y="-10.0"/>
    </contour>
    <contour>
      <point x="165.5" y="341.59999999999997" type="curve" smooth="yes"/>
      <point x="153.70000000000002" y="341.59999999999997"/>
      <point x="145.3" y="342.6"/>
      <point x="135.7" y="343.6" type="curve"/>
      <point x="135.7" y="605.5" type="line"/>
      <point x="149.4" y="608.5"/>
      <point x="161.2" y="609.5"/>
      <point x="169.7" y="609.5" type="curve" smooth="yes"/>
      <point x="219.4" y="609.5"/>
      <point x="232.0" y="570.5999999999999"/>
      <point x="232.0" y="478.79999999999995" type="curve" smooth="yes"/>
      <point x="232.0" y="388.2"/>
      <point x="211.8" y="341.59999999999997"/>
    </contour>
  </outline>
</glyph>
<glyph name="S" format="2">
  <advance width="329.3"/>
  <unicode hex="0053"/>
  <anchor x="169.15" y="700.0" name="top"/>
  <anchor x="160.8" y="0.0" name="bottom"/>
  <outline>
    <contour>
      <point x="299.85" y="683.9" type="line"/>
      <point x="277.8" y="696.85"/>
      <point x="225.55" y="710.0"/>
      <point x="180.4" y="710.0" type="curve" smooth="yes"/>
      <point x="60.599999999999994" y="710.0"/>
      <point x="16.9" y="625.15"/>
      <point x="16.9" y="535.75" type="curve" smooth="yes"/>
      <point x="16.9" y="435.5"/>
      <point x="64.4" y="372.1"/>
      <point x="112.45" y="319.6" type="curve" smooth="yes"/>
      <point x="161.7" y="265.9"/>
      <point x="211.95" y="223.85"/>
      <point x="211.95" y="163.35" type="curve" smooth="yes"/>
      <point x="211.95" y="113.5"/>
      <point x="177.0" y="91.4"/>
      <point x="134.75" y="91.4" type="curve" smooth="yes"/>
      <point x="104.35" y="91.4"/>
      <point x="71.9" y="98.25"/>
      <point x="30.85" y="114.2" type="curve"/>
      <point x="8.549999999999999" y="20.3" type="line"/>
      <point x="50.400000000000006" y="-1.3499999999999999"/>
      <point x="97.25" y="-10.0"/>
      <point x="139.7" y="-10.0" type="curve" smooth="yes"/>
      <point x="251.8" y="-10.0"/>
      <point x="315.55" y="61.150000000000006"/>
      <point x="315.55" y="168.55" type="curve" smooth="yes"/>
      <point x="315.55" y="273.65"/>
      <point x="262.75" y="333.3"/>
      <point x="212.5" y="384.6" type="curve" smooth="yes"/>
      <point x="166.55" y="432.8"/>
      <point x="122.7" y="472.5"/>
      <point x="122.7" y="533.0" type="curve" smooth="yes"/>
      <point x="122.7" y="580.9"/>
      <point x="148.45" y="606.2"/>
      <point x="191.95" y="606.2" type="curve" smooth="yes"/>
      <point x="219.5" y="606.2"/>
      <point x="245.15" y="602.2"/>
      <point x="277.0" y="589.25" type="curve"/>
    </contour>
  </outline>
</glyph>
<glyph name="T" format="2">
  <advance width="323.1"/>
  <unicode hex="0054"/>
  <anchor x="161.55" y="700.0" name="top"/>
  <anchor x="161.55" y="0.0" name="bottom"/>
  <outline>
    <contour>
      <point x="315.35" y="591.35" type="line"/>
      <point x="315.35" y="700.0" type="line"/>
      <point x="7.75" y="700.0" type="line"/>
      <point x="7.75" y="591.35" type="line"/>
      <point x="109.2" y="591.35" type="line"/>
      <point x="109.2" y="0.0" type="line"/>
      <point x="214.45" y="0.0" type="line"/>
      <point x="214.45" y="591.35" type="line"/>
    </contour>
  </outline>
</glyph>
<glyph name="U" format="2">
  <advance width="369.6"/>
  <unicode hex="0055"/>
  <anchor x="240.95" y="1.1" name="ogonek"/>
  <anchor x="185.3" y="700.0" name="top"/>
  <anchor x="341.5" y="700.0" name="topright"/>
  <anchor x="185.3" y="0.0" name="bottom"/>
  <outline>
    <contour>
      <point x="28.1" y="173.4" type="line"/>
      <point x="28.1" y="33.6"/>
      <point x="91.7" y="-10.0"/>
      <point x="184.2" y="-10.0" type="curve" smooth="yes"/>
      <point x="280.55" y="-10.0"/>
      <point x="341.5" y="33.6"/>
      <point x="341.5" y="173.4" type="curve" smooth="yes"/>
      <point x="341.5" y="700.0" type="line"/>
      <point x="235.15" y="700.0" type="line"/>
      <point x="235.15" y="159.65" type="line" smooth="yes"/>
      <point x="235.15" y="103.25"/>
      <point x="212.25" y="90.30000000000001"/>
      <point x="184.2" y="90.30000000000001" type="curve" smooth="yes"/>
      <point x="156.7" y="90.30000000000001"/>
      <point x="133.35000000000002" y="103.25"/>
      <point x="133.35000000000002" y="159.65" type="curve" smooth="yes"/>
      <point x="133.35000000000002" y="700.0" type="line"/>
      <point x="28.1" y="700.0" type="line"/>
    </contour>
  </outline>
</glyph>
<glyph name="V" format="2">
  <advance width="361.30000000000007"/>
  <unicode hex="0056"/>
  <outline>
    <contour>
      <point x="114.2" y="0.0" type="line"/>
      <point x="251.4" y="0.0" type="line"/>
      <point x="357.90000000000003" y="700.0" type="line"/>
      <point x="246.0" y="700.9" type="line"/>
      <point x="182.8" y="123.30000000000001" type="line"/>
      <point x="115.4" y="700.9" type="line"/>
      <point x="3.3999999999999995" y="700.0" type="line"/>
    </contour>
  </outline>
</glyph>
<glyph name="W" format="2">
  <advance width="481.1"/>
  <unicode hex="0057"/>
  <anchor x="240.60000000000002" y="700.0" name="top"/>
  <anchor x="240.60000000000002" y="0.0" name="bottom"/>
  <outline>
    <contour>
      <point x="404.1" y="0.0" type="line"/>
      <point x="477.70000000000005" y="700.0" type="line"/>
      <point x="362.1" y="700.9" type="line"/>
      <point x="340.59999999999997" y="143.5" type="line"/>
      <point x="281.1" y="669.1999999999999" type="line"/>
      <point x="203.60000000000002" y="669.1999999999999" type="line"/>
      <point x="144.10000000000002" y="143.60000000000002" type="line"/>
      <point x="119.00000000000001" y="700.9" type="line"/>
      <point x="3.399999999999999" y="700.0" type="line"/>
      <point x="77.0" y="0.0" type="line"/>
      <point x="190.5" y="0.0" type="line"/>
      <point x="238.79999999999998" y="463.70000000000005" type="line"/>
      <point x="285.1" y="0.0" type="line"/>
    </contour>
  </outline>
</glyph>
<glyph name="X" format="2">
  <advance width="380.4"/>
  <unicode hex="0058"/>
  <outline>
    <contour>
      <point x="8.5" y="0.8999999999999999" type="line"/>
      <point x="132.10000000000002" y="-1.7999999999999998" type="line"/>
      <point x="189.85" y="280.95" type="line"/>
      <point x="247.3" y="-1.7999999999999998" type="line"/>
      <point x="371.45000000000005" y="0.8999999999999999" type="line"/>
      <point x="271.70000000000005" y="356.35" type="line"/>
      <point x="364.35" y="698.65" type="line"/>
      <point x="242.95" y="701.35" type="line"/>
      <point x="190.65" y="432.8" type="line"/>
      <point x="137.0" y="701.35" type="line"/>
      <point x="16.15" y="698.65" type="line"/>
      <point x="108.7" y="356.6" type="line"/>
    </contour>
  </outline>
</glyph>
<glyph name="Y" format="2">
  <advance width="357.8"/>
  <unicode hex="0059"/>
  <anchor x="179.35" y="700.0" name="top"/>
  <anchor x="178.9" y="0.0" name="bottom"/>
  <outline>
    <contour>
      <point x="126.45" y="0.0" type="line"/>
      <point x="231.7" y="0.0" type="line"/>
      <point x="231.7" y="256.15" type="line"/>
      <point x="353.05" y="698.65" type="line"/>
      <point x="234.4" y="701.35" type="line"/>
      <point x="179.35" y="338.5" type="line"/>
      <point x="121.60000000000001" y="701.35" type="line"/>
      <point x="2.9499999999999993" y="698.65" type="line"/>
      <point x="126.45" y="256.15" type="line"/>
    </contour>
  </outline>
</glyph>
<glyph name="Z" format="2">
  <advance width="332.5"/>
  <unicode hex="005A"/>
  <anchor x="170.2" y="350.0" name="center"/>
  <anchor x="170.2" y="0.0" name="bottom"/>
  <anchor x="172.6" y="700.0" name="top"/>
  <outline>
    <contour>
      <point x="12.7" y="0.0" type="line"/>
      <point x="322.2" y="0.0" type="line"/>
      <point x="322.2" y="103.60000000000001" type="line"/>
      <point x="114.7" y="103.60000000000001" type="line"/>
      <point x="114.7" y="104.60000000000001" type="line"/>
      <point x="313.20000000000005" y="594.7" type="line"/>
      <point x="313.20000000000005" y="700.0" type="line"/>
      <point x="20.0" y="700.0" type="line"/>
      <point x="20.0" y="597.3" type="line"/>
      <point x="208.6" y="597.3" type="line"/>
      <point x="208.6" y="595.4" type="line"/>
      <point x="12.7" y="106.2" type="line"/>
    </contour>
  </outline>
</glyph>
<glyph name="bracketleft" format="2">
  <advance width="208.4"/>
  <unicode hex="005B"/>
  <outline>
    <contour>
      <point x="112.35" y="-119.6" type="line"/>
      <point x="112.35" y="649.6" type="line"/>
      <point x="201.3" y="649.6" type="line"/>
      <point x="201.3" y="740.0" type="line"/>
      <point x="30.2" y="740.0" type="line"/>
      <point x="30.2" y="-210.0" type="line"/>
      <point x="201.3" y="-210.0" type="line"/>
      <point x="201.3" y="-119.6" type="line"/>
    </contour>
  </outline>
</glyph>
<glyph name="backslash" format="2">
  <advance width="300.0"/>
  <unicode hex="005C"/>
  <outline>
    <contour>
      <point x="86.45" y="740.0" type="line"/>
      <point x="-4.6000000000000005" y="740.0" type="line"/>
      <point x="214.1" y="-210.0" type="line"/>
      <point x="304.6" y="-210.0" type="line"/>
    </contour>
  </outline>
</glyph>
<glyph name="bracketright" format="2">
  <advance width="208.4"/>
  <unicode hex="005D"/>
  <outline>
    <contour>
      <point x="7.1" y="-119.6" type="line"/>
      <point x="7.1" y="-210.0" type="line"/>
      <point x="178.2" y="-210.0" type="line"/>
      <point x="178.2" y="740.0" type="line"/>
      <point x="7.1" y="740.0" type="line"/>
      <point x="7.1" y="649.6" type="line"/>
      <point x="96.05" y="649.6" type="line"/>
      <point x="96.05" y="-119.6" type="line"/>
    </contour>
  </outline>
</glyph>
<glyph name="asciicircum" format="2">
  <advance width="397.5"/>
  <unicode hex="005E"/>
  <outline>
    <contour>
      <point x="42.9" y="258.65" type="line"/>
      <point x="121.10000000000001" y="258.65" type="line"/>
      <point x="198.75" y="593.4" type="line"/>
      <point x="276.95" y="258.65" type="line"/>
      <point x="354.6" y="258.65" type="line"/>
      <point x="252.2" y="704.5" type="line"/>
      <point x="145.3" y="704.5" type="line"/>
    </contour>
  </outline>
</glyph>
<glyph name="underscore" format="2">
  <advance width="617.9"/>
  <unicode hex="005F"/>
  <outline>
    <contour>
      <point x="11.0" y="-176.15" type="line"/>
      <point x="606.9" y="-176.15" type="line"/>
      <point x="606.9" y="-74.75" type="line"/>
      <point x="11.0" y="-74.75" type="line"/>
    </contour>
  </outline>
</glyph>
<glyph name="a" format="2">
  <advance width="342.3"/>
  <unicode hex="0061"/>
  <anchor x="342.0" y="7.800000000000001" name="ogonek"/>
  <anchor x="164.9" y="0.0" name="bottom"/>
  <anchor x="161.2" y="541.0" name="top"/>
  <outline>
    <contour>
      <point x="6.699999999999999" y="137.9" type="curve" smooth="yes"/>
      <point x="6.699999999999999" y="57.4"/>
      <point x="38.5" y="-10.0"/>
      <point x="113.0" y="-10.0" type="curve" smooth="yes"/>
      <point x="153.00000000000003" y="-10.0"/>
      <point x="175.9" y="4.799999999999999"/>
      <point x="202.0" y="32.0" type="curve"/>
      <point x="213.8" y="5.0"/>
      <point x="236.29999999999998" y="-10.0"/>
      <point x="276.3" y="-10.0" type="curve" smooth="yes"/>
      <point x="306.09999999999997" y="-10.0"/>
      <point x="325.2" y="-2.499999999999999"/>
      <point x="342.0" y="7.800000000000001" type="curve"/>
      <point x="332.8" y="104.80000000000001" type="line"/>
      <point x="326.20000000000005" y="101.10000000000001"/>
      <point x="319.3" y="100.1"/>
      <point x="312.6" y="100.1" type="curve" smooth="yes"/>
      <point x="305.00000000000006" y="100.1"/>
      <point x="299.0" y="105.9"/>
      <point x="299.0" y="128.70000000000002" type="curve" smooth="yes"/>
      <point x="299.0" y="384.1" type="line" smooth="yes"/>
      <point x="299.0" y="490.0"/>
      <point x="258.6" y="551.0"/>
      <point x="147.2" y="551.0" type="curve" smooth="yes"/>
      <point x="113.10000000000001" y="551.0"/>
      <point x="63.99999999999999" y="541.5"/>
      <point x="26.2" y="525.1" type="curve"/>
      <point x="49.699999999999996" y="424.7" type="line"/>
      <point x="90.4" y="439.1"/>
      <point x="117.30000000000001" y="441.2"/>
      <point x="134.8" y="441.2" type="curve" smooth="yes"/>
      <point x="168.8" y="441.2"/>
      <point x="194.5" y="419.4"/>
      <point x="194.5" y="380.2" type="curve" smooth="yes"/>
      <point x="194.5" y="315.3" type="line"/>
      <point x="77.0" y="294.50000000000006"/>
      <point x="6.699999999999999" y="257.6"/>
    </contour>
    <contour>
      <point x="110.2" y="149.6" type="curve" smooth="yes"/>
      <point x="110.2" y="215.2"/>
      <point x="149.2" y="229.7"/>
      <point x="194.5" y="238.9" type="curve"/>
      <point x="194.5" y="104.00000000000001" type="line"/>
      <point x="185.2" y="90.10000000000001"/>
      <point x="169.10000000000002" y="79.10000000000001"/>
      <point x="149.9" y="79.10000000000001" type="curve" smooth="yes"/>
      <point x="125.5" y="79.10000000000001"/>
      <point x="110.2" y="101.9"/>
    </contour>
  </outline>
</glyph>
<glyph name="b" format="2">
  <advance width="343.45"/>
  <unicode hex="0062"/>
  <outline>
    <contour>
      <point x="30.25" y="12.25" type="line"/>
      <point x="70.7" y="-1.5999999999999996"/>
      <point x="117.2" y="-10.0"/>
      <point x="153.8" y="-10.0" type="curve" smooth="yes"/>
      <point x="279.05" y="-10.0"/>
      <point x="324.9" y="69.2"/>
      <point x="324.9" y="285.9" type="curve" smooth="yes"/>
      <point x="324.9" y="464.6"/>
      <point x="286.4" y="551.0"/>
      <point x="204.60000000000002" y="551.0" type="curve" smooth="yes"/>
      <point x="182.7" y="551.0"/>
      <point x="152.60000000000002" y="540.9"/>
      <point x="135.5" y="528.25" type="curve"/>
      <point x="135.5" y="740.0" type="line"/>
      <point x="30.25" y="740.0" type="line"/>
    </contour>
    <contour>
      <point x="135.5" y="83.2" type="curve"/>
      <point x="135.5" y="436.2" type="line"/>
      <point x="148.95" y="446.05"/>
      <point x="157.35" y="449.4"/>
      <point x="169.9" y="449.4" type="curve" smooth="yes"/>
      <point x="199.9" y="449.4"/>
      <point x="213.6" y="400.35"/>
      <point x="213.6" y="274.35" type="curve" smooth="yes"/>
      <point x="213.6" y="119.1"/>
      <point x="201.25" y="77.95"/>
      <point x="160.35" y="77.95" type="curve" smooth="yes"/>
      <point x="153.3" y="77.95"/>
      <point x="147.60000000000002" y="79.4"/>
    </contour>
  </outline>
</glyph>
<glyph name="c" format="2">
  <advance width="286.1"/>
  <unicode hex="0063"/>
  <anchor x="177.5" y="541.0" name="top"/>
  <anchor x="181.8" y="0.0" name="bottom"/>
  <outline>
    <contour>
      <point x="18.999999999999996" y="268.7" type="curve" smooth="yes"/>
      <point x="18.999999999999996" y="76.89999999999999"/>
      <point x="69.5" y="-10.0"/>
      <point x="176.50000000000003" y="-10.0" type="curve" smooth="yes"/>
      <point x="211.2" y="-10.0"/>
      <point x="256.0" y="-2.4999999999999996"/>
      <point x="276.70000000000005" y="7.000000000000002" type="curve"/>
      <point x="254.10000000000002" y="104.7" type="line"/>
      <point x="237.7" y="100.50000000000001"/>
      <point x="217.10000000000002" y="97.4"/>
      <point x="201.9" y="97.4" type="curve" smooth="yes"/>
      <point x="153.8" y="97.4"/>
      <point x="128.5" y="137.8"/>
      <point x="128.5" y="269.40000000000003" type="curve" smooth="yes"/>
      <point x="128.5" y="405.8"/>
      <point x="154.00000000000003" y="443.49999999999994"/>
      <point x="206.89999999999998" y="443.49999999999994" type="curve" smooth="yes"/>
      <point x="224.2" y="443.49999999999994"/>
      <point x="238.4" y="441.49999999999994"/>
      <point x="252.3" y="437.4" type="curve"/>
      <point x="270.7" y="538.5" type="line"/>
      <point x="251.20000000000002" y="546.7"/>
      <point x="216.5" y="551.0"/>
      <point x="185.7" y="551.0" type="curve" smooth="yes"/>
      <point x="71.8" y="551.0"/>
      <point x="18.999999999999996" y="463.0"/>
    </contour>
  </outline>
</glyph>
<glyph name="d" format="2">
  <advance width="344.0"/>
  <unicode hex="0064"/>
  <anchor x="170.9" y="275.0" name="center"/>
  <anchor x="169.95" y="740.0" name="top"/>
  <anchor x="358.6" y="740.0" name="topright"/>
  <anchor x="170.9" y="0.0" name="bottom"/>
  <outline>
    <contour>
      <point x="219.1" y="0.0" type="line"/>
      <point x="313.75" y="0.0" type="line"/>
      <point x="313.75" y="740.0" type="line"/>
      <point x="207.95" y="740.0" type="line"/>
      <point x="207.95" y="544.65" type="line"/>
      <point x="193.9" y="549.0"/>
      <point x="178.8" y="551.0"/>
      <point x="166.0" y="551.0" type="curve" smooth="yes"/>
      <point x="66.6" y="551.0"/>
      <point x="18.549999999999997" y="458.6"/>
      <point x="18.549999999999997" y="260.05" type="curve" smooth="yes"/>
      <point x="18.549999999999997" y="81.1"/>
      <point x="58.6" y="-10.0"/>
      <point x="137.35" y="-10.0" type="curve" smooth="yes"/>
      <point x="164.2" y="-10.0"/>
      <point x="192.6" y="-0.7999999999999998"/>
      <point x="210.7" y="13.850000000000001" type="curve"/>
    </contour>
    <contour>
      <point x="207.95" y="101.5" type="line"/>
      <point x="196.15" y="93.30000000000001"/>
      <point x="186.65" y="89.95"/>
      <point x="174.2" y="89.95" type="curve" smooth="yes"/>
      <point x="144.10000000000002" y="89.95"/>
      <point x="130.4" y="141.3"/>
      <point x="130.4" y="276.0" type="curve" smooth="yes"/>
      <point x="130.4" y="421.9"/>
      <point x="142.75" y="461.4"/>
      <point x="183.1" y="461.4" type="curve" smooth="yes"/>
      <point x="190.7" y="461.4"/>
      <point x="196.3" y="459.95"/>
      <point x="207.95" y="454.5" type="curve"/>
    </contour>
  </outline>
</glyph>
<glyph name="e" format="2">
  <advance width="333.1"/>
  <unicode hex="0065"/>
  <anchor x="275.70000000000005" y="6.5" name="ogonek"/>
  <anchor x="173.5" y="0.0" name="bottom"/>
  <anchor x="174.9" y="541.0" name="top"/>
  <outline>
    <contour>
      <point x="175.5" y="-10.0" type="curve" smooth="yes"/>
      <point x="225.00000000000003" y="-10.0"/>
      <point x="266.5" y="-1.5999999999999996"/>
      <point x="310.1" y="18.1" type="curve"/>
      <point x="295.1" y="110.80000000000001" type="line"/>
      <point x="262.7" y="99.9"/>
      <point x="231.70000000000002" y="92.60000000000001"/>
      <point x="202.9" y="92.60000000000001" type="curve" smooth="yes"/>
      <point x="143.3" y="92.60000000000001"/>
      <point x="127.0" y="125.8"/>
      <point x="127.0" y="220.7" type="curve" smooth="yes"/>
      <point x="127.0" y="225.5"/>
      <point x="127.0" y="230.2"/>
      <point x="127.0" y="235.0" type="curve"/>
      <point x="186.9" y="236.20000000000002"/>
      <point x="271.8" y="247.39999999999998"/>
      <point x="315.6" y="254.4" type="curve"/>
      <point x="315.7" y="267.3"/>
      <point x="316.7" y="300.2"/>
      <point x="316.7" y="310.7" type="curve" smooth="yes"/>
      <point x="316.7" y="483.2"/>
      <point x="274.5" y="551.0"/>
      <point x="179.9" y="551.0" type="curve" smooth="yes"/>
      <point x="74.0" y="551.0"/>
      <point x="18.999999999999996" y="479.59999999999997"/>
      <point x="18.999999999999996" y="259.8" type="curve" smooth="yes"/>
      <point x="18.999999999999996" y="67.10000000000001"/>
      <point x="67.8" y="-10.0"/>
    </contour>
    <contour>
      <point x="127.0" y="312.6" type="curve"/>
      <point x="130.6" y="438.8"/>
      <point x="148.1" y="463.6"/>
      <point x="174.5" y="463.6" type="curve" smooth="yes"/>
      <point x="199.9" y="463.6"/>
      <point x="213.10000000000002" y="432.59999999999997"/>
      <point x="213.10000000000002" y="319.09999999999997" type="curve"/>
      <point x="197.60000000000002" y="316.3"/>
      <point x="157.4" y="312.6"/>
    </contour>
  </outline>
</glyph>
<glyph name="f" format="2">
  <advance width="237.85"/>
  <unicode hex="0066"/>
  <outline>
    <contour>
      <point x="58.35" y="0.0" type="line"/>
      <point x="161.4" y="0.0" type="line"/>
      <point x="161.4" y="417.7" type="line"/>
      <point x="224.85" y="417.7" type="line"/>
      <point x="224.85" y="508.75" type="line"/>
      <point x="161.95" y="508.75" type="line"/>
      <point x="161.95" y="529.85" type="line" smooth="yes"/>
      <point x="161.95" y="617.5"/>
      <point x="180.05" y="652.9"/>
      <point x="219.95" y="652.9" type="curve" smooth="yes"/>
      <point x="230.75" y="652.9"/>
      <point x="241.55" y="651.35"/>
      <point x="258.2" y="645.8" type="curve"/>
      <point x="274.85" y="730.9" type="line"/>
      <point x="245.2" y="744.7"/>
      <point x="220.3" y="750.0"/>
      <point x="191.9" y="750.0" type="curve" smooth="yes"/>
      <point x="102.7" y="750.0"/>
      <point x="58.35" y="677.8"/>
      <point x="58.35" y="530.95" type="curve" smooth="yes"/>
      <point x="58.35" y="508.75" type="line"/>
      <point x="7.699999999999999" y="502.2" type="line"/>
      <point x="7.699999999999999" y="417.7" type="line"/>
      <point x="58.35" y="417.7" type="line"/>
    </contour>
  </outline>
</glyph>
<glyph name="g" format="2">
  <advance width="350.6"/>
  <unicode hex="0067"/>
  <anchor x="163.60000000000002" y="541.0" name="top"/>
  <anchor x="176.6" y="-210.0" name="bottom"/>
  <outline>
    <contour>
      <point x="162.8" y="-220.0" type="curve" smooth="yes"/>
      <point x="279.0" y="-220.0"/>
      <point x="339.0" y="-153.79999999999998"/>
      <point x="339.0" y="-44.99999999999999" type="curve" smooth="yes"/>
      <point x="339.0" y="48.50000000000001"/>
      <point x="295.3" y="104.50000000000001"/>
      <point x="218.2" y="104.50000000000001" type="curve" smooth="yes"/>
      <point x="156.20000000000002" y="104.50000000000001" type="line" smooth="yes"/>
      <point x="126.10000000000001" y="104.50000000000001"/>
      <point x="109.6" y="117.0"/>
      <point x="109.6" y="142.9" type="curve" smooth="yes"/>
      <point x="109.6" y="168.79999999999998"/>
      <point x="118.19999999999999" y="181.29999999999998"/>
      <point x="140.6" y="198.6" type="curve"/>
      <point x="84.3" y="222.2" type="line"/>
      <point x="51.8" y="195.6"/>
      <point x="27.9" y="161.4"/>
      <point x="27.9" y="111.69999999999999" type="curve" smooth="yes"/>
      <point x="27.9" y="50.699999999999996"/>
      <point x="67.89999999999999" y="2.299999999999997"/>
      <point x="139.0" y="2.299999999999997" type="curve" smooth="yes"/>
      <point x="195.70000000000002" y="2.299999999999997" type="line" smooth="yes"/>
      <point x="226.4" y="2.299999999999997"/>
      <point x="242.2" y="-18.8"/>
      <point x="242.2" y="-56.0" type="curve" smooth="yes"/>
      <point x="242.2" y="-98.8"/>
      <point x="220.6" y="-123.89999999999999"/>
      <point x="169.70000000000002" y="-123.89999999999999" type="curve" smooth="yes"/>
      <point x="123.9" y="-123.89999999999999"/>
      <point x="98.80000000000001" y="-101.69999999999999"/>
      <point x="98.80000000000001" y="-54.8" type="curve" smooth="yes"/>
      <point x="98.80000000000001" y="-23.799999999999997"/>
      <point x="110.9" y="-3.500000000000001"/>
      <point x="132.20000000000002" y="14.1" type="curve"/>
      <point x="69.8" y="37.699999999999996" type="line"/>
      <point x="34.5" y="12.7"/>
      <point x="13.6" y="-25.0"/>
      <point x="13.6" y="-81.2" type="curve" smooth="yes"/>
      <point x="13.6" y="-172.20000000000002"/>
      <point x="68.80000000000001" y="-220.0"/>
    </contour>
    <contour>
      <point x="168.20000000000002" y="179.79999999999998" type="curve" smooth="yes"/>
      <point x="258.3" y="179.79999999999998"/>
      <point x="304.90000000000003" y="242.4"/>
      <point x="304.90000000000003" y="365.4" type="curve" smooth="yes"/>
      <point x="304.90000000000003" y="488.4"/>
      <point x="258.3" y="551.0"/>
      <point x="168.20000000000002" y="551.0" type="curve" smooth="yes"/>
      <point x="77.2" y="551.0"/>
      <point x="30.599999999999998" y="488.4"/>
      <point x="30.599999999999998" y="365.4" type="curve" smooth="yes"/>
      <point x="30.599999999999998" y="242.4"/>
      <point x="77.2" y="179.79999999999998"/>
    </contour>
    <contour>
      <point x="168.20000000000002" y="267.1" type="curve" smooth="yes"/>
      <point x="142.8" y="267.1"/>
      <point x="131.6" y="292.59999999999997"/>
      <point x="131.6" y="365.4" type="curve" smooth="yes"/>
      <point x="131.6" y="438.2"/>
      <point x="142.8" y="463.7"/>
      <point x="168.20000000000002" y="463.7" type="curve" smooth="yes"/>
      <point x="193.6" y="463.7"/>
      <point x="203.89999999999998" y="438.2"/>
      <point x="203.89999999999998" y="365.4" type="curve" smooth="yes"/>
      <point x="203.89999999999998" y="292.59999999999997"/>
      <point x="193.6" y="267.1"/>
    </contour>
    <contour>
      <point x="281.50000000000006" y="431.7" type="line"/>
      <point x="292.1" y="454.9"/>
      <point x="304.00000000000006" y="465.79999999999995"/>
      <point x="317.90000000000003" y="465.79999999999995" type="curve" smooth="yes"/>
      <point x="326.2" y="465.79999999999995"/>
      <point x="330.5" y="464.7"/>
      <point x="335.8" y="463.6" type="curve"/>
      <point x="351.20000000000005" y="559.6" type="line"/>
      <point x="342.4" y="565.0"/>
      <point x="329.40000000000003" y="568.3000000000001"/>
      <point x="315.6" y="568.3000000000001" type="curve" smooth="yes"/>
      <point x="285.9" y="568.3000000000001"/>
      <point x="260.6" y="550.2"/>
      <point x="242.9" y="513.3" type="curve"/>
    </contour>
  </outline>
</glyph>
<glyph name="h" format="2">
  <advance width="346.25"/>
  <unicode hex="0068"/>
  <anchor x="173.35" y="395.0" name="center"/>
  <anchor x="173.35" y="0.0" name="bottom"/>
  <anchor x="178.45" y="740.0" name="top"/>
  <outline>
    <contour>
      <point x="30.25" y="0.0" type="line"/>
      <point x="135.5" y="0.0" type="line"/>
      <point x="135.5" y="432.2" type="line"/>
      <point x="146.9" y="441.7"/>
      <point x="163.95" y="447.75"/>
      <point x="176.8" y="447.75" type="curve" smooth="yes"/>
      <point x="197.9" y="447.75"/>
      <point x="211.3" y="434.5"/>
      <point x="211.3" y="404.75" type="curve" smooth="yes"/>
      <point x="211.3" y="0.0" type="line"/>
      <point x="317.1" y="0.0" type="line"/>
      <point x="317.1" y="432.25" type="line" smooth="yes"/>
      <point x="317.1" y="519.3"/>
      <point x="278.25" y="551.0"/>
      <point x="224.5" y="551.0" type="curve" smooth="yes"/>
      <point x="195.85000000000002" y="551.0"/>
      <point x="161.0" y="539.35"/>
      <point x="135.5" y="515.35" type="curve"/>
      <point x="135.5" y="740.0" type="line"/>
      <point x="30.25" y="740.0" type="line"/>
    </contour>
  </outline>
</glyph>
<glyph name="i" format="2">
  <advance width="165.75"/>
  <unicode hex="0069"/>
  <anchor x="135.5" y="0.0" name="ogonek"/>
  <anchor x="83.15" y="0.0" name="bottom"/>
  <outline>
    <contour>
      <point x="83.15" y="617.6" type="curve" smooth="yes"/>
      <point x="124.65" y="617.6"/>
      <point x="143.35000000000002" y="638.4"/>
      <point x="143.35000000000002" y="685.75" type="curve" smooth="yes"/>
      <point x="143.35000000000002" y="734.2"/>
      <point x="123.55000000000001" y="754.45"/>
      <point x="83.15" y="754.45" type="curve" smooth="yes"/>
      <point x="42.2" y="754.45"/>
      <point x="22.4" y="734.2"/>
      <point x="22.4" y="685.75" type="curve" smooth="yes"/>
      <point x="22.4" y="637.85"/>
      <point x="42.65" y="617.6"/>
    </contour>
    <contour>
      <point x="30.25" y="0.0" type="line"/>
      <point x="135.5" y="0.0" type="line"/>
      <point x="135.5" y="541.0" type="line"/>
      <point x="30.25" y="541.0" type="line"/>
    </contour>
  </outline>
</glyph>
<glyph name="j" format="2">
  <advance width="165.3"/>
  <unicode hex="006A"/>
  <outline>
    <contour>
      <point x="135.05" y="541.0" type="line"/>
      <point x="29.799999999999997" y="541.0" type="line"/>
      <point x="29.799999999999997" y="17.85" type="line" smooth="yes"/>
      <point x="29.799999999999997" y="-49.349999999999994"/>
      <point x="17.4" y="-84.75"/>
      <point x="-10.0" y="-99.14999999999999" type="curve" smooth="yes"/>
      <point x="-18.85" y="-101.39999999999999"/>
      <point x="-26.6" y="-101.55"/>
      <point x="-37.55" y="-100.14999999999999" type="curve"/>
      <point x="-48.35" y="-205.15" type="line"/>
      <point x="-24.950000000000003" y="-209.5"/>
      <point x="-4.2" y="-210.1"/>
      <point x="15.450000000000001" y="-207.4" type="curve" smooth="yes"/>
      <point x="101.30000000000001" y="-190.75"/>
      <point x="135.05" y="-120.80000000000001"/>
      <point x="135.05" y="9.05" type="curve" smooth="yes"/>
    </contour>
    <contour>
      <point x="82.7" y="617.6" type="curve" smooth="yes"/>
      <point x="123.75" y="617.6"/>
      <point x="142.9" y="638.4"/>
      <point x="142.9" y="685.75" type="curve" smooth="yes"/>
      <point x="142.9" y="734.2"/>
      <point x="122.65" y="754.45"/>
      <point x="82.7" y="754.45" type="curve" smooth="yes"/>
      <point x="41.75" y="754.45"/>
      <point x="21.95" y="734.2"/>
      <point x="21.95" y="685.75" type="curve" smooth="yes"/>
      <point x="21.95" y="637.85"/>
      <point x="42.2" y="617.6"/>
    </contour>
  </outline>
</glyph>
<glyph name="k" format="2">
  <advance width="328.0"/>
  <unicode hex="006B"/>
  <anchor x="80.3" y="740.0" name="top"/>
  <anchor x="177.10000000000002" y="0.0" name="bottom"/>
  <outline>
    <contour>
      <point x="297.20000000000005" y="-8.2" type="curve" smooth="yes"/>
      <point x="307.7" y="-8.2"/>
      <point x="318.1" y="-7.199999999999999"/>
      <point x="328.7" y="-4.1" type="curve"/>
      <point x="327.8" y="112.80000000000001" type="line"/>
      <point x="324.8" y="112.80000000000001"/>
      <point x="321.0" y="111.9"/>
      <point x="318.0" y="111.9" type="curve" smooth="yes"/>
      <point x="296.4" y="111.9"/>
      <point x="281.7" y="125.9"/>
      <point x="226.7" y="224.6" type="curve" smooth="yes"/>
      <point x="129.9" y="399.8" type="line"/>
      <point x="129.9" y="740.0" type="line"/>
      <point x="30.7" y="740.0" type="line"/>
      <point x="30.7" y="0.0" type="line"/>
      <point x="129.9" y="0.0" type="line"/>
      <point x="129.9" y="212.29999999999998" type="line"/>
      <point x="195.00000000000003" y="91.5" type="line" smooth="yes"/>
      <point x="240.7" y="7.4"/>
      <point x="259.0" y="-8.2"/>
    </contour>
    <contour>
      <point x="193.50000000000003" y="222.79999999999998" type="line"/>
      <point x="255.10000000000002" y="316.7"/>
      <point x="309.7" y="431.5"/>
      <point x="322.90000000000003" y="541.8000000000001" type="curve"/>
      <point x="220.6" y="550.0" type="line"/>
      <point x="210.70000000000002" y="438.09999999999997"/>
      <point x="177.3" y="367.0"/>
      <point x="129.7" y="294.5" type="curve"/>
    </contour>
  </outline>
</glyph>
<glyph name="l" format="2">
  <advance width="190.2"/>
  <unicode hex="006C"/>
  <anchor x="95.6" y="395.0" name="center"/>
  <anchor x="83.15" y="740.0" name="top"/>
  <anchor x="180.35" y="740.0" name="topright"/>
  <anchor x="111.1" y="0.0" name="bottom"/>
  <outline>
    <contour>
      <point x="135.5" y="740.0" type="line"/>
      <point x="30.25" y="740.0" type="line"/>
      <point x="30.25" y="135.6" type="line" smooth="yes"/>
      <point x="30.25" y="27.450000000000003"/>
      <point x="61.0" y="-10.0"/>
      <point x="129.9" y="-10.0" type="curve" smooth="yes"/>
      <point x="153.2" y="-10.0"/>
      <point x="175.65" y="-1.3999999999999995"/>
      <point x="189.85" y="7.450000000000001" type="curve"/>
      <point x="182.55" y="100.15" type="line"/>
      <point x="173.05" y="97.35000000000001"/>
      <point x="166.15" y="96.35000000000001"/>
      <point x="161.25" y="96.35000000000001" type="curve" smooth="yes"/>
      <point x="145.3" y="96.35000000000001"/>
      <point x="135.5" y="105.60000000000001"/>
      <point x="135.5" y="150.45" type="curve" smooth="yes"/>
    </contour>
  </outline>
</glyph>
<glyph name="m" format="2">
  <advance width="523.0"/>
  <unicode hex="006D"/>
  <outline>
    <contour>
      <point x="30.25" y="0.0" type="line"/>
      <point x="136.05" y="0.0" type="line"/>
      <point x="136.05" y="434.0" type="line"/>
      <point x="146.9" y="442.05"/>
      <point x="162.7" y="447.75"/>
      <point x="174.65" y="447.75" type="curve" smooth="yes"/>
      <point x="195.75" y="447.75"/>
      <point x="209.15" y="434.5"/>
      <point x="209.15" y="404.75" type="curve" smooth="yes"/>
      <point x="209.15" y="0.0" type="line"/>
      <point x="314.95" y="0.0" type="line"/>
      <point x="314.95" y="409.15" type="line" smooth="yes"/>
      <point x="314.95" y="418.15"/>
      <point x="313.6" y="425.9"/>
      <point x="311.35" y="431.75" type="curve"/>
      <point x="324.9" y="442.05"/>
      <point x="340.7" y="447.75"/>
      <point x="353.55" y="447.75" type="curve" smooth="yes"/>
      <point x="374.65" y="447.75"/>
      <point x="388.05" y="434.5"/>
      <point x="388.05" y="404.75" type="curve" smooth="yes"/>
      <point x="388.05" y="0.0" type="line"/>
      <point x="493.85" y="0.0" type="line"/>
      <point x="493.85" y="435.0" type="line" smooth="yes"/>
      <point x="493.85" y="514.35"/>
      <point x="458.85" y="551.0"/>
      <point x="401.25" y="551.0" type="curve" smooth="yes"/>
      <point x="364.35" y="551.0"/>
      <point x="328.6" y="538.4"/>
      <point x="297.3" y="511.65" type="curve"/>
      <point x="281.65" y="537.6"/>
      <point x="255.8" y="551.0"/>
      <point x="222.35000000000002" y="551.0" type="curve" smooth="yes"/>
      <point x="191.3" y="551.0"/>
      <point x="158.25" y="542.0"/>
      <point x="126.7" y="516.7" type="curve"/>
      <point x="126.7" y="541.0" type="line"/>
      <point x="30.25" y="541.0" type="line"/>
    </contour>
  </outline>
</glyph>
<glyph name="n" format="2">
  <advance width="346.8"/>
  <unicode hex="006E"/>
  <anchor x="174.8" y="541.0" name="top"/>
  <anchor x="175.7" y="0.0" name="bottom"/>
  <outline>
    <contour>
      <point x="30.25" y="0.0" type="line"/>
      <point x="136.05" y="0.0" type="line"/>
      <point x="136.05" y="432.2" type="line"/>
      <point x="146.9" y="441.15"/>
      <point x="164.5" y="447.75"/>
      <point x="177.35" y="447.75" type="curve" smooth="yes"/>
      <point x="198.45" y="447.75"/>
      <point x="211.85" y="434.5"/>
      <point x="211.85" y="404.75" type="curve" smooth="yes"/>
      <point x="211.85" y="0.0" type="line"/>
      <point x="317.65" y="0.0" type="line"/>
      <point x="317.65" y="435.0" type="line" smooth="yes"/>
      <point x="317.65" y="514.35"/>
      <point x="282.65" y="551.0"/>
      <point x="225.05" y="551.0" type="curve" smooth="yes"/>
      <point x="193.10000000000002" y="551.0"/>
      <point x="158.25" y="541.55"/>
      <point x="126.7" y="515.35" type="curve"/>
      <point x="126.7" y="541.0" type="line"/>
      <point x="30.25" y="541.0" type="line"/>
    </contour>
  </outline>
</glyph>
<glyph name="o" format="2">
  <advance width="343.3"/>
  <unicode hex="006F"/>
  <anchor x="236.05" y="5.5" name="ogonek"/>
  <anchor x="171.65" y="541.0" name="top"/>
  <anchor x="259.0" y="531.0" name="topright"/>
  <anchor x="171.65" y="0.0" name="bottom"/>
  <outline>
    <contour>
      <point x="18.549999999999997" y="271.05" type="curve" smooth="yes"/>
      <point x="18.549999999999997" y="85.25"/>
      <point x="48.75" y="-10.0"/>
      <point x="171.65" y="-10.0" type="curve" smooth="yes"/>
      <point x="294.55" y="-10.0"/>
      <point x="324.75" y="85.25"/>
      <point x="324.75" y="271.05" type="curve" smooth="yes"/>
      <point x="324.75" y="456.85"/>
      <point x="294.55" y="551.0"/>
      <point x="171.65" y="551.0" type="curve" smooth="yes"/>
      <point x="48.75" y="551.0"/>
      <point x="18.549999999999997" y="456.85"/>
    </contour>
    <contour>
      <point x="128.75" y="271.05" type="curve" smooth="yes"/>
      <point x="128.75" y="423.25"/>
      <point x="139.75" y="450.5"/>
      <point x="171.65" y="450.5" type="curve" smooth="yes"/>
      <point x="203.0" y="450.5"/>
      <point x="214.55" y="423.25"/>
      <point x="214.55" y="271.05" type="curve" smooth="yes"/>
      <point x="214.55" y="118.85"/>
      <point x="203.0" y="91.05000000000001"/>
      <point x="171.65" y="91.05000000000001" type="curve" smooth="yes"/>
      <point x="139.75" y="91.05000000000001"/>
      <point x="128.75" y="118.85"/>
    </contour>
  </outline>
</glyph>
<glyph name="p" format="2">
  <advance width="344.0"/>
  <unicode hex="0070"/>
  <outline>
    <contour>
      <point x="30.25" y="-210.0" type="line"/>
      <point x="136.05" y="-210.0" type="line"/>
      <point x="136.05" y="-3.6500000000000004" type="line"/>
      <point x="151.2" y="-8.0"/>
      <point x="166.75" y="-10.0"/>
      <point x="178.0" y="-10.0" type="curve" smooth="yes"/>
      <point x="277.4" y="-10.0"/>
      <point x="325.45" y="82.95"/>
      <point x="325.45" y="281.5" type="curve" smooth="yes"/>
      <point x="325.45" y="459.1"/>
      <point x="285.85" y="551.0"/>
      <point x="208.45" y="551.0" type="curve" smooth="yes"/>
      <point x="180.5" y="551.0"/>
      <point x="154.25" y="542.55"/>
      <point x="133.3" y="527.15" type="curve"/>
      <point x="126.7" y="545.5" type="line"/>
      <point x="30.25" y="545.5" type="line"/>
    </contour>
    <contour>
      <point x="160.9" y="80.15" type="curve" smooth="yes"/>
      <point x="153.3" y="80.15"/>
      <point x="147.60000000000002" y="82.15"/>
      <point x="136.05" y="87.05000000000001" type="curve"/>
      <point x="136.05" y="440.05" type="line"/>
      <point x="148.4" y="448.8"/>
      <point x="157.35" y="451.6"/>
      <point x="169.35" y="451.6" type="curve" smooth="yes"/>
      <point x="199.9" y="451.6"/>
      <point x="213.6" y="401.45"/>
      <point x="213.6" y="265.55" type="curve" smooth="yes"/>
      <point x="213.6" y="120.2"/>
      <point x="201.25" y="80.15"/>
    </contour>
  </outline>
</glyph>
<glyph name="q" format="2">
  <advance width="344.55"/>
  <unicode hex="0071"/>
  <outline>
    <contour>
      <point x="314.3" y="531.4" type="line"/>
      <point x="276.9" y="544.15"/>
      <point x="231.2" y="551.0"/>
      <point x="190.75" y="551.0" type="curve" smooth="yes"/>
      <point x="71.0" y="551.0"/>
      <point x="18.549999999999997" y="467.95"/>
      <point x="18.549999999999997" y="270.5" type="curve" smooth="yes"/>
      <point x="18.549999999999997" y="79.6"/>
      <point x="56.95" y="-10.0"/>
      <point x="139.95" y="-10.0" type="curve" smooth="yes"/>
      <point x="162.95" y="-10.0"/>
      <point x="193.05" y="0.10000000000000009"/>
      <point x="209.05" y="12.2" type="curve"/>
      <point x="209.05" y="-210.0" type="line"/>
      <point x="314.3" y="-210.0" type="line"/>
    </contour>
    <contour>
      <point x="208.5" y="456.25" type="curve"/>
      <point x="208.5" y="103.7" type="line"/>
      <point x="196.15" y="94.4"/>
      <point x="187.2" y="90.5"/>
      <point x="174.65" y="90.5" type="curve" smooth="yes"/>
      <point x="145.10000000000002" y="90.5"/>
      <point x="130.95" y="140.45"/>
      <point x="130.95" y="265.55" type="curve" smooth="yes"/>
      <point x="130.95" y="420.8"/>
      <point x="143.3" y="461.95"/>
      <point x="184.2" y="461.95" type="curve" smooth="yes"/>
      <point x="190.25" y="461.95"/>
      <point x="196.95" y="460.5"/>
    </contour>
  </outline>
</glyph>
<glyph name="r" format="2">
  <advance width="249.8"/>
  <unicode hex="0072"/>
  <anchor x="136.55" y="541.0" name="top"/>
  <anchor x="82.6" y="0.0" name="bottom"/>
  <outline>
    <contour>
      <point x="126.15" y="541.0" type="line"/>
      <point x="30.25" y="541.0" type="line"/>
      <point x="30.25" y="0.0" type="line"/>
      <point x="134.95" y="0.0" type="line"/>
      <point x="134.95" y="406.75" type="line"/>
      <point x="156.35000000000002" y="428.35"/>
      <point x="174.1" y="436.2"/>
      <point x="195.4" y="436.2" type="curve" smooth="yes"/>
      <point x="204.1" y="436.2"/>
      <point x="218.3" y="435.3"/>
      <point x="231.3" y="431.3" type="curve"/>
      <point x="250.60000000000002" y="542.9" type="line"/>
      <point x="233.85" y="549.55"/>
      <point x="220.95" y="551.0"/>
      <point x="209.7" y="551.0" type="curve" smooth="yes"/>
      <point x="173.85" y="551.0"/>
      <point x="150.65" y="535.1"/>
      <point x="126.15" y="501.4" type="curve"/>
    </contour>
  </outline>
</glyph>
<glyph name="s" format="2">
  <advance width="287.8"/>
  <unicode hex="0073"/>
  <anchor x="144.2" y="541.0" name="top"/>
  <anchor x="143.70000000000002" y="0.0" name="bottom"/>
  <outline>
    <contour>
      <point x="8.5" y="15.6" type="line"/>
      <point x="42.7" y="-1.7999999999999998"/>
      <point x="80.4" y="-10.0"/>
      <point x="126.0" y="-10.0" type="curve" smooth="yes"/>
      <point x="223.4" y="-10.0"/>
      <point x="279.2" y="46.3"/>
      <point x="279.2" y="147.4" type="curve" smooth="yes"/>
      <point x="279.2" y="254.0"/>
      <point x="228.8" y="287.7"/>
      <point x="176.2" y="320.59999999999997" type="curve" smooth="yes"/>
      <point x="137.0" y="345.0"/>
      <point x="109.60000000000001" y="364.9"/>
      <point x="109.60000000000001" y="402.5" type="curve" smooth="yes"/>
      <point x="109.60000000000001" y="434.4"/>
      <point x="128.2" y="450.6"/>
      <point x="161.0" y="450.6" type="curve" smooth="yes"/>
      <point x="187.9" y="450.6"/>
      <point x="217.20000000000002" y="444.5"/>
      <point x="245.3" y="434.2" type="curve"/>
      <point x="262.1" y="529.1999999999999" type="line"/>
      <point x="236.3" y="542.6"/>
      <point x="194.3" y="551.0"/>
      <point x="157.79999999999998" y="551.0" type="curve" smooth="yes"/>
      <point x="64.8" y="551.0"/>
      <point x="11.3" y="490.4"/>
      <point x="11.3" y="391.3" type="curve" smooth="yes"/>
      <point x="11.3" y="310.59999999999997"/>
      <point x="46.99999999999999" y="267.2"/>
      <point x="101.3" y="233.8" type="curve" smooth="yes"/>
      <point x="143.5" y="207.29999999999998"/>
      <point x="180.0" y="186.7"/>
      <point x="180.0" y="143.0" type="curve" smooth="yes"/>
      <point x="180.0" y="109.80000000000001"/>
      <point x="157.5" y="89.20000000000002"/>
      <point x="121.50000000000001" y="89.20000000000002" type="curve" smooth="yes"/>
      <point x="89.9" y="89.20000000000002"/>
      <point x="46.4" y="96.4"/>
      <point x="21.800000000000004" y="107.4" type="curve"/>
    </contour>
  </outline>
</glyph>
<glyph name="t" format="2">
  <advance width="243.35"/>
  <unicode hex="0074"/>
  <anchor x="119.75" y="275.0" name="center"/>
  <anchor x="110.30000000000001" y="658.95" name="top"/>
  <anchor x="205.25" y="753.75" name="topright"/>
  <anchor x="143.0" y="0.0" name="bottom"/>
  <outline>
    <contour>
      <point x="161.2" y="-10.0" type="curve" smooth="yes"/>
      <point x="184.1" y="-10.0"/>
      <point x="216.15" y="-7.45"/>
      <point x="246.9" y="6.9" type="curve"/>
      <point x="230.8" y="95.85000000000001" type="line"/>
      <point x="219.65" y="92.5"/>
      <point x="208.3" y="91.5"/>
      <point x="198.6" y="91.5" type="curve" smooth="yes"/>
      <point x="169.4" y="91.5"/>
      <point x="155.25" y="108.4"/>
      <point x="155.25" y="163.0" type="curve" smooth="yes"/>
      <point x="155.25" y="449.95" type="line"/>
      <point x="233.1" y="449.95" type="line"/>
      <point x="233.1" y="541.0" type="line"/>
      <point x="155.25" y="541.0" type="line"/>
      <point x="155.25" y="658.95" type="line"/>
      <point x="64.9" y="658.95" type="line"/>
      <point x="50.0" y="541.0" type="line"/>
      <point x="6.35" y="535.0" type="line"/>
      <point x="6.35" y="450.5" type="line"/>
      <point x="50.0" y="450.5" type="line"/>
      <point x="50.0" y="150.9" type="line" smooth="yes"/>
      <point x="50.0" y="49.05"/>
      <point x="80.15" y="-10.0"/>
    </contour>
  </outline>
</glyph>
<glyph name="u" format="2">
  <advance width="359.2"/>
  <unicode hex="0075"/>
  <anchor x="359.0" y="7.800000000000001" name="ogonek"/>
  <anchor x="172.35" y="541.0" name="top"/>
  <anchor x="316.0" y="541.0" name="topright"/>
  <anchor x="180.1" y="0.0" name="bottom"/>
  <outline>
    <contour>
      <point x="126.7" y="-10.0" type="curve" smooth="yes"/>
      <point x="161.95" y="-10.0"/>
      <point x="195.7" y="3.3000000000000003"/>
      <point x="222.55" y="24.9" type="curve"/>
      <point x="235.45" y="4.95"/>
      <point x="257.6" y="-10.0"/>
      <point x="288.8" y="-10.0" type="curve" smooth="yes"/>
      <point x="318.6" y="-10.0"/>
      <point x="339.5" y="-2.5"/>
      <point x="359.0" y="7.800000000000001" type="curve"/>
      <point x="349.8" y="104.0" type="line"/>
      <point x="343.65" y="101.2"/>
      <point x="336.3" y="99.75000000000001"/>
      <point x="330.05" y="99.75000000000001" type="curve" smooth="yes"/>
      <point x="320.35" y="99.75000000000001"/>
      <point x="316.0" y="105.55000000000001"/>
      <point x="316.0" y="124.75000000000001" type="curve" smooth="yes"/>
      <point x="316.0" y="541.0" type="line"/>
      <point x="210.75" y="541.0" type="line"/>
      <point x="210.75" y="108.80000000000001" type="line"/>
      <point x="199.9" y="99.30000000000001"/>
      <point x="181.75" y="93.25"/>
      <point x="169.45" y="93.25" type="curve" smooth="yes"/>
      <point x="148.35000000000002" y="93.25"/>
      <point x="134.95" y="106.5"/>
      <point x="134.95" y="136.25" type="curve" smooth="yes"/>
      <point x="134.95" y="541.0" type="line"/>
      <point x="29.15" y="541.0" type="line"/>
      <point x="29.15" y="119.75" type="line" smooth="yes"/>
      <point x="29.15" y="21.700000000000003"/>
      <point x="72.95" y="-10.0"/>
    </contour>
  </outline>
</glyph>
<glyph name="v" format="2">
  <advance width="339.2"/>
  <unicode hex="0076"/>
  <outline>
    <contour>
      <point x="101.2" y="0.0" type="line"/>
      <point x="237.45" y="0.0" type="line"/>
      <point x="332.35" y="540.1" type="line"/>
      <point x="218.85" y="541.9" type="line"/>
      <point x="169.6" y="111.0" type="line"/>
      <point x="120.9" y="541.9" type="line"/>
      <point x="6.85" y="540.1" type="line"/>
    </contour>
  </outline>
</glyph>
<glyph name="w" format="2">
  <advance width="509.5"/>
  <unicode hex="0077"/>
  <anchor x="254.75" y="541.0" name="top"/>
  <anchor x="254.75" y="0.0" name="bottom"/>
  <outline>
    <contour>
      <point x="79.1" y="0.0" type="line"/>
      <point x="213.25" y="0.0" type="line"/>
      <point x="255.85000000000002" y="396.5" type="line"/>
      <point x="296.7" y="0.0" type="line"/>
      <point x="430.3" y="0.0" type="line"/>
      <point x="502.25" y="539.65" type="line"/>
      <point x="395.9" y="541.45" type="line"/>
      <point x="355.75" y="110.15" type="line"/>
      <point x="311.5" y="541.0" type="line"/>
      <point x="198.0" y="541.0" type="line"/>
      <point x="153.65" y="110.15" type="line"/>
      <point x="114.15" y="541.45" type="line"/>
      <point x="7.25" y="539.65" type="line"/>
    </contour>
  </outline>
</glyph>
<glyph name="x" format="2">
  <advance width="353.0"/>
  <unicode hex="0078"/>
  <outline>
    <contour>
      <point x="4.8" y="-2.6999999999999997" type="line"/>
      <point x="118.95" y="-4.5" type="line"/>
      <point x="176.6" y="217.2" type="line"/>
      <point x="236.15" y="-4.5" type="line"/>
      <point x="349.75" y="-2.6999999999999997" type="line"/>
      <point x="258.45" y="274.5" type="line"/>
      <point x="342.05" y="540.1" type="line"/>
      <point x="230.1" y="541.9" type="line"/>
      <point x="177.5" y="325.05" type="line"/>
      <point x="124.0" y="542.35" type="line"/>
      <point x="12.6" y="539.65" type="line"/>
      <point x="95.65" y="277.2" type="line"/>
    </contour>
  </outline>
</glyph>
<glyph name="y" format="2">
  <advance width="341.6"/>
  <unicode hex="0079"/>
  <anchor x="170.8" y="541.0" name="top"/>
  <anchor x="309.5" y="0.0" name="bottom"/>
  <outline>
    <contour>
      <point x="90.39999999999999" y="-209.1" type="line"/>
      <point x="205.0" y="-211.79999999999998" type="line"/>
      <point x="334.3" y="540.1" type="line"/>
      <point x="218.6" y="541.9" type="line"/>
      <point x="171.7" y="101.9" type="line"/>
      <point x="123.20000000000002" y="541.9" type="line"/>
      <point x="7.3" y="540.1" type="line"/>
      <point x="109.30000000000001" y="0.0" type="line"/>
      <point x="130.20000000000002" y="0.0" type="line"/>
    </contour>
  </outline>
</glyph>
<glyph name="z" format="2">
  <advance width="306.15"/>
  <unicode hex="007A"/>
  <anchor x="154.5" y="541.0" name="top"/>
  <outline>
    <contour>
      <point x="15.149999999999999" y="0.0" type="line"/>
      <point x="293.6" y="0.0" type="line"/>
      <point x="293.6" y="98.2" type="line"/>
      <point x="126.80000000000001" y="98.2" type="line"/>
      <point x="284.1" y="453.15" type="line"/>
      <point x="284.1" y="541.0" type="line"/>
      <point x="22.25" y="541.0" type="line"/>
      <point x="22.25" y="443.9" type="line"/>
      <point x="172.9" y="443.9" type="line"/>
      <point x="15.149999999999999" y="89.5" type="line"/>
    </contour>
  </outline>
</glyph>
<glyph name="braceleft" format="2">
  <advance width="218.75"/>
  <unicode hex="007B"/>
  <outline>
    <contour>
      <point x="45.349999999999994" y="-51.55" type="curve" smooth="yes"/>
      <point x="45.349999999999994" y="-155.9"/>
      <point x="90.45" y="-210.55"/>
      <point x="151.05" y="-210.55" type="curve" smooth="yes"/>
      <point x="201.3" y="-210.55" type="line"/>
      <point x="201.3" y="-120.14999999999999" type="line"/>
      <point x="175.25" y="-120.14999999999999" type="line" smooth="yes"/>
      <point x="145.15" y="-120.14999999999999"/>
      <point x="132.45" y="-85.4"/>
      <point x="132.45" y="-38.9" type="curve" smooth="yes"/>
      <point x="132.45" y="23.9"/>
      <point x="159.4" y="76.9"/>
      <point x="159.4" y="146.9" type="curve" smooth="yes"/>
      <point x="159.4" y="188.15"/>
      <point x="147.2" y="236.35"/>
      <point x="111.1" y="265.0" type="curve"/>
      <point x="147.2" y="294.25"/>
      <point x="159.4" y="341.3"/>
      <point x="159.4" y="382.55" type="curve" smooth="yes"/>
      <point x="159.4" y="449.4"/>
      <point x="132.45" y="502.4"/>
      <point x="132.45" y="568.35" type="curve" smooth="yes"/>
      <point x="132.45" y="614.85"/>
      <point x="145.15" y="649.6"/>
      <point x="175.25" y="649.6" type="curve" smooth="yes"/>
      <point x="201.3" y="649.6" type="line"/>
      <point x="201.3" y="740.0" type="line"/>
      <point x="151.05" y="740.0" type="line" smooth="yes"/>
      <point x="90.45" y="740.0"/>
      <point x="45.349999999999994" y="685.35"/>
      <point x="45.349999999999994" y="581.0" type="curve" smooth="yes"/>
      <point x="45.349999999999994" y="488.15"/>
      <point x="77.25" y="437.4"/>
      <point x="77.25" y="376.5" type="curve" smooth="yes"/>
      <point x="77.25" y="342.25"/>
      <point x="70.0" y="312.4"/>
      <point x="48.45" y="312.4" type="curve" smooth="yes"/>
      <point x="30.2" y="312.4" type="line"/>
      <point x="30.2" y="217.05" type="line"/>
      <point x="48.45" y="217.05" type="line" smooth="yes"/>
      <point x="70.0" y="217.05"/>
      <point x="77.25" y="187.65"/>
      <point x="77.25" y="152.95" type="curve" smooth="yes"/>
      <point x="77.25" y="90.7"/>
      <point x="45.349999999999994" y="38.150000000000006"/>
    </contour>
  </outline>
</glyph>
<glyph name="bar" format="2">
  <advance width="142.1"/>
  <unicode hex="007C"/>
  <outline>
    <contour>
      <point x="116.80000000000001" y="790.55" type="line"/>
      <point x="25.299999999999997" y="790.55" type="line"/>
      <point x="25.299999999999997" y="-210.0" type="line"/>
      <point x="116.80000000000001" y="-210.0" type="line"/>
    </contour>
  </outline>
</glyph>
<glyph name="braceright" format="2">
  <advance width="218.75"/>
  <unicode hex="007D"/>
  <outline>
    <contour>
      <point x="17.45" y="-120.14999999999999" type="line"/>
      <point x="17.45" y="-210.55" type="line"/>
      <point x="68.15" y="-210.55" type="line" smooth="yes"/>
      <point x="128.75" y="-210.55"/>
      <point x="173.85" y="-155.9"/>
      <point x="173.85" y="-51.55" type="curve" smooth="yes"/>
      <point x="173.85" y="38.150000000000006"/>
      <point x="141.95" y="90.7"/>
      <point x="141.95" y="152.95" type="curve" smooth="yes"/>
      <point x="141.95" y="187.65"/>
      <point x="149.2" y="217.05"/>
      <point x="170.75" y="217.05" type="curve" smooth="yes"/>
      <point x="188.55" y="217.05" type="line"/>
      <point x="188.55" y="312.4" type="line"/>
      <point x="170.75" y="312.4" type="line" smooth="yes"/>
      <point x="148.75" y="312.4"/>
      <point x="141.95" y="342.25"/>
      <point x="141.95" y="376.5" type="curve" smooth="yes"/>
      <point x="141.95" y="437.4"/>
      <point x="173.85" y="488.15"/>
      <point x="173.85" y="581.0" type="curve" smooth="yes"/>
      <point x="173.85" y="685.35"/>
      <point x="128.75" y="740.0"/>
      <point x="68.15" y="740.0" type="curve" smooth="yes"/>
      <point x="17.45" y="740.0" type="line"/>
      <point x="17.45" y="649.6" type="line"/>
      <point x="34.599999999999994" y="649.6" type="line" smooth="yes"/>
      <point x="64.25" y="649.6"/>
      <point x="77.4" y="614.85"/>
      <point x="77.4" y="568.35" type="curve" smooth="yes"/>
      <point x="77.4" y="502.4"/>
      <point x="50.45" y="449.4"/>
      <point x="50.45" y="382.55" type="curve" smooth="yes"/>
      <point x="50.45" y="341.3"/>
      <point x="62.2" y="294.25"/>
      <point x="98.75" y="265.0" type="curve"/>
      <point x="62.2" y="236.35"/>
      <point x="50.45" y="188.15"/>
      <point x="50.45" y="146.9" type="curve" smooth="yes"/>
      <point x="50.45" y="76.9"/>
      <point x="77.4" y="23.9"/>
      <point x="77.4" y="-38.9" type="curve" smooth="yes"/>
      <point x="77.4" y="-85.4"/>
      <point x="64.25" y="-120.14999999999999"/>
      <point x="34.599999999999994" y="-120.14999999999999" type="curve" smooth="yes"/>
    </contour>
  </outline>
</glyph>
<glyph name="asciitilde" format="2">
  <advance width="397.5"/>
  <unicode hex="007E"/>
  <outline>
    <contour>
      <point x="344.6" y="243.3" type="curve"/>
      <point x="344.6" y="340.35" type="line"/>
      <point x="322.65" y="315.45"/>
      <point x="302.5" y="306.1"/>
      <point x="278.2" y="306.1" type="curve" smooth="yes"/>
      <point x="215.35" y="306.1"/>
      <point x="189.7" y="395.75"/>
      <point x="124.05" y="395.75" type="curve" smooth="yes"/>
      <point x="90.15" y="395.75"/>
      <point x="62.85" y="377.95"/>
      <point x="53.35" y="363.75" type="curve"/>
      <point x="53.35" y="266.7" type="line"/>
      <point x="63.75" y="282.25"/>
      <point x="91.05" y="300.95"/>
      <point x="123.6" y="300.95" type="curve" smooth="yes"/>
      <point x="184.3" y="300.95"/>
      <point x="210.4" y="211.3"/>
      <point x="277.75" y="211.3" type="curve" smooth="yes"/>
      <point x="303.4" y="211.3"/>
      <point x="323.55" y="219.75"/>
    </contour>
  </outline>
</glyph>
<glyph name="exclamdown" format="2">
  <advance width="161.3"/>
  <unicode hex="00A1"/>
  <outline>
    <contour>
      <point x="127.5" y="279.75" type="line"/>
      <point x="34.9" y="279.75" type="line"/>
      <point x="26.099999999999998" y="-199.0" type="line"/>
      <point x="134.65" y="-199.0" type="line"/>
    </contour>
    <contour>
      <point x="138.10000000000002" y="474.5" type="curve" smooth="yes"/>
      <point x="138.10000000000002" y="524.6"/>
      <point x="122.7" y="546.5"/>
      <point x="80.65" y="546.5" type="curve" smooth="yes"/>
      <point x="39.05" y="546.5"/>
      <point x="23.2" y="524.6"/>
      <point x="23.2" y="474.5" type="curve" smooth="yes"/>
      <point x="23.2" y="423.85"/>
      <point x="38.6" y="401.95"/>
      <point x="80.65" y="401.95" type="curve" smooth="yes"/>
      <point x="122.7" y="401.95"/>
      <point x="138.10000000000002" y="423.85"/>
    </contour>
  </outline>
</glyph>
<glyph name="cent" format="2">
  <advance width="343.5"/>
  <unicode hex="00A2"/>
  <outline>
    <contour>
      <point x="203.05" y="-10.55" type="curve" smooth="yes"/>
      <point x="234.95" y="-10.55"/>
      <point x="267.95" y="-4.1499999999999995"/>
      <point x="292.75" y="7.450000000000001" type="curve"/>
      <point x="270.6" y="111.9" type="line"/>
      <point x="253.4" y="106.25000000000001"/>
      <point x="241.0" y="104.15"/>
      <point x="228.35000000000002" y="104.15" type="curve" smooth="yes"/>
      <point x="187.45" y="104.15"/>
      <point x="168.55" y="154.4"/>
      <point x="168.55" y="263.9" type="curve" smooth="yes"/>
      <point x="168.55" y="386.1"/>
      <point x="188.15" y="436.3"/>
      <point x="231.2" y="436.3" type="curve" smooth="yes"/>
      <point x="246.05" y="436.3"/>
      <point x="257.7" y="433.2"/>
      <point x="267.9" y="430.2" type="curve"/>
      <point x="287.2" y="538.5" type="line"/>
      <point x="270.8" y="544.05"/>
      <point x="235.7" y="552.1"/>
      <point x="202.05" y="552.1" type="curve" smooth="yes"/>
      <point x="89.3" y="552.1"/>
      <point x="57.25" y="434.8"/>
      <point x="57.25" y="260.6" type="curve" smooth="yes"/>
      <point x="57.25" y="77.4"/>
      <point x="101.5" y="-10.55"/>
    </contour>
    <contour>
      <point x="144.3" y="-105.55" type="line"/>
      <point x="241.85000000000002" y="-105.55" type="line"/>
      <point x="241.85000000000002" y="5.450000000000001" type="line"/>
      <point x="144.3" y="11.750000000000002" type="line"/>
    </contour>
    <contour>
      <point x="144.3" y="527.7" type="line"/>
      <point x="241.85000000000002" y="537.2" type="line"/>
      <point x="241.85000000000002" y="645.45" type="line"/>
      <point x="144.3" y="645.45" type="line"/>
    </contour>
  </outline>
</glyph>
<glyph name="sterling" format="2">
  <advance width="343.5"/>
  <unicode hex="00A3"/>
  <outline>
    <contour>
      <point x="50.800000000000004" y="0.0" type="line"/>
      <point x="302.5" y="0.0" type="line"/>
      <point x="302.5" y="97.00000000000001" type="line"/>
      <point x="163.3" y="97.00000000000001" type="line"/>
      <point x="194.70000000000002" y="146.10000000000002"/>
      <point x="225.3" y="187.2"/>
      <point x="225.3" y="260.6" type="curve" smooth="yes"/>
      <point x="225.3" y="344.8"/>
      <point x="179.10000000000002" y="408.7"/>
      <point x="179.10000000000002" y="491.3" type="curve" smooth="yes"/>
      <point x="179.10000000000002" y="574.0999999999999"/>
      <point x="209.20000000000002" y="603.0"/>
      <point x="245.20000000000002" y="603.0" type="curve" smooth="yes"/>
      <point x="260.2" y="603.0"/>
      <point x="270.3" y="600.0"/>
      <point x="281.3" y="595.0999999999999" type="curve"/>
      <point x="299.3" y="686.9" type="line"/>
      <point x="277.5" y="702.5999999999999"/>
      <point x="247.0" y="710.0"/>
      <point x="220.9" y="710.0" type="curve" smooth="yes"/>
      <point x="121.4" y="710.0"/>
      <point x="69.0" y="633.9"/>
      <point x="69.0" y="525.4" type="curve" smooth="yes"/>
      <point x="69.0" y="399.9"/>
      <point x="126.00000000000001" y="358.2"/>
      <point x="126.00000000000001" y="247.5" type="curve" smooth="yes"/>
      <point x="126.00000000000001" y="187.29999999999998"/>
      <point x="100.80000000000001" y="137.20000000000002"/>
      <point x="50.800000000000004" y="73.9" type="curve"/>
    </contour>
    <contour>
      <point x="39.800000000000004" y="326.2" type="line"/>
      <point x="286.8" y="326.2" type="line"/>
      <point x="286.8" y="394.7" type="line"/>
      <point x="39.800000000000004" y="394.7" type="line"/>
    </contour>
  </outline>
</glyph>
<glyph name="currency" format="2">
  <advance width="417.75"/>
  <unicode hex="00A4"/>
  <outline>
    <contour>
      <point x="23.75" y="407.0" type="line"/>
      <point x="81.25" y="348.5" type="line"/>
      <point x="71.6" y="332.1"/>
      <point x="65.65" y="312.55"/>
      <point x="65.65" y="291.2" type="curve" smooth="yes"/>
      <point x="65.65" y="269.3"/>
      <point x="71.6" y="248.65"/>
      <point x="82.25" y="231.7" type="curve"/>
      <point x="23.75" y="173.2" type="line"/>
      <point x="92.2" y="104.75" type="line"/>
      <point x="154.55" y="167.1" type="line"/>
      <point x="169.85" y="157.0"/>
      <point x="189.4" y="152.05"/>
      <point x="210.3" y="152.05" type="curve" smooth="yes"/>
      <point x="230.1" y="152.05"/>
      <point x="248.45" y="157.0"/>
      <point x="263.2" y="166.55" type="curve"/>
      <point x="325.55" y="104.75" type="line"/>
      <point x="394.0" y="173.2" type="line"/>
      <point x="337.7" y="228.95" type="line"/>
      <point x="348.9" y="247.0"/>
      <point x="355.4" y="268.2"/>
      <point x="355.4" y="291.2" type="curve" smooth="yes"/>
      <point x="355.4" y="313.1"/>
      <point x="348.9" y="333.75"/>
      <point x="338.25" y="351.25" type="curve"/>
      <point x="394.0" y="407.0" type="line"/>
      <point x="325.55" y="475.45" type="line"/>
      <point x="265.4" y="415.3" type="line"/>
      <point x="250.1" y="424.85"/>
      <point x="231.1" y="430.8"/>
      <point x="210.3" y="430.8" type="curve" smooth="yes"/>
      <point x="187.85" y="430.8"/>
      <point x="168.3" y="424.3"/>
      <point x="151.9" y="414.75" type="curve"/>
      <point x="92.2" y="475.45" type="line"/>
    </contour>
    <contour>
      <point x="210.3" y="224.3" type="curve" smooth="yes"/>
      <point x="171.95" y="224.3"/>
      <point x="143.95" y="252.3"/>
      <point x="143.95" y="290.65" type="curve" smooth="yes"/>
      <point x="143.95" y="328.35"/>
      <point x="171.95" y="358.0"/>
      <point x="210.3" y="358.0" type="curve" smooth="yes"/>
      <point x="249.1" y="358.0"/>
      <point x="277.1" y="328.35"/>
      <point x="277.1" y="290.65" type="curve" smooth="yes"/>
      <point x="277.1" y="252.3"/>
      <point x="249.1" y="224.3"/>
    </contour>
  </outline>
</glyph>
<glyph name="yen" format="2">
  <advance width="343.5"/>
  <unicode hex="00A5"/>
  <outline>
    <contour>
      <point x="39.199999999999996" y="312.9" type="line"/>
      <point x="120.2" y="312.9" type="line"/>
      <point x="120.2" y="256.7" type="line"/>
      <point x="39.199999999999996" y="256.7" type="line"/>
      <point x="39.199999999999996" y="188.20000000000002" type="line"/>
      <point x="120.2" y="188.20000000000002" type="line"/>
      <point x="120.2" y="0.0" type="line"/>
      <point x="225.9" y="0.0" type="line"/>
      <point x="225.9" y="188.20000000000002" type="line"/>
      <point x="306.90000000000003" y="188.20000000000002" type="line"/>
      <point x="306.90000000000003" y="256.7" type="line"/>
      <point x="225.9" y="256.7" type="line"/>
      <point x="225.9" y="312.9" type="line"/>
      <point x="306.90000000000003" y="312.9" type="line"/>
      <point x="306.90000000000003" y="380.5" type="line"/>
      <point x="225.9" y="380.5" type="line"/>
      <point x="331.90000000000003" y="698.1999999999999" type="line"/>
      <point x="214.20000000000002" y="701.8000000000001" type="line"/>
      <point x="173.10000000000002" y="458.70000000000005" type="line"/>
      <point x="129.3" y="701.8000000000001" type="line"/>
      <point x="11.6" y="698.1999999999999" type="line"/>
      <point x="120.2" y="380.5" type="line"/>
      <point x="39.199999999999996" y="380.5" type="line"/>
    </contour>
  </outline>
</glyph>
<glyph name="section" format="2">
  <advance width="384.95"/>
  <unicode hex="00A7"/>
  <outline>
    <contour>
      <point x="148.8" y="-220.55" type="curve" smooth="yes"/>
      <point x="280.4" y="-220.55"/>
      <point x="359.6" y="-100.35"/>
      <point x="359.6" y="59.05" type="curve" smooth="yes"/>
      <point x="359.6" y="132.65"/>
      <point x="342.4" y="223.4"/>
      <point x="292.85" y="368.25" type="curve" smooth="yes"/>
      <point x="247.5" y="498.6"/>
      <point x="234.7" y="534.2"/>
      <point x="234.7" y="569.8" type="curve" smooth="yes"/>
      <point x="234.7" y="609.15"/>
      <point x="253.3" y="632.55"/>
      <point x="285.35" y="632.55" type="curve" smooth="yes"/>
      <point x="297.8" y="632.55"/>
      <point x="308.25" y="630.55"/>
      <point x="321.15" y="623.55" type="curve"/>
      <point x="345.1" y="728.2" type="line"/>
      <point x="323.25" y="741.6"/>
      <point x="287.65" y="749.55"/>
      <point x="251.5" y="749.55" type="curve" smooth="yes"/>
      <point x="116.55" y="749.55"/>
      <point x="27.8" y="648.7"/>
      <point x="31.2" y="484.35" type="curve" smooth="yes"/>
      <point x="32.85" y="406.35"/>
      <point x="42.7" y="329.35"/>
      <point x="102.1" y="167.25" type="curve" smooth="yes"/>
      <point x="145.45" y="44.95"/>
      <point x="162.85" y="-1.3499999999999943"/>
      <point x="162.85" y="-41.8" type="curve" smooth="yes"/>
      <point x="162.85" y="-83.8"/>
      <point x="141.95" y="-103.55"/>
      <point x="107.9" y="-103.55" type="curve" smooth="yes"/>
      <point x="89.3" y="-103.55"/>
      <point x="69.95" y="-97.3"/>
      <point x="51.650000000000006" y="-79.89999999999999" type="curve"/>
      <point x="28.65" y="-184.1" type="line"/>
      <point x="57.45" y="-208.25"/>
      <point x="100.25" y="-220.55"/>
    </contour>
    <contour>
      <point x="142.0" y="-150.9" type="curve" smooth="yes"/>
      <point x="126.0" y="-150.9"/>
      <point x="112.05" y="-147.25"/>
      <point x="97.35" y="-139.85" type="curve"/>
      <point x="130.95" y="-161.1" type="line"/>
      <point x="193.5" y="-157.35"/>
      <point x="234.2" y="-110.35"/>
      <point x="234.2" y="-38.94999999999999" type="curve" smooth="yes"/>
      <point x="234.2" y="11.850000000000009"/>
      <point x="220.65" y="71.7"/>
      <point x="175.1" y="202.4" type="curve" smooth="yes"/>
      <point x="123.7" y="352.35"/>
      <point x="107.95" y="411.3"/>
      <point x="107.95" y="489.85" type="curve" smooth="yes"/>
      <point x="107.95" y="592.2"/>
      <point x="155.95" y="664.8"/>
      <point x="217.95" y="664.8" type="curve" smooth="yes"/>
      <point x="230.2" y="664.8"/>
      <point x="238.7" y="662.05"/>
      <point x="248.55" y="653.9" type="curve"/>
      <point x="231.05" y="680.95" type="line"/>
      <point x="192.5" y="668.4"/>
      <point x="159.7" y="630.75"/>
      <point x="159.7" y="575.85" type="curve" smooth="yes"/>
      <point x="159.7" y="527.8"/>
      <point x="170.45" y="476.05"/>
      <point x="217.75" y="344.55" type="curve" smooth="yes"/>
      <point x="274.35" y="181.2"/>
      <point x="286.6" y="115.9"/>
      <point x="286.6" y="51.35" type="curve" smooth="yes"/>
      <point x="286.6" y="-69.15"/>
      <point x="229.6" y="-150.9"/>
    </contour>
  </outline>
</glyph>
<glyph name="copyright" format="2">
  <advance width="530.2"/>
  <unicode hex="00A9"/>
  <outline>
    <contour>
      <point x="265.1" y="27.900000000000002" type="curve" smooth="yes"/>
      <point x="134.45" y="27.900000000000002"/>
      <point x="70.35" y="133.3"/>
      <point x="70.35" y="350.55" type="curve" smooth="yes"/>
      <point x="70.35" y="568.25"/>
      <point x="134.45" y="673.2"/>
      <point x="265.1" y="673.2" type="curve" smooth="yes"/>
      <point x="397.4" y="673.2"/>
      <point x="459.3" y="568.25"/>
      <point x="459.3" y="350.55" type="curve" smooth="yes"/>
      <point x="459.3" y="133.3"/>
      <point x="397.4" y="27.900000000000002"/>
    </contour>
    <contour>
      <point x="265.1" y="710.0" type="curve" smooth="yes"/>
      <point x="110.0" y="710.0"/>
      <point x="31.9" y="587.0"/>
      <point x="31.9" y="350.55" type="curve" smooth="yes"/>
      <point x="31.9" y="115.1"/>
      <point x="110.0" y="-10.0"/>
      <point x="265.1" y="-10.0" type="curve" smooth="yes"/>
      <point x="420.20000000000005" y="-10.0"/>
      <point x="498.3" y="115.1"/>
      <point x="498.3" y="350.55" type="curve" smooth="yes"/>
      <point x="498.3" y="587.0"/>
      <point x="420.20000000000005" y="710.0"/>
    </contour>
    <contour>
      <point x="160.3" y="347.0" type="curve" smooth="yes"/>
      <point x="160.3" y="207.05"/>
      <point x="198.7" y="139.6"/>
      <point x="274.45" y="139.6" type="curve" smooth="yes"/>
      <point x="294.0" y="139.6"/>
      <point x="316.05" y="141.05"/>
      <point x="339.25" y="150.75" type="curve"/>
      <point x="327.0" y="223.2" type="line"/>
      <point x="309.0" y="217.9"/>
      <point x="294.75" y="216.35"/>
      <point x="282.70000000000005" y="216.35" type="curve" smooth="yes"/>
      <point x="249.4" y="216.35"/>
      <point x="241.35000000000002" y="255.9"/>
      <point x="241.35000000000002" y="343.15" type="curve" smooth="yes"/>
      <point x="241.35000000000002" y="448.4"/>
      <point x="253.4" y="483.6"/>
      <point x="286.35" y="483.6" type="curve" smooth="yes"/>
      <point x="297.1" y="483.6"/>
      <point x="316.1" y="480.3"/>
      <point x="328.4" y="476.75" type="curve"/>
      <point x="342.3" y="547.0" type="line"/>
      <point x="324.05" y="556.6"/>
      <point x="296.55" y="560.35"/>
      <point x="273.15" y="560.35" type="curve" smooth="yes"/>
      <point x="203.8" y="560.35"/>
      <point x="160.3" y="507.3"/>
    </contour>
  </outline>
</glyph>
<glyph name="ordfeminine" format="2">
  <advance width="246.75"/>
  <unicode hex="00AA"/>
  <outline>
    <contour>
      <point x="23.55" y="268.45" type="line"/>
      <point x="224.0" y="268.45" type="line"/>
      <point x="224.0" y="323.85" type="line"/>
      <point x="23.55" y="323.85" type="line"/>
    </contour>
    <component base="a.superior" xOffset="9.8"/>
  </outline>
</glyph>
<glyph name="logicalnot" format="2">
  <advance width="397.5"/>
  <unicode hex="00AC"/>
  <outline>
    <contour>
      <point x="42.45" y="330.65" type="line"/>
      <point x="258.5" y="330.65" type="line"/>
      <point x="258.5" y="178.1" type="line"/>
      <point x="355.5" y="178.1" type="line"/>
      <point x="355.5" y="427.65" type="line"/>
      <point x="42.45" y="427.65" type="line"/>
    </contour>
  </outline>
</glyph>
<glyph name="registered" format="2">
  <advance width="506.55"/>
  <unicode hex="00AE"/>
  <outline>
    <contour>
      <point x="253.5" y="208.0" type="curve" smooth="yes"/>
      <point x="400.75" y="208.0"/>
      <point x="474.65" y="326.9"/>
      <point x="474.65" y="550.55" type="curve" smooth="yes"/>
      <point x="474.65" y="775.2"/>
      <point x="400.75" y="892.0"/>
      <point x="253.5" y="892.0" type="curve" smooth="yes"/>
      <point x="106.25" y="892.0"/>
      <point x="31.9" y="775.2"/>
      <point x="31.9" y="550.55" type="curve" smooth="yes"/>
      <point x="31.9" y="326.9"/>
      <point x="106.25" y="208.0"/>
    </contour>
    <contour>
      <point x="253.5" y="243.8" type="curve" smooth="yes"/>
      <point x="129.15" y="243.8"/>
      <point x="68.7" y="344.1"/>
      <point x="68.7" y="550.55" type="curve" smooth="yes"/>
      <point x="68.7" y="757.45"/>
      <point x="129.15" y="857.3"/>
      <point x="253.5" y="857.3" type="curve" smooth="yes"/>
      <point x="379.5" y="857.3"/>
      <point x="437.75" y="757.45"/>
      <point x="437.75" y="550.55" type="curve" smooth="yes"/>
      <point x="437.75" y="344.1"/>
      <point x="379.5" y="243.8"/>
    </contour>
    <contour>
      <point x="345.8" y="363.6" type="curve" smooth="yes"/>
      <point x="350.45000000000005" y="363.6"/>
      <point x="356.4" y="363.6"/>
      <point x="361.95000000000005" y="364.6" type="curve"/>
      <point x="360.6" y="441.45" type="line"/>
      <point x="358.6" y="441.0"/>
      <point x="356.5" y="441.0"/>
      <point x="354.5" y="441.0" type="curve" smooth="yes"/>
      <point x="332.6" y="441.0"/>
      <point x="324.1" y="469.45"/>
      <point x="312.45000000000005" y="520.75" type="curve"/>
      <point x="343.95000000000005" y="538.4"/>
      <point x="353.0" y="584.4"/>
      <point x="353.0" y="635.3" type="curve" smooth="yes"/>
      <point x="353.0" y="715.65"/>
      <point x="318.4" y="751.2"/>
      <point x="258.6" y="751.2" type="curve" smooth="yes"/>
      <point x="226.7" y="751.2"/>
      <point x="199.5" y="748.65"/>
      <point x="170.85000000000002" y="745.2" type="curve"/>
      <point x="170.85000000000002" y="367.8" type="line"/>
      <point x="238.8" y="367.8" type="line"/>
      <point x="238.8" y="497.5" type="line"/>
      <point x="241.95000000000002" y="497.05"/>
      <point x="245.65" y="496.6"/>
      <point x="248.35000000000002" y="496.6" type="curve" smooth="yes"/>
      <point x="250.7" y="496.6"/>
      <point x="252.5" y="496.6"/>
      <point x="254.85000000000002" y="497.05" type="curve"/>
      <point x="284.5" y="368.8"/>
      <point x="308.95000000000005" y="363.6"/>
    </contour>
    <contour>
      <point x="252.60000000000002" y="547.05" type="curve" smooth="yes"/>
      <point x="248.15" y="547.05"/>
      <point x="243.8" y="547.05"/>
      <point x="238.8" y="548.05" type="curve"/>
      <point x="238.8" y="682.9" type="line"/>
      <point x="246.15" y="684.9"/>
      <point x="253.05" y="685.35"/>
      <point x="256.85" y="685.35" type="curve" smooth="yes"/>
      <point x="281.2" y="685.35"/>
      <point x="282.85" y="662.05"/>
      <point x="282.85" y="623.4" type="curve" smooth="yes"/>
      <point x="282.85" y="574.7"/>
      <point x="280.1" y="547.05"/>
    </contour>
  </outline>
</glyph>
<glyph name="degree" format="2">
  <advance width="274.1"/>
  <unicode hex="00B0"/>
  <outline>
    <contour>
      <point x="136.6" y="438.6" type="curve" smooth="yes"/>
      <point x="213.35" y="438.6"/>
      <point x="249.60000000000002" y="499.45"/>
      <point x="249.60000000000002" y="577.9" type="curve" smooth="yes"/>
      <point x="249.60000000000002" y="652.5"/>
      <point x="216.65" y="718.1"/>
      <point x="136.6" y="718.1" type="curve" smooth="yes"/>
      <point x="56.55" y="718.1"/>
      <point x="24.5" y="652.5"/>
      <point x="24.5" y="577.9" type="curve" smooth="yes"/>
      <point x="24.5" y="499.45"/>
      <point x="59.85" y="438.6"/>
    </contour>
    <contour>
      <point x="136.6" y="516.9" type="curve" smooth="yes"/>
      <point x="109.35" y="516.9"/>
      <point x="96.2" y="542.35"/>
      <point x="96.2" y="577.35" type="curve" smooth="yes"/>
      <point x="96.2" y="611.25"/>
      <point x="108.80000000000001" y="637.6"/>
      <point x="136.6" y="637.6" type="curve" smooth="yes"/>
      <point x="164.4" y="637.6"/>
      <point x="177.9" y="611.25"/>
      <point x="177.9" y="577.35" type="curve" smooth="yes"/>
      <point x="177.9" y="542.35"/>
      <point x="163.85" y="516.9"/>
    </contour>
  </outline>
</glyph>
<glyph name="plusminus" format="2">
  <advance width="411.9"/>
  <unicode hex="00B1"/>
  <outline>
    <contour>
      <point x="40.65" y="32.4" type="line"/>
      <point x="371.25" y="32.4" type="line"/>
      <point x="371.25" y="129.4" type="line"/>
      <point x="254.45" y="129.4" type="line"/>
      <point x="254.45" y="266.65" type="line"/>
      <point x="371.25" y="266.65" type="line"/>
      <point x="371.25" y="363.65" type="line"/>
      <point x="254.45" y="363.65" type="line"/>
      <point x="254.45" y="494.85" type="line"/>
      <point x="157.45" y="494.85" type="line"/>
      <point x="157.45" y="363.65" type="line"/>
      <point x="40.65" y="363.65" type="line"/>
      <point x="40.65" y="266.65" type="line"/>
      <point x="157.45" y="266.65" type="line"/>
      <point x="157.45" y="129.4" type="line"/>
      <point x="40.65" y="129.4" type="line"/>
    </contour>
  </outline>
</glyph>
<glyph name="uni00B2" format="2">
  <advance width="244.75"/>
  <unicode hex="00B2"/>
  <outline>
    <contour>
      <point x="40.9" y="370.0" type="line"/>
      <point x="211.85" y="370.0" type="line"/>
      <point x="211.85" y="427.25" type="line"/>
      <point x="115.2" y="427.25" type="line"/>
      <point x="179.95" y="542.6"/>
      <point x="201.55" y="599.4"/>
      <point x="201.55" y="658.4" type="curve" smooth="yes"/>
      <point x="201.55" y="734.6"/>
      <point x="169.0" y="775.45"/>
      <point x="112.2" y="775.45" type="curve" smooth="yes"/>
      <point x="80.65" y="775.45"/>
      <point x="54.95" y="766.15"/>
      <point x="27.95" y="742.7" type="curve"/>
      <point x="53.55" y="680.1" type="line"/>
      <point x="69.1" y="695.4"/>
      <point x="81.55" y="698.95"/>
      <point x="97.45" y="698.95" type="curve" smooth="yes"/>
      <point x="118.6" y="698.95"/>
      <point x="132.95" y="674.85"/>
      <point x="132.95" y="640.55" type="curve" smooth="yes"/>
      <point x="132.95" y="597.1"/>
      <point x="96.15" y="520.5"/>
      <point x="39.55" y="421.95" type="curve"/>
    </contour>
  </outline>
</glyph>
<glyph name="uni00B3" format="2">
  <advance width="251.9"/>
  <unicode hex="00B3"/>
  <outline>
    <contour>
      <point x="31.7" y="389.5" type="line"/>
      <point x="59.45" y="370.75"/>
      <point x="81.3" y="363.3"/>
      <point x="113.55" y="363.3" type="curve" smooth="yes"/>
      <point x="177.8" y="363.3"/>
      <point x="216.35" y="408.85"/>
      <point x="216.35" y="484.95" type="curve" smooth="yes"/>
      <point x="216.35" y="531.45"/>
      <point x="198.95" y="566.9"/>
      <point x="166.2" y="582.4" type="curve"/>
      <point x="193.6" y="600.45"/>
      <point x="209.0" y="635.45"/>
      <point x="209.0" y="673.95" type="curve" smooth="yes"/>
      <point x="209.0" y="736.3"/>
      <point x="173.0" y="775.65"/>
      <point x="115.3" y="775.65" type="curve" smooth="yes"/>
      <point x="83.55" y="775.65"/>
      <point x="55.55" y="766.45"/>
      <point x="33.65" y="747.95" type="curve"/>
      <point x="57.05" y="694.6" type="line"/>
      <point x="67.05" y="702.4"/>
      <point x="82.0" y="706.4"/>
      <point x="99.0" y="706.4" type="curve" smooth="yes"/>
      <point x="126.15" y="706.4"/>
      <point x="141.4" y="686.6"/>
      <point x="141.4" y="652.5" type="curve" smooth="yes"/>
      <point x="141.4" y="624.1"/>
      <point x="131.5" y="601.5"/>
      <point x="105.1" y="601.5" type="curve" smooth="yes"/>
      <point x="78.25" y="601.5" type="line"/>
      <point x="78.25" y="547.0" type="line"/>
      <point x="107.3" y="547.0" type="line" smooth="yes"/>
      <point x="137.95" y="547.0"/>
      <point x="147.3" y="525.2"/>
      <point x="147.3" y="491.55" type="curve" smooth="yes"/>
      <point x="147.3" y="451.85"/>
      <point x="130.6" y="428.7"/>
      <point x="103.2" y="428.7" type="curve" smooth="yes"/>
      <point x="84.95" y="428.7"/>
      <point x="72.95" y="433.05"/>
      <point x="57.65" y="444.4" type="curve"/>
    </contour>
  </outline>
</glyph>
<glyph name="uni00B5" format="2">
  <advance width="360.3"/>
  <unicode hex="00B5"/>
  <outline>
    <contour>
      <point x="30.25" y="-210.0" type="line"/>
      <point x="130.55" y="-210.0" type="line"/>
      <point x="130.55" y="5.35" type="line"/>
      <point x="139.05" y="-5.1"/>
      <point x="151.35" y="-8.9"/>
      <point x="165.75" y="-8.9" type="curve" smooth="yes"/>
      <point x="187.8" y="-8.9"/>
      <point x="213.85" y="3.3000000000000003"/>
      <point x="229.7" y="18.3" type="curve"/>
      <point x="242.05" y="2.2"/>
      <point x="254.3" y="-10.0"/>
      <point x="289.9" y="-10.0" type="curve" smooth="yes"/>
      <point x="319.7" y="-10.0"/>
      <point x="340.6" y="-2.5"/>
      <point x="360.1" y="7.800000000000001" type="curve"/>
      <point x="350.9" y="97.95" type="line"/>
      <point x="344.75" y="95.15"/>
      <point x="337.4" y="93.7"/>
      <point x="331.15" y="93.7" type="curve" smooth="yes"/>
      <point x="321.45" y="93.7"/>
      <point x="317.1" y="99.5"/>
      <point x="317.1" y="118.7" type="curve" smooth="yes"/>
      <point x="317.1" y="541.0" type="line"/>
      <point x="211.85" y="541.0" type="line"/>
      <point x="211.85" y="106.05000000000001" type="line"/>
      <point x="201.0" y="96.55000000000001"/>
      <point x="182.85" y="90.5"/>
      <point x="170.55" y="90.5" type="curve" smooth="yes"/>
      <point x="149.45" y="90.5"/>
      <point x="136.05" y="103.75"/>
      <point x="136.05" y="133.5" type="curve" smooth="yes"/>
      <point x="136.05" y="541.0" type="line"/>
      <point x="30.25" y="541.0" type="line"/>
    </contour>
  </outline>
</glyph>
<glyph name="paragraph" format="2">
  <advance width="475.8"/>
  <unicode hex="00B6"/>
  <outline>
    <contour>
      <point x="360.65" y="-210.0" type="line"/>
      <point x="444.45" y="-210.0" type="line"/>
      <point x="444.45" y="740.0" type="line"/>
      <point x="360.65" y="740.0" type="line"/>
    </contour>
    <contour>
      <point x="196.8" y="295.1" type="line"/>
      <point x="149.65" y="306.85"/>
      <point x="116.85000000000001" y="375.05"/>
      <point x="116.85000000000001" y="474.8" type="curve" smooth="yes"/>
      <point x="116.85000000000001" y="567.45"/>
      <point x="150.45" y="640.55"/>
      <point x="220.55" y="642.8" type="curve"/>
      <point x="220.55" y="-210.0" type="line"/>
      <point x="304.35" y="-210.0" type="line"/>
      <point x="304.35" y="740.0" type="line"/>
      <point x="251.4" y="740.0" type="line" smooth="yes"/>
      <point x="77.4" y="740.0"/>
      <point x="22.05" y="614.95"/>
      <point x="22.05" y="477.55" type="curve" smooth="yes"/>
      <point x="22.05" y="346.7"/>
      <point x="72.4" y="246.95"/>
      <point x="184.8" y="220.65" type="curve"/>
    </contour>
  </outline>
</glyph>
<glyph name="periodcentered" format="2">
  <advance width="150.5"/>
  <unicode hex="00B7"/>
  <outline>
    <contour>
      <point x="17.8" y="310.0" type="curve" smooth="yes"/>
      <point x="17.8" y="259.9"/>
      <point x="34.099999999999994" y="238.0"/>
      <point x="75.69999999999999" y="238.0" type="curve" smooth="yes"/>
      <point x="117.3" y="238.0"/>
      <point x="132.70000000000002" y="259.9"/>
      <point x="132.70000000000002" y="310.0" type="curve" smooth="yes"/>
      <point x="132.70000000000002" y="360.20000000000005"/>
      <point x="117.3" y="382.09999999999997"/>
      <point x="75.69999999999999" y="382.09999999999997" type="curve" smooth="yes"/>
      <point x="33.199999999999996" y="382.09999999999997"/>
      <point x="17.8" y="360.20000000000005"/>
    </contour>
  </outline>
</glyph>
<glyph name="uni00B9" format="2">
  <advance width="225.7"/>
  <unicode hex="00B9"/>
  <outline>
    <contour>
      <point x="26.35" y="370.0" type="line"/>
      <point x="207.05" y="370.0" type="line"/>
      <point x="207.05" y="427.7" type="line"/>
      <point x="154.5" y="427.7" type="line"/>
      <point x="154.5" y="769.45" type="line"/>
      <point x="119.75" y="769.45" type="line"/>
      <point x="20.299999999999997" y="722.45" type="line"/>
      <point x="33.25" y="657.95" type="line"/>
      <point x="85.45" y="688.1" type="line"/>
      <point x="85.45" y="427.7" type="line"/>
      <point x="26.35" y="427.7" type="line"/>
    </contour>
  </outline>
</glyph>
<glyph name="ordmasculine" format="2">
  <advance width="254.9"/>
  <unicode hex="00BA"/>
  <outline>
    <contour>
      <point x="29.7" y="268.45" type="line"/>
      <point x="230.15" y="268.45" type="line"/>
      <point x="230.15" y="323.85" type="line"/>
      <point x="29.7" y="323.85" type="line"/>
    </contour>
    <component base="o.superior" xOffset="13.399999999999999"/>
  </outline>
</glyph>
<glyph name="questiondown" format="2">
  <advance width="302.95"/>
  <unicode hex="00BF"/>
  <outline>
    <contour>
      <point x="228.60000000000002" y="273.7" type="line"/>
      <point x="135.45" y="273.7" type="line"/>
      <point x="135.45" y="198.45" type="line"/>
      <point x="62.5" y="141.1"/>
      <point x="29.7" y="75.0"/>
      <point x="29.7" y="-27.099999999999998" type="curve" smooth="yes"/>
      <point x="29.7" y="-150.6"/>
      <point x="90.95" y="-214.5"/>
      <point x="190.1" y="-214.5" type="curve" smooth="yes"/>
      <point x="238.2" y="-214.5"/>
      <point x="282.65" y="-194.05"/>
      <point x="314.15" y="-164.25" type="curve"/>
      <point x="274.1" y="-67.1" type="line"/>
      <point x="246.2" y="-92.94999999999999"/>
      <point x="226.55" y="-99.24999999999999"/>
      <point x="206.05" y="-99.24999999999999" type="curve" smooth="yes"/>
      <point x="165.05" y="-99.24999999999999"/>
      <point x="139.25" y="-61.69999999999999"/>
      <point x="139.25" y="-7.099999999999994" type="curve" smooth="yes"/>
      <point x="139.25" y="49.7"/>
      <point x="156.65" y="95.9"/>
      <point x="230.8" y="151.5" type="curve"/>
    </contour>
    <contour>
      <point x="239.65" y="468.45" type="curve" smooth="yes"/>
      <point x="239.65" y="518.55"/>
      <point x="223.45" y="540.45"/>
      <point x="181.75" y="540.45" type="curve" smooth="yes"/>
      <point x="140.7" y="540.45"/>
      <point x="124.3" y="518.55"/>
      <point x="124.3" y="468.45" type="curve" smooth="yes"/>
      <point x="124.3" y="417.8"/>
      <point x="140.7" y="395.9"/>
      <point x="181.75" y="395.9" type="curve" smooth="yes"/>
      <point x="224.35000000000002" y="395.9"/>
      <point x="239.65" y="417.8"/>
    </contour>
  </outline>
</glyph>
<glyph name="AE" format="2">
  <advance width="548.2"/>
  <unicode hex="00C6"/>
  <anchor x="315.45" y="700.0" name="top"/>
  <outline>
    <contour>
      <point x="10.1" y="0.0" type="line"/>
      <point x="125.25" y="-0.44999999999999996" type="line"/>
      <point x="178.35" y="202.25" type="line"/>
      <point x="273.0" y="202.25" type="line"/>
      <point x="273.0" y="0.0" type="line"/>
      <point x="536.65" y="0.0" type="line"/>
      <point x="536.65" y="106.9" type="line"/>
      <point x="374.95" y="106.9" type="line"/>
      <point x="374.95" y="291.45" type="line"/>
      <point x="506.7" y="291.45" type="line"/>
      <point x="506.7" y="392.85" type="line"/>
      <point x="374.95" y="392.85" type="line"/>
      <point x="374.95" y="590.35" type="line"/>
      <point x="526.1" y="590.35" type="line"/>
      <point x="526.1" y="700.0" type="line"/>
      <point x="198.5" y="700.0" type="line"/>
    </contour>
    <contour>
      <point x="197.65" y="307.05" type="line"/>
      <point x="271.9" y="625.45" type="line"/>
      <point x="271.9" y="307.05" type="line"/>
    </contour>
  </outline>
</glyph>
<glyph name="multiply" format="2">
  <advance width="388.5"/>
  <unicode hex="00D7"/>
  <outline>
    <contour>
      <point x="111.6" y="123.30000000000001" type="line"/>
      <point x="193.8" y="245.55" type="line"/>
      <point x="276.9" y="123.75" type="line"/>
      <point x="347.15" y="189.95" type="line"/>
      <point x="261.35" y="317.15" type="line"/>
      <point x="346.7" y="445.25" type="line"/>
      <point x="276.45" y="511.45" type="line"/>
      <point x="193.8" y="389.2" type="line"/>
      <point x="111.6" y="511.45" type="line"/>
      <point x="41.35" y="445.25" type="line"/>
      <point x="126.69999999999999" y="317.15" type="line"/>
      <point x="41.35" y="189.5" type="line"/>
    </contour>
  </outline>
</glyph>
<glyph name="Oslash" format="2">
  <advance width="367.0"/>
  <unicode hex="00D8"/>
  <anchor x="184.20000000000002" y="700.0" name="top"/>
  <outline>
    <contour>
      <point x="85.10000000000001" y="-10.0" type="line"/>
      <point x="110.4" y="60.300000000000004" type="line"/>
      <point x="119.10000000000001" y="59.300000000000004" type="line"/>
      <point x="291.70000000000005" y="582.3000000000001" type="line"/>
      <point x="299.5" y="580.3" type="line"/>
      <point x="347.6" y="715.5" type="line"/>
      <point x="284.20000000000005" y="715.5" type="line"/>
      <point x="253.3" y="628.8" type="line"/>
      <point x="244.60000000000002" y="629.8" type="line"/>
      <point x="77.10000000000001" y="124.4" type="line"/>
      <point x="70.2" y="126.4" type="line"/>
      <point x="21.599999999999998" y="-10.0" type="line"/>
    </contour>
    <contour>
      <point x="184.20000000000002" y="86.10000000000001" type="curve" smooth="yes"/>
      <point x="136.2" y="86.10000000000001"/>
      <point x="122.7" y="133.10000000000002"/>
      <point x="122.7" y="349.0" type="curve" smooth="yes"/>
      <point x="122.7" y="565.8000000000001"/>
      <point x="136.3" y="613.9"/>
      <point x="184.20000000000002" y="613.9" type="curve" smooth="yes"/>
      <point x="233.1" y="613.9"/>
      <point x="246.6" y="566.9"/>
      <point x="246.6" y="350.09999999999997" type="curve" smooth="yes"/>
      <point x="246.6" y="134.20000000000002"/>
      <point x="233.0" y="86.10000000000001"/>
    </contour>
    <contour>
      <point x="184.10000000000002" y="-10.0" type="curve" smooth="yes"/>
      <point x="299.90000000000003" y="-10.0"/>
      <point x="350.1" y="69.80000000000001"/>
      <point x="350.1" y="351.1" type="curve" smooth="yes"/>
      <point x="350.1" y="631.3000000000001"/>
      <point x="300.90000000000003" y="710.0"/>
      <point x="184.20000000000002" y="710.0" type="curve" smooth="yes"/>
      <point x="68.39999999999999" y="710.0"/>
      <point x="19.099999999999998" y="630.1999999999999"/>
      <point x="19.099999999999998" y="348.9" type="curve" smooth="yes"/>
      <point x="19.099999999999998" y="68.7"/>
      <point x="68.3" y="-10.0"/>
    </contour>
  </outline>
</glyph>
<glyph name="Thorn" format="2">
  <advance width="351.95"/>
  <unicode hex="00DE"/>
  <outline>
    <contour>
      <point x="31.45" y="0.0" type="line"/>
      <point x="137.25" y="0.0" type="line"/>
      <point x="137.25" y="136.95" type="line"/>
      <point x="157.15" y="134.3"/>
      <point x="166.10000000000002" y="134.3"/>
      <point x="185.4" y="134.3" type="curve" smooth="yes"/>
      <point x="290.3" y="134.3"/>
      <point x="339.25" y="214.45"/>
      <point x="339.25" y="389.15" type="curve" smooth="yes"/>
      <point x="339.25" y="557.2"/>
      <point x="296.05" y="627.85"/>
      <point x="164.75" y="627.85" type="curve" smooth="yes"/>
      <point x="156.25" y="627.85"/>
      <point x="147.2" y="627.4"/>
      <point x="137.8" y="626.5" type="curve"/>
      <point x="137.8" y="700.0" type="line"/>
      <point x="31.45" y="700.0" type="line"/>
    </contour>
    <contour>
      <point x="167.7" y="239.55" type="curve" smooth="yes"/>
      <point x="156.65" y="239.55"/>
      <point x="148.60000000000002" y="239.55"/>
      <point x="137.8" y="241.1" type="curve"/>
      <point x="137.8" y="523.9" type="line"/>
      <point x="151.05" y="526.9"/>
      <point x="163.3" y="527.35"/>
      <point x="171.8" y="527.35" type="curve" smooth="yes"/>
      <point x="221.05" y="527.35"/>
      <point x="233.45" y="488.45"/>
      <point x="233.45" y="394.4" type="curve" smooth="yes"/>
      <point x="233.45" y="295.75"/>
      <point x="216.15" y="239.55"/>
    </contour>
  </outline>
</glyph>
<glyph name="germandbls" format="2">
  <advance width="458.80000000000007"/>
  <unicode hex="00DF"/>
  <outline>
    <contour>
      <point x="57.7" y="0.0" type="line"/>
      <point x="162.5" y="0.0" type="line"/>
      <point x="162.5" y="532.3" type="line" smooth="yes"/>
      <point x="162.5" y="611.1"/>
      <point x="189.39999999999998" y="649.1"/>
      <point x="250.70000000000002" y="649.1" type="curve" smooth="yes"/>
      <point x="292.3" y="649.1"/>
      <point x="311.8" y="629.4"/>
      <point x="311.8" y="594.5" type="curve" smooth="yes"/>
      <point x="311.8" y="568.0999999999999"/>
      <point x="305.90000000000003" y="551.3000000000001"/>
      <point x="267.50000000000006" y="521.3000000000001" type="curve" smooth="yes"/>
      <point x="224.5" y="488.0"/>
      <point x="199.7" y="449.79999999999995"/>
      <point x="199.7" y="389.5" type="curve" smooth="yes"/>
      <point x="199.7" y="305.8"/>
      <point x="229.1" y="270.59999999999997"/>
      <point x="293.8" y="226.6" type="curve" smooth="yes"/>
      <point x="344.1" y="192.20000000000002"/>
      <point x="357.40000000000003" y="174.3"/>
      <point x="357.40000000000003" y="144.20000000000002" type="curve" smooth="yes"/>
      <point x="357.40000000000003" y="111.5"/>
      <point x="339.9" y="87.4"/>
      <point x="291.70000000000005" y="87.4" type="curve" smooth="yes"/>
      <point x="253.7" y="87.4"/>
      <point x="232.2" y="95.30000000000001"/>
      <point x="203.20000000000002" y="105.30000000000001" type="curve"/>
      <point x="185.4" y="14.4" type="line"/>
      <point x="215.4" y="-1.9"/>
      <point x="258.59999999999997" y="-10.0"/>
      <point x="301.6" y="-10.0" type="curve" smooth="yes"/>
      <point x="398.6" y="-10.0"/>
      <point x="454.90000000000003" y="49.1"/>
      <point x="454.90000000000003" y="150.60000000000002" type="curve" smooth="yes"/>
      <point x="454.90000000000003" y="226.5"/>
      <point x="424.70000000000005" y="272.40000000000003"/>
      <point x="356.9" y="314.90000000000003" type="curve" smooth="yes"/>
      <point x="309.59999999999997" y="345.6"/>
      <point x="299.9" y="368.0"/>
      <point x="299.9" y="397.1" type="curve" smooth="yes"/>
      <point x="299.9" y="422.70000000000005"/>
      <point x="312.2" y="441.09999999999997"/>
      <point x="344.90000000000003" y="464.8" type="curve" smooth="yes"/>
      <point x="403.70000000000005" y="505.7"/>
      <point x="422.5" y="542.3"/>
      <point x="422.5" y="598.1999999999999" type="curve" smooth="yes"/>
      <point x="422.5" y="694.5"/>
      <point x="361.4" y="750.0"/>
      <point x="246.10000000000002" y="750.0" type="curve" smooth="yes"/>
      <point x="126.2" y="750.0"/>
      <point x="57.7" y="672.2"/>
      <point x="57.7" y="546.9" type="curve" smooth="yes"/>
      <point x="57.7" y="509.2" type="line"/>
      <point x="7.7" y="502.2" type="line"/>
      <point x="7.7" y="417.7" type="line"/>
      <point x="57.7" y="417.7" type="line"/>
    </contour>
  </outline>
</glyph>
<glyph name="ae" format="2">
  <advance width="504.05"/>
  <unicode hex="00E6"/>
  <anchor x="252.25" y="541.0" name="top"/>
  <outline>
    <contour>
      <point x="117.0" y="-10.0" type="curve" smooth="yes"/>
      <point x="163.45" y="-10.0"/>
      <point x="199.45" y="9.05"/>
      <point x="240.05" y="53.2" type="curve"/>
      <point x="241.05" y="53.2" type="line"/>
      <point x="269.6" y="10.25"/>
      <point x="305.95" y="-10.0"/>
      <point x="358.4" y="-10.0" type="curve" smooth="yes"/>
      <point x="401.15" y="-10.0"/>
      <point x="441.45" y="-0.5999999999999996"/>
      <point x="482.15" y="18.1" type="curve"/>
      <point x="466.7" y="113.65" type="line"/>
      <point x="435.45" y="103.10000000000001"/>
      <point x="398.35" y="95.9"/>
      <point x="377.55" y="95.9" type="curve" smooth="yes"/>
      <point x="323.45" y="95.9"/>
      <point x="299.55" y="128.05"/>
      <point x="299.55" y="229.25" type="curve" smooth="yes"/>
      <point x="299.55" y="233.6"/>
      <point x="299.55" y="237.4"/>
      <point x="299.55" y="241.75" type="curve"/>
      <point x="366.95" y="244.5"/>
      <point x="448.35" y="256.95"/>
      <point x="486.1" y="262.95" type="curve"/>
      <point x="486.65" y="275.85"/>
      <point x="487.65" y="295.25"/>
      <point x="487.65" y="310.7" type="curve" smooth="yes"/>
      <point x="487.65" y="480.1"/>
      <point x="446.2" y="551.0"/>
      <point x="345.35" y="551.0" type="curve" smooth="yes"/>
      <point x="302.75" y="551.0"/>
      <point x="272.55" y="526.95"/>
      <point x="250.0" y="484.6" type="curve"/>
      <point x="249.0" y="484.6" type="line"/>
      <point x="228.0" y="528.4"/>
      <point x="195.7" y="551.0"/>
      <point x="146.75" y="551.0" type="curve" smooth="yes"/>
      <point x="110.75" y="551.0"/>
      <point x="62.1" y="540.5"/>
      <point x="26.2" y="525.1" type="curve"/>
      <point x="49.7" y="425.6" type="line"/>
      <point x="90.4" y="439.55"/>
      <point x="118.35" y="441.35"/>
      <point x="137.95" y="441.35" type="curve" smooth="yes"/>
      <point x="172.4" y="441.35"/>
      <point x="193.1" y="420.35"/>
      <point x="193.1" y="379.75" type="curve" smooth="yes"/>
      <point x="193.1" y="322.5" type="line"/>
      <point x="57.65" y="296.55"/>
      <point x="6.25" y="247.2"/>
      <point x="6.25" y="137.9" type="curve" smooth="yes"/>
      <point x="6.25" y="45.65"/>
      <point x="48.15" y="-10.0"/>
    </contour>
    <contour>
      <point x="149.25" y="78.30000000000001" type="curve" smooth="yes"/>
      <point x="124.4" y="78.30000000000001"/>
      <point x="108.75" y="103.1"/>
      <point x="108.75" y="150.05" type="curve" smooth="yes"/>
      <point x="108.75" y="206.85"/>
      <point x="134.65" y="238.5"/>
      <point x="193.65" y="254.55" type="curve"/>
      <point x="193.65" y="243.9"/>
      <point x="193.65" y="232.05"/>
      <point x="193.65" y="221.4" type="curve" smooth="yes"/>
      <point x="193.65" y="179.1"/>
      <point x="196.8" y="142.35"/>
      <point x="199.95" y="114.9" type="curve"/>
      <point x="186.8" y="93.0"/>
      <point x="165.85" y="78.30000000000001"/>
    </contour>
    <contour>
      <point x="298.45" y="309.25" type="curve"/>
      <point x="296.8" y="423.55"/>
      <point x="311.7" y="463.15"/>
      <point x="340.5" y="463.15" type="curve" smooth="yes"/>
      <point x="370.05" y="463.15"/>
      <point x="382.95" y="421.55"/>
      <point x="384.05" y="318.0" type="curve"/>
      <point x="368.35" y="313.4"/>
      <point x="324.35" y="309.25"/>
    </contour>
  </outline>
</glyph>
<glyph name="eth" format="2">
  <advance width="336.2"/>
  <unicode hex="00F0"/>
  <outline>
    <contour>
      <point x="227.7" y="444.90000000000003" type="curve"/>
      <point x="234.00000000000003" y="524.2" type="line"/>
      <point x="215.5" y="534.0"/>
      <point x="193.3" y="539.9"/>
      <point x="171.4" y="539.9" type="curve" smooth="yes"/>
      <point x="59.5" y="539.9"/>
      <point x="18.999999999999996" y="451.40000000000003"/>
      <point x="18.999999999999996" y="250.4" type="curve" smooth="yes"/>
      <point x="18.999999999999996" y="66.5"/>
      <point x="63.6" y="-10.0"/>
      <point x="165.50000000000003" y="-10.0" type="curve" smooth="yes"/>
      <point x="282.5" y="-10.0"/>
      <point x="319.90000000000003" y="70.89999999999999"/>
      <point x="319.90000000000003" y="336.6" type="curve" smooth="yes"/>
      <point x="319.90000000000003" y="608.9"/>
      <point x="263.40000000000003" y="732.0"/>
      <point x="115.4" y="732.0" type="curve" smooth="yes"/>
      <point x="80.2" y="732.0"/>
      <point x="49.7" y="723.5"/>
      <point x="21.3" y="713.0999999999999" type="curve"/>
      <point x="34.9" y="642.2" type="line"/>
      <point x="52.8" y="648.2"/>
      <point x="70.3" y="653.4"/>
      <point x="91.4" y="653.4" type="curve" smooth="yes"/>
      <point x="189.0" y="653.4"/>
      <point x="212.9" y="590.5"/>
      <point x="212.9" y="352.2" type="curve" smooth="yes"/>
      <point x="212.9" y="112.9"/>
      <point x="204.6" y="69.5"/>
      <point x="169.9" y="69.5" type="curve" smooth="yes"/>
      <point x="137.1" y="69.5"/>
      <point x="128.0" y="113.50000000000001"/>
      <point x="128.0" y="250.5" type="curve" smooth="yes"/>
      <point x="128.0" y="417.2"/>
      <point x="144.8" y="458.1"/>
      <point x="189.00000000000003" y="458.1" type="curve" smooth="yes"/>
      <point x="200.4" y="458.1"/>
      <point x="213.9" y="455.2"/>
    </contour>
    <contour>
      <point x="124.4" y="559.3000000000001" type="line"/>
      <point x="207.0" y="630.6999999999999" type="line"/>
      <point x="209.8" y="638.2" type="line"/>
      <point x="321.5" y="734.5999999999999" type="line"/>
      <point x="240.20000000000002" y="734.6999999999999" type="line"/>
      <point x="178.4" y="682.3000000000001" type="line"/>
      <point x="180.29999999999998" y="678.1999999999999" type="line"/>
      <point x="43.599999999999994" y="559.4" type="line"/>
    </contour>
  </outline>
</glyph>
<glyph name="divide" format="2">
  <advance width="397.5"/>
  <unicode hex="00F7"/>
  <outline>
    <contour>
      <point x="143.4" y="137.9" type="curve" smooth="yes"/>
      <point x="143.4" y="98.8"/>
      <point x="158.79999999999998" y="81.39999999999999"/>
      <point x="199.2" y="81.39999999999999" type="curve" smooth="yes"/>
      <point x="238.60000000000002" y="81.39999999999999"/>
      <point x="255.0" y="98.8"/>
      <point x="255.0" y="137.9" type="curve" smooth="yes"/>
      <point x="255.0" y="177.1"/>
      <point x="238.60000000000002" y="194.5"/>
      <point x="199.2" y="194.5" type="curve" smooth="yes"/>
      <point x="158.79999999999998" y="194.5"/>
      <point x="143.4" y="177.1"/>
    </contour>
    <contour>
      <point x="143.4" y="485.09999999999997" type="curve" smooth="yes"/>
      <point x="143.4" y="446.0"/>
      <point x="158.79999999999998" y="429.5"/>
      <point x="199.2" y="429.5" type="curve" smooth="yes"/>
      <point x="238.60000000000002" y="429.5"/>
      <point x="255.0" y="446.0"/>
      <point x="255.0" y="485.09999999999997" type="curve" smooth="yes"/>
      <point x="255.0" y="525.2"/>
      <point x="238.60000000000002" y="541.6999999999999"/>
      <point x="199.2" y="541.6999999999999" type="curve" smooth="yes"/>
      <point x="158.79999999999998" y="541.6999999999999"/>
      <point x="143.4" y="525.2"/>
    </contour>
    <contour>
      <point x="41.099999999999994" y="263.59999999999997" type="line"/>
      <point x="357.3" y="263.59999999999997" type="line"/>
      <point x="357.3" y="360.59999999999997" type="line"/>
      <point x="41.099999999999994" y="360.59999999999997" type="line"/>
    </contour>
  </outline>
</glyph>
<glyph name="oslash" format="2">
  <advance width="344.20000000000005"/>
  <unicode hex="00F8"/>
  <anchor x="170.20000000000002" y="541.0" name="top"/>
  <outline>
    <contour>
      <point x="170.20000000000002" y="-10.0" type="curve" smooth="yes"/>
      <point x="47.3" y="-10.0"/>
      <point x="18.099999999999998" y="85.69999999999999"/>
      <point x="18.099999999999998" y="271.5" type="curve" smooth="yes"/>
      <point x="18.099999999999998" y="457.3"/>
      <point x="47.3" y="551.0"/>
      <point x="170.20000000000002" y="551.0" type="curve" smooth="yes"/>
      <point x="293.1" y="551.0"/>
      <point x="323.3" y="457.3"/>
      <point x="323.3" y="271.5" type="curve" smooth="yes"/>
      <point x="323.3" y="85.69999999999999"/>
      <point x="293.1" y="-10.0"/>
    </contour>
    <contour>
      <point x="171.10000000000002" y="82.8" type="curve" smooth="yes"/>
      <point x="207.4" y="82.8"/>
      <point x="219.5" y="111.60000000000001"/>
      <point x="219.5" y="271.5" type="curve" smooth="yes"/>
      <point x="219.5" y="431.4"/>
      <point x="207.4" y="459.2"/>
      <point x="171.10000000000002" y="459.2" type="curve" smooth="yes"/>
      <point x="133.70000000000002" y="459.2"/>
      <point x="122.70000000000002" y="431.4"/>
      <point x="122.70000000000002" y="271.5" type="curve" smooth="yes"/>
      <point x="122.70000000000002" y="111.60000000000001"/>
      <point x="133.70000000000002" y="82.8"/>
    </contour>
    <contour>
      <point x="15.999999999999998" y="-4.499999999999999" type="line"/>
      <point x="77.2" y="134.5" type="line"/>
      <point x="82.9" y="132.7" type="line"/>
      <point x="228.60000000000002" y="489.79999999999995" type="line"/>
      <point x="236.10000000000002" y="488.0" type="line"/>
      <point x="264.40000000000003" y="551.0" type="line"/>
      <point x="325.4" y="551.0" type="line"/>
      <point x="274.9" y="437.2" type="line"/>
      <point x="268.3" y="439.0" type="line"/>
      <point x="117.00000000000001" y="68.0" type="line"/>
      <point x="109.5" y="69.8" type="line"/>
      <point x="76.9" y="-4.499999999999999" type="line"/>
    </contour>
  </outline>
</glyph>
<glyph name="thorn" format="2">
  <advance width="343.45"/>
  <unicode hex="00FE"/>
  <outline>
    <contour>
      <point x="30.25" y="-210.0" type="line"/>
      <point x="134.4" y="-210.0" type="line"/>
      <point x="134.4" y="-6.4" type="line"/>
      <point x="144.60000000000002" y="-9.1"/>
      <point x="152.45" y="-10.0"/>
      <point x="160.4" y="-10.0" type="curve" smooth="yes"/>
      <point x="280.7" y="-10.0"/>
      <point x="324.9" y="69.75"/>
      <point x="324.9" y="285.9" type="curve" smooth="yes"/>
      <point x="324.9" y="464.6"/>
      <point x="286.4" y="551.0"/>
      <point x="204.60000000000002" y="551.0" type="curve" smooth="yes"/>
      <point x="182.7" y="551.0"/>
      <point x="152.60000000000002" y="540.9"/>
      <point x="135.5" y="528.25" type="curve"/>
      <point x="135.5" y="740.0" type="line"/>
      <point x="30.25" y="740.0" type="line"/>
    </contour>
    <contour>
      <point x="160.35" y="77.95" type="curve" smooth="yes"/>
      <point x="153.85" y="77.95"/>
      <point x="148.15" y="79.4"/>
      <point x="136.05" y="83.2" type="curve"/>
      <point x="136.05" y="436.2" type="line"/>
      <point x="149.5" y="446.05"/>
      <point x="156.8" y="449.4"/>
      <point x="169.9" y="449.4" type="curve" smooth="yes"/>
      <point x="199.9" y="449.4"/>
      <point x="213.6" y="400.35"/>
      <point x="213.6" y="274.35" type="curve" smooth="yes"/>
      <point x="213.6" y="119.1"/>
      <point x="201.25" y="77.95"/>
    </contour>
  </outline>
</glyph>
<glyph name="Dcroat" format="2">
  <advance width="371.55"/>
  <unicode hex="0110"/>
  <outline>
    <contour>
      <point x="1.5" y="304.9" type="line"/>
      <point x="197.75" y="304.9" type="line"/>
      <point x="197.75" y="403.55" type="line"/>
      <point x="1.5" y="403.55" type="line"/>
    </contour>
    <component base="D" xOffset="3.1499999999999995"/>
  </outline>
</glyph>
<glyph name="dcroat" format="2">
  <advance width="347.85"/>
  <unicode hex="0111"/>
  <outline>
    <contour>
      <point x="130.5" y="610.85" type="line"/>
      <point x="353.55" y="610.85" type="line"/>
      <point x="353.55" y="676.15" type="line"/>
      <point x="130.5" y="676.15" type="line"/>
    </contour>
    <component base="d"/>
  </outline>
</glyph>
<glyph name="Hbar" format="2">
  <advance width="376.75"/>
  <unicode hex="0126"/>
  <outline>
    <contour>
      <point x="4.199999999999999" y="502.55" type="line"/>
      <point x="31.45" y="502.55" type="line"/>
      <point x="31.45" y="0.0" type="line"/>
      <point x="136.7" y="0.0" type="line"/>
      <point x="136.7" y="256.35" type="line"/>
      <point x="240.05" y="256.35" type="line"/>
      <point x="240.05" y="0.0" type="line"/>
      <point x="345.3" y="0.0" type="line"/>
      <point x="345.3" y="502.55" type="line"/>
      <point x="372.55" y="502.55" type="line"/>
      <point x="372.55" y="591.05" type="line"/>
      <point x="345.3" y="591.05" type="line"/>
      <point x="345.3" y="700.0" type="line"/>
      <point x="240.05" y="700.0" type="line"/>
      <point x="240.05" y="591.05" type="line"/>
      <point x="136.7" y="591.05" type="line"/>
      <point x="136.7" y="700.0" type="line"/>
      <point x="31.45" y="700.0" type="line"/>
      <point x="31.45" y="591.05" type="line"/>
      <point x="4.199999999999999" y="591.05" type="line"/>
    </contour>
    <contour>
      <point x="136.7" y="366.65" type="line"/>
      <point x="136.7" y="502.55" type="line"/>
      <point x="240.05" y="502.55" type="line"/>
      <point x="240.05" y="366.65" type="line"/>
    </contour>
  </outline>
</glyph>
<glyph name="hbar" format="2">
  <advance width="346.25"/>
  <unicode hex="0127"/>
  <outline>
    <contour>
      <point x="-3.0500000000000007" y="610.85" type="line"/>
      <point x="208.45" y="610.85" type="line"/>
      <point x="208.45" y="676.15" type="line"/>
      <point x="-3.0500000000000007" y="676.15" type="line"/>
    </contour>
    <component base="h"/>
  </outline>
</glyph>
<glyph name="Idotaccent" format="2">
  <advance width="168.15"/>
  <unicode hex="0130"/>
  <outline>
    <contour>
      <point x="84.9" y="758.6" type="curve" smooth="yes"/>
      <point x="126.4" y="758.6"/>
      <point x="145.10000000000002" y="779.4"/>
      <point x="145.10000000000002" y="826.75" type="curve" smooth="yes"/>
      <point x="145.10000000000002" y="875.2"/>
      <point x="125.30000000000001" y="895.45"/>
      <point x="84.9" y="895.45" type="curve" smooth="yes"/>
      <point x="43.95" y="895.45"/>
      <point x="24.15" y="875.2"/>
      <point x="24.15" y="826.75" type="curve" smooth="yes"/>
      <point x="24.15" y="778.85"/>
      <point x="44.4" y="758.6"/>
    </contour>
    <component base="I"/>
  </outline>
</glyph>
<glyph name="dotlessi" format="2">
  <advance width="167.4"/>
  <unicode hex="0131"/>
  <anchor x="134.95" y="5.5" name="ogonek"/>
  <anchor x="84.80000000000001" y="0.0" name="bottom"/>
  <anchor x="83.7" y="541.0" name="top"/>
  <outline>
    <contour>
      <point x="30.25" y="0.0" type="line"/>
      <point x="137.15" y="0.0" type="line"/>
      <point x="137.15" y="541.0" type="line"/>
      <point x="30.25" y="541.0" type="line"/>
    </contour>
  </outline>
</glyph>
<glyph name="kgreenlandic" format="2">
  <advance width="328.0"/>
  <unicode hex="0138"/>
  <anchor x="170.8" y="541.0" name="top"/>
  <anchor x="170.8" y="0.0" name="bottom"/>
  <outline>
    <contour>
      <point x="297.20000000000005" y="-8.2" type="curve" smooth="yes"/>
      <point x="307.7" y="-8.2"/>
      <point x="318.1" y="-7.199999999999999"/>
      <point x="328.7" y="-4.1" type="curve"/>
      <point x="327.8" y="112.80000000000001" type="line"/>
      <point x="324.8" y="112.80000000000001"/>
      <point x="321.0" y="111.9"/>
      <point x="318.0" y="111.9" type="curve" smooth="yes"/>
      <point x="296.4" y="111.9"/>
      <point x="282.6" y="125.9"/>
      <point x="226.7" y="224.6" type="curve" smooth="yes"/>
      <point x="129.9" y="395.3" type="line"/>
      <point x="129.9" y="541.0" type="line"/>
      <point x="30.7" y="541.0" type="line"/>
      <point x="30.7" y="0.0" type="line"/>
      <point x="129.9" y="0.0" type="line"/>
      <point x="129.9" y="212.29999999999998" type="line"/>
      <point x="195.00000000000003" y="91.5" type="line" smooth="yes"/>
      <point x="240.7" y="7.4"/>
      <point x="259.0" y="-8.2"/>
    </contour>
    <contour>
      <point x="193.50000000000003" y="222.79999999999998" type="line"/>
      <point x="255.10000000000002" y="316.7"/>
      <point x="309.7" y="425.6"/>
      <point x="322.90000000000003" y="535.9000000000001" type="curve"/>
      <point x="220.6" y="544.1" type="line"/>
      <point x="210.70000000000002" y="432.2"/>
      <point x="177.3" y="367.0"/>
      <point x="129.7" y="294.5" type="curve"/>
    </contour>
  </outline>
</glyph>
<glyph name="Ldot" format="2">
  <advance width="283.35"/>
  <unicode hex="013F"/>
  <outline>
    <contour>
      <point x="188.0" y="378.45" type="curve" smooth="yes"/>
      <point x="188.0" y="343.75"/>
      <point x="198.35" y="329.55"/>
      <point x="226.75" y="329.55" type="curve" smooth="yes"/>
      <point x="256.15" y="329.55"/>
      <point x="266.05" y="343.75"/>
      <point x="266.05" y="378.45" type="curve" smooth="yes"/>
      <point x="266.05" y="413.7"/>
      <point x="256.15" y="427.9"/>
      <point x="226.75" y="427.9" type="curve" smooth="yes"/>
      <point x="197.9" y="427.9"/>
      <point x="188.0" y="413.7"/>
    </contour>
    <component base="L"/>
  </outline>
</glyph>
<glyph name="ldot" format="2">
  <advance width="258.4"/>
  <unicode hex="0140"/>
  <outline>
    <contour>
      <point x="210.85000000000002" y="317.45" type="curve" smooth="yes"/>
      <point x="237.5" y="317.45"/>
      <point x="250.7" y="330.55"/>
      <point x="250.7" y="367.45" type="curve" smooth="yes"/>
      <point x="250.7" y="404.9"/>
      <point x="237.5" y="418.0"/>
      <point x="210.85000000000002" y="418.0" type="curve" smooth="yes"/>
      <point x="184.75" y="418.0"/>
      <point x="171.55" y="404.9"/>
      <point x="171.55" y="367.45" type="curve" smooth="yes"/>
      <point x="171.55" y="330.55"/>
      <point x="185.2" y="317.45"/>
    </contour>
    <component base="l"/>
  </outline>
</glyph>
<glyph name="Lslash" format="2">
  <advance width="303.5"/>
  <unicode hex="0141"/>
  <outline>
    <contour>
      <point x="14.1" y="212.35" type="line"/>
      <point x="51.599999999999994" y="242.6" type="line"/>
      <point x="51.599999999999994" y="0.0" type="line"/>
      <point x="296.2" y="0.0" type="line"/>
      <point x="296.2" y="106.45" type="line"/>
      <point x="157.4" y="106.45" type="line"/>
      <point x="157.4" y="300.75" type="line"/>
      <point x="261.1" y="381.15" type="line"/>
      <point x="261.1" y="488.55" type="line"/>
      <point x="157.4" y="408.6" type="line"/>
      <point x="157.4" y="700.0" type="line"/>
      <point x="51.599999999999994" y="700.0" type="line"/>
      <point x="51.599999999999994" y="350.45" type="line"/>
      <point x="14.1" y="320.2" type="line"/>
    </contour>
  </outline>
</glyph>
<glyph name="lslash" format="2">
  <advance width="204.5"/>
  <unicode hex="0142"/>
  <outline>
    <contour>
      <point x="137.05" y="-10.0" type="curve" smooth="yes"/>
      <point x="160.35" y="-10.0"/>
      <point x="182.8" y="-1.3999999999999995"/>
      <point x="197.0" y="7.450000000000001" type="curve"/>
      <point x="189.7" y="111.15" type="line"/>
      <point x="180.2" y="108.35000000000001"/>
      <point x="173.3" y="107.35000000000001"/>
      <point x="168.4" y="107.35000000000001" type="curve" smooth="yes"/>
      <point x="152.45" y="107.35000000000001"/>
      <point x="142.65" y="116.60000000000001"/>
      <point x="142.65" y="174.95" type="curve" smooth="yes"/>
      <point x="142.65" y="323.15" type="line"/>
      <point x="197.9" y="374.65" type="line"/>
      <point x="197.9" y="469.4" type="line"/>
      <point x="142.65" y="417.9" type="line"/>
      <point x="142.65" y="740.0" type="line"/>
      <point x="37.4" y="740.0" type="line"/>
      <point x="37.4" y="324.85" type="line"/>
      <point x="1.6500000000000001" y="291.75" type="line"/>
      <point x="1.6500000000000001" y="197.45" type="line"/>
      <point x="37.4" y="230.1" type="line"/>
      <point x="37.4" y="149.1" type="line" smooth="yes"/>
      <point x="37.4" y="27.450000000000003"/>
      <point x="68.15" y="-10.0"/>
    </contour>
  </outline>
</glyph>
<glyph name="Eng" format="2">
  <advance width="384.95"/>
  <unicode hex="014A"/>
  <outline>
    <contour>
      <point x="31.45" y="0.0" type="line"/>
      <point x="125.15" y="0.0" type="line"/>
      <point x="125.15" y="433.75" type="line"/>
      <point x="250.45" y="-0.7000000000000011" type="line"/>
      <point x="250.45" y="-10.25" type="line" smooth="yes"/>
      <point x="250.45" y="-48.349999999999994"/>
      <point x="232.8" y="-65.0"/>
      <point x="197.9" y="-65.0" type="curve" smooth="yes"/>
      <point x="189.85" y="-65.0"/>
      <point x="181.9" y="-65.0"/>
      <point x="170.55" y="-60.05" type="curve"/>
      <point x="152.4" y="-159.35" type="line"/>
      <point x="169.25" y="-169.8"/>
      <point x="189.85" y="-178.6"/>
      <point x="223.75" y="-178.6" type="curve" smooth="yes"/>
      <point x="316.5" y="-178.6"/>
      <point x="353.5" y="-116.80000000000001"/>
      <point x="353.5" y="-13.3" type="curve" smooth="yes"/>
      <point x="353.5" y="700.0" type="line"/>
      <point x="259.8" y="700.0" type="line"/>
      <point x="259.8" y="250.45000000000002" type="line"/>
      <point x="142.85000000000002" y="700.0" type="line"/>
      <point x="31.45" y="700.0" type="line"/>
    </contour>
  </outline>
</glyph>
<glyph name="eng" format="2">
  <advance width="346.8"/>
  <unicode hex="014B"/>
  <outline>
    <contour>
      <point x="317.65" y="16.75" type="curve"/>
      <point x="317.65" y="437.75" type="line" smooth="yes"/>
      <point x="317.65" y="512.7"/>
      <point x="283.2" y="551.0"/>
      <point x="225.05" y="551.0" type="curve" smooth="yes"/>
      <point x="188.7" y="551.0"/>
      <point x="153.3" y="537.7"/>
      <point x="126.7" y="515.35" type="curve"/>
      <point x="126.7" y="541.0" type="line"/>
      <point x="30.25" y="541.0" type="line"/>
      <point x="30.25" y="0.0" type="line"/>
      <point x="136.05" y="0.0" type="line"/>
      <point x="136.05" y="432.2" type="line"/>
      <point x="146.35000000000002" y="440.6"/>
      <point x="163.95" y="447.75"/>
      <point x="177.35" y="447.75" type="curve" smooth="yes"/>
      <point x="200.1" y="447.75"/>
      <point x="211.85" y="432.85"/>
      <point x="211.85" y="404.75" type="curve" smooth="yes"/>
      <point x="211.85" y="13.45" type="line" smooth="yes"/>
      <point x="211.85" y="-41.65"/>
      <point x="201.65" y="-74.85"/>
      <point x="182.5" y="-89.24999999999999" type="curve" smooth="yes"/>
      <point x="178.6" y="-91.49999999999999"/>
      <point x="173.05" y="-92.74999999999999"/>
      <point x="169.25" y="-93.55" type="curve"/>
      <point x="168.9" y="-211.2" type="line"/>
      <point x="182.4" y="-211.7"/>
      <point x="196.55" y="-210.1"/>
      <point x="213.45" y="-207.4" type="curve" smooth="yes"/>
      <point x="279.5" y="-190.75"/>
      <point x="317.65" y="-112.55"/>
    </contour>
  </outline>
</glyph>
<glyph name="OE" format="2">
  <advance width="506.9"/>
  <unicode hex="0152"/>
  <outline>
    <contour>
      <point x="495.35" y="0.0" type="line"/>
      <point x="495.35" y="106.9" type="line"/>
      <point x="337.5" y="106.9" type="line"/>
      <point x="337.5" y="304.05" type="line"/>
      <point x="465.4" y="304.05" type="line"/>
      <point x="465.4" y="405.45" type="line"/>
      <point x="337.5" y="405.45" type="line"/>
      <point x="337.5" y="590.35" type="line"/>
      <point x="484.8" y="590.35" type="line"/>
      <point x="484.8" y="700.0" type="line"/>
      <point x="309.45" y="700.0" type="line"/>
      <point x="275.6" y="705.75"/>
      <point x="240.7" y="707.3"/>
      <point x="209.85" y="707.3" type="curve" smooth="yes"/>
      <point x="75.0" y="707.3"/>
      <point x="17.549999999999997" y="620.3"/>
      <point x="17.549999999999997" y="352.2" type="curve" smooth="yes"/>
      <point x="17.549999999999997" y="67.1"/>
      <point x="82.05" y="-8.2"/>
      <point x="203.65" y="-8.2" type="curve" smooth="yes"/>
      <point x="236.65" y="-8.2"/>
      <point x="284.75" y="-6.75"/>
      <point x="336.95" y="0.0" type="curve"/>
    </contour>
    <contour>
      <point x="231.7" y="96.85000000000001" type="line"/>
      <point x="221.65" y="94.85000000000001"/>
      <point x="209.6" y="93.30000000000001"/>
      <point x="200.45" y="93.30000000000001" type="curve" smooth="yes"/>
      <point x="148.65" y="93.30000000000001"/>
      <point x="127.10000000000001" y="141.65"/>
      <point x="127.10000000000001" y="350.0" type="curve" smooth="yes"/>
      <point x="127.10000000000001" y="563.35"/>
      <point x="147.9" y="605.15"/>
      <point x="204.25" y="605.15" type="curve" smooth="yes"/>
      <point x="214.05" y="605.15"/>
      <point x="219.45" y="603.6"/>
      <point x="231.7" y="601.6" type="curve"/>
    </contour>
  </outline>
</glyph>
<glyph name="oe" format="2">
  <advance width="531.45"/>
  <unicode hex="0153"/>
  <outline>
    <contour>
      <point x="18.549999999999997" y="271.05" type="curve" smooth="yes"/>
      <point x="18.549999999999997" y="85.25"/>
      <point x="48.2" y="-10.0"/>
      <point x="171.1" y="-10.0" type="curve" smooth="yes"/>
      <point x="220.95" y="-10.0"/>
      <point x="247.85" y="15.45"/>
      <point x="268.55" y="63.4" type="curve"/>
      <point x="293.2" y="15.899999999999999"/>
      <point x="326.6" y="-10.0"/>
      <point x="387.7" y="-10.0" type="curve" smooth="yes"/>
      <point x="429.25" y="-10.0"/>
      <point x="471.8" y="0.40000000000000036"/>
      <point x="508.45" y="18.1" type="curve"/>
      <point x="493.0" y="114.75000000000001" type="line"/>
      <point x="452.25" y="101.55000000000001"/>
      <point x="417.15" y="97.0"/>
      <point x="401.65" y="97.0" type="curve" smooth="yes"/>
      <point x="359.75" y="97.0"/>
      <point x="322.55" y="119.80000000000001"/>
      <point x="322.55" y="215.75" type="curve" smooth="yes"/>
      <point x="322.55" y="225.05"/>
      <point x="322.55" y="234.25"/>
      <point x="322.55" y="243.55" type="curve"/>
      <point x="393.25" y="246.3"/>
      <point x="479.6" y="257.5"/>
      <point x="513.5" y="262.95" type="curve"/>
      <point x="514.05" y="274.75"/>
      <point x="515.05" y="294.15"/>
      <point x="515.05" y="310.7" type="curve" smooth="yes"/>
      <point x="515.05" y="473.4"/>
      <point x="475.95" y="551.0"/>
      <point x="366.8" y="551.0" type="curve" smooth="yes"/>
      <point x="320.4" y="551.0"/>
      <point x="293.25" y="524.45"/>
      <point x="271.65" y="474.95" type="curve"/>
      <point x="246.65" y="525.65"/>
      <point x="218.2" y="551.0"/>
      <point x="171.1" y="551.0" type="curve" smooth="yes"/>
      <point x="48.2" y="551.0"/>
      <point x="18.549999999999997" y="456.85"/>
    </contour>
    <contour>
      <point x="127.65" y="271.05" type="curve" smooth="yes"/>
      <point x="127.65" y="424.35"/>
      <point x="138.10000000000002" y="451.6"/>
      <point x="171.1" y="451.6" type="curve" smooth="yes"/>
      <point x="203.55" y="451.6"/>
      <point x="214.55" y="424.35"/>
      <point x="214.55" y="271.05" type="curve" smooth="yes"/>
      <point x="214.55" y="117.75"/>
      <point x="203.55" y="89.95"/>
      <point x="171.1" y="89.95" type="curve" smooth="yes"/>
      <point x="138.10000000000002" y="89.95"/>
      <point x="127.65" y="117.75"/>
    </contour>
    <contour>
      <point x="322.55" y="311.05" type="curve"/>
      <point x="325.7" y="443.3"/>
      <point x="340.05" y="463.15"/>
      <point x="366.25" y="463.15" type="curve" smooth="yes"/>
      <point x="390.9" y="463.15"/>
      <point x="410.35" y="430.95"/>
      <point x="410.35" y="318.0" type="curve"/>
      <point x="394.4" y="314.75"/>
      <point x="354.4" y="311.05"/>
    </contour>
  </outline>
</glyph>
<glyph name="uni0162" format="2">
  <advance width="323.1"/>
  <unicode hex="0162"/>
  <outline>
    <contour>
      <point x="80.75" y="-138.9" type="curve"/>
      <point x="78.15" y="-210.0" type="line"/>
      <point x="97.2" y="-218.0"/>
      <point x="115.05" y="-220.0"/>
      <point x="131.65" y="-220.0" type="curve" smooth="yes"/>
      <point x="194.8" y="-220.0"/>
      <point x="215.5" y="-177.4"/>
      <point x="215.5" y="-124.0" type="curve" smooth="yes"/>
      <point x="215.5" y="-86.4"/>
      <point x="198.60000000000002" y="-29.5"/>
      <point x="188.05" y="3.3000000000000003" type="curve"/>
      <point x="124.05" y="3.3000000000000003" type="line"/>
      <point x="138.3" y="-32.15"/>
      <point x="149.65" y="-73.8"/>
      <point x="149.65" y="-98.69999999999999" type="curve" smooth="yes"/>
      <point x="149.65" y="-128.1"/>
      <point x="133.8" y="-144.7"/>
      <point x="113.35" y="-144.7" type="curve" smooth="yes"/>
      <point x="103.25" y="-144.7"/>
      <point x="94.25" y="-142.8"/>
    </contour>
    <component base="T"/>
  </outline>
</glyph>
<glyph name="Tbar" format="2">
  <advance width="323.1"/>
  <unicode hex="0166"/>
  <outline>
    <contour>
      <point x="40.75" y="300.15" type="line"/>
      <point x="109.2" y="300.15" type="line"/>
      <point x="109.2" y="0.0" type="line"/>
      <point x="214.45" y="0.0" type="line"/>
      <point x="214.45" y="300.15" type="line"/>
      <point x="281.25" y="300.15" type="line"/>
      <point x="281.25" y="399.35" type="line"/>
      <point x="214.45" y="399.35" type="line"/>
      <point x="214.45" y="591.35" type="line"/>
      <point x="315.35" y="591.35" type="line"/>
      <point x="315.35" y="700.0" type="line"/>
      <point x="7.75" y="700.0" type="line"/>
      <point x="7.75" y="591.35" type="line"/>
      <point x="109.2" y="591.35" type="line"/>
      <point x="109.2" y="399.35" type="line"/>
      <point x="40.75" y="399.35" type="line"/>
    </contour>
  </outline>
</glyph>
<glyph name="tbar" format="2">
  <advance width="244.70000000000002"/>
  <unicode hex="0167"/>
  <outline>
    <contour>
      <point x="155.7" y="273.2" type="line"/>
      <point x="222.60000000000002" y="273.2" type="line"/>
      <point x="222.60000000000002" y="355.8" type="line"/>
      <point x="155.7" y="355.8" type="line"/>
      <point x="155.7" y="450.4" type="line"/>
      <point x="234.00000000000003" y="450.4" type="line"/>
      <point x="234.00000000000003" y="541.0" type="line"/>
      <point x="155.7" y="541.0" type="line"/>
      <point x="155.7" y="659.4" type="line"/>
      <point x="65.8" y="659.4" type="line"/>
      <point x="50.9" y="541.0" type="line"/>
      <point x="6.799999999999999" y="535.0" type="line"/>
      <point x="6.799999999999999" y="450.5" type="line"/>
      <point x="50.9" y="450.5" type="line"/>
      <point x="50.9" y="355.8" type="line"/>
      <point x="15.2" y="355.8" type="line"/>
      <point x="15.2" y="273.2" type="line"/>
      <point x="50.9" y="273.2" type="line"/>
      <point x="50.9" y="150.9" type="line" smooth="yes"/>
      <point x="50.9" y="48.6"/>
      <point x="80.6" y="-10.0"/>
      <point x="161.20000000000002" y="-10.0" type="curve" smooth="yes"/>
      <point x="185.00000000000003" y="-10.0"/>
      <point x="216.60000000000002" y="-7.9"/>
      <point x="247.8" y="6.900000000000001" type="curve"/>
      <point x="230.79999999999998" y="96.30000000000001" type="line"/>
      <point x="215.7" y="92.4"/>
      <point x="205.9" y="91.50000000000001"/>
      <point x="199.50000000000003" y="91.50000000000001" type="curve" smooth="yes"/>
      <point x="170.3" y="91.50000000000001"/>
      <point x="155.7" y="108.4"/>
      <point x="155.7" y="163.0" type="curve" smooth="yes"/>
    </contour>
  </outline>
</glyph>
<glyph name="uogonek" format="2">
  <advance width="359.2"/>
  <unicode hex="0173"/>
  <outline>
    <contour>
      <point x="314.15" y="-212.2" type="curve" smooth="yes"/>
      <point x="336.25" y="-212.2"/>
      <point x="350.85" y="-208.65"/>
      <point x="364.35" y="-202.0" type="curve"/>
      <point x="357.25" y="-120.35" type="line"/>
      <point x="352.9" y="-122.69999999999999"/>
      <point x="347.9" y="-123.69999999999999"/>
      <point x="341.35" y="-123.69999999999999" type="curve" smooth="yes"/>
      <point x="327.9" y="-123.69999999999999"/>
      <point x="317.0" y="-114.69999999999999"/>
      <point x="317.0" y="-91.25" type="curve" smooth="yes"/>
      <point x="317.0" y="-58.74999999999999"/>
      <point x="328.35" y="-30.199999999999996"/>
      <point x="359.0" y="7.800000000000001" type="curve"/>
      <point x="349.8" y="104.0" type="line"/>
      <point x="343.65" y="101.2"/>
      <point x="336.3" y="99.75000000000001"/>
      <point x="330.05" y="99.75000000000001" type="curve" smooth="yes"/>
      <point x="320.35" y="99.75000000000001"/>
      <point x="316.0" y="105.55000000000001"/>
      <point x="316.0" y="124.75000000000001" type="curve" smooth="yes"/>
      <point x="316.0" y="541.0" type="line"/>
      <point x="210.75" y="541.0" type="line"/>
      <point x="210.75" y="108.80000000000001" type="line"/>
      <point x="199.9" y="99.30000000000001"/>
      <point x="181.75" y="93.25"/>
      <point x="169.45" y="93.25" type="curve" smooth="yes"/>
      <point x="148.35000000000002" y="93.25"/>
      <point x="134.95" y="106.5"/>
      <point x="134.95" y="136.25" type="curve" smooth="yes"/>
      <point x="134.95" y="541.0" type="line"/>
      <point x="29.15" y="541.0" type="line"/>
      <point x="29.15" y="119.75" type="line" smooth="yes"/>
      <point x="29.15" y="21.700000000000003"/>
      <point x="72.95" y="-10.0"/>
      <point x="126.7" y="-10.0" type="curve" smooth="yes"/>
      <point x="161.95" y="-10.0"/>
      <point x="195.7" y="3.3000000000000003"/>
      <point x="222.55" y="24.9" type="curve"/>
      <point x="235.45" y="4.95"/>
      <point x="257.6" y="-10.0"/>
      <point x="288.8" y="-10.0" type="curve" smooth="yes"/>
      <point x="299.2" y="-10.0"/>
      <point x="309.5" y="-9.0"/>
      <point x="319.15" y="-7.0" type="curve"/>
      <point x="300.55" y="6.55" type="line"/>
      <point x="255.9" y="-34.199999999999996"/>
      <point x="230.25" y="-81.6"/>
      <point x="230.25" y="-128.0" type="curve" smooth="yes"/>
      <point x="230.25" y="-184.65"/>
      <point x="262.1" y="-212.2"/>
    </contour>
  </outline>
</glyph>
<glyph name="longs" format="2">
  <advance width="207.3"/>
  <unicode hex="017F"/>
  <outline>
    <contour>
      <point x="162.5" y="509.65" type="line"/>
      <point x="162.5" y="627.25"/>
      <point x="185.75" y="649.6"/>
      <point x="219.95" y="649.6" type="curve" smooth="yes"/>
      <point x="228.55" y="649.6"/>
      <point x="247.6" y="646.95"/>
      <point x="259.3" y="642.5" type="curve"/>
      <point x="275.95" y="730.9" type="line"/>
      <point x="249.6" y="741.95"/>
      <point x="223.05" y="750.0"/>
      <point x="187.5" y="750.0" type="curve" smooth="yes"/>
      <point x="91.7" y="750.0"/>
      <point x="57.25" y="659.8"/>
      <point x="57.25" y="517.9" type="curve" smooth="yes"/>
      <point x="57.25" y="508.75" type="line"/>
      <point x="7.699999999999999" y="502.2" type="line"/>
      <point x="7.699999999999999" y="417.7" type="line"/>
      <point x="57.25" y="417.7" type="line"/>
      <point x="57.25" y="0.0" type="line"/>
      <point x="162.5" y="0.0" type="line"/>
    </contour>
  </outline>
</glyph>
<glyph name="uni018F" format="2">
  <advance width="336.40000000000003"/>
  <unicode hex="018F"/>
  <outline>
    <contour>
      <point x="47.900000000000006" y="582.5" type="line"/>
      <point x="82.4" y="595.9"/>
      <point x="108.30000000000001" y="602.8"/>
      <point x="129.8" y="602.8" type="curve" smooth="yes"/>
      <point x="181.5" y="602.8"/>
      <point x="203.3" y="550.6"/>
      <point x="209.1" y="414.40000000000003" type="curve" smooth="yes"/>
      <point x="209.2" y="405.6"/>
      <point x="209.2" y="397.8"/>
      <point x="209.2" y="388.9" type="curve"/>
      <point x="131.79999999999998" y="383.4"/>
      <point x="71.9" y="372.6"/>
      <point x="18.6" y="363.50000000000006" type="curve"/>
      <point x="17.599999999999998" y="344.4"/>
      <point x="16.599999999999998" y="314.5"/>
      <point x="16.599999999999998" y="298.3" type="curve" smooth="yes"/>
      <point x="16.599999999999998" y="89.3"/>
      <point x="64.6" y="-10.0"/>
      <point x="165.5" y="-10.0" type="curve" smooth="yes"/>
      <point x="271.90000000000003" y="-10.0"/>
      <point x="318.40000000000003" y="103.4"/>
      <point x="318.40000000000003" y="364.40000000000003" type="curve" smooth="yes"/>
      <point x="318.40000000000003" y="597.0"/>
      <point x="266.0" y="709.9"/>
      <point x="161.10000000000002" y="709.9" type="curve" smooth="yes"/>
      <point x="113.3" y="709.9"/>
      <point x="69.2" y="698.5"/>
      <point x="30.9" y="674.5" type="curve"/>
    </contour>
    <contour>
      <point x="212.5" y="298.8" type="curve"/>
      <point x="209.79999999999998" y="148.3"/>
      <point x="195.7" y="87.00000000000001"/>
      <point x="162.0" y="87.00000000000001" type="curve" smooth="yes"/>
      <point x="128.4" y="87.00000000000001"/>
      <point x="114.70000000000002" y="138.7"/>
      <point x="114.70000000000002" y="287.5" type="curve"/>
      <point x="143.60000000000002" y="294.9"/>
      <point x="171.79999999999998" y="297.8"/>
    </contour>
  </outline>
</glyph>
<glyph name="florin" format="2">
  <advance width="343.5"/>
  <unicode hex="0192"/>
  <outline>
    <contour>
      <point x="66.15" y="394.45" type="line"/>
      <point x="51.6" y="307.7" type="line"/>
      <point x="99.6" y="307.7" type="line"/>
      <point x="17.85" y="-210.0" type="line"/>
      <point x="115.60000000000001" y="-210.0" type="line"/>
      <point x="197.35000000000002" y="307.7" type="line"/>
      <point x="250.05" y="307.7" type="line"/>
      <point x="264.6" y="398.3" type="line"/>
      <point x="211.9" y="398.3" type="line"/>
      <point x="222.45" y="463.8" type="line" smooth="yes"/>
      <point x="239.7" y="568.2"/>
      <point x="256.35" y="601.8"/>
      <point x="288.05" y="601.8" type="curve" smooth="yes"/>
      <point x="296.05" y="601.8"/>
      <point x="303.5" y="600.35"/>
      <point x="317.15" y="595.25" type="curve"/>
      <point x="351.55" y="690.9" type="line"/>
      <point x="326.15" y="704.7"/>
      <point x="304.7" y="710.0"/>
      <point x="276.75" y="710.0" type="curve" smooth="yes"/>
      <point x="200.55" y="710.0"/>
      <point x="153.85" y="641.75"/>
      <point x="126.9" y="477.0" type="curve" smooth="yes"/>
      <point x="114.15" y="398.3" type="line"/>
    </contour>
  </outline>
</glyph>
<glyph name="uni0237" format="2">
  <advance width="165.3"/>
  <unicode hex="0237"/>
  <anchor x="82.15" y="541.0" name="top"/>
  <outline>
    <contour>
      <point x="135.05" y="9.05" type="curve" smooth="yes"/>
      <point x="135.05" y="541.0" type="line"/>
      <point x="29.799999999999997" y="541.0" type="line"/>
      <point x="29.799999999999997" y="17.85" type="line"/>
      <point x="29.799999999999997" y="-49.349999999999994"/>
      <point x="17.4" y="-84.75"/>
      <point x="-10.0" y="-99.14999999999999" type="curve" smooth="yes"/>
      <point x="-18.85" y="-101.39999999999999"/>
      <point x="-26.6" y="-101.55"/>
      <point x="-37.55" y="-100.14999999999999" type="curve"/>
      <point x="-48.35" y="-205.15" type="line"/>
      <point x="-24.950000000000003" y="-209.5"/>
      <point x="-4.2" y="-210.1"/>
      <point x="15.450000000000001" y="-207.4" type="curve" smooth="yes"/>
      <point x="101.30000000000001" y="-190.75"/>
      <point x="135.05" y="-120.80000000000001"/>
    </contour>
  </outline>
</glyph>
<glyph name="uni0259" format="2">
  <advance width="332.4"/>
  <unicode hex="0259"/>
  <outline>
    <contour>
      <point x="15.45" y="278.05" type="curve"/>
      <point x="14.45" y="263.45"/>
      <point x="13.9" y="243.6"/>
      <point x="13.9" y="230.3" type="curve" smooth="yes"/>
      <point x="13.9" y="67.6"/>
      <point x="53.0" y="-10.0"/>
      <point x="162.15" y="-10.0" type="curve" smooth="yes"/>
      <point x="265.75" y="-10.0"/>
      <point x="313.85" y="72.4"/>
      <point x="313.85" y="281.65" type="curve" smooth="yes"/>
      <point x="313.85" y="470.6"/>
      <point x="265.4" y="551.0"/>
      <point x="159.1" y="551.0" type="curve" smooth="yes"/>
      <point x="106.3" y="551.0"/>
      <point x="62.25" y="541.95"/>
      <point x="20.5" y="522.9" type="curve"/>
      <point x="35.95" y="426.25" type="line"/>
      <point x="76.7" y="439.45"/>
      <point x="112.7" y="444.0"/>
      <point x="127.3" y="444.0" type="curve" smooth="yes"/>
      <point x="171.0" y="444.0"/>
      <point x="203.65" y="418.5"/>
      <point x="203.65" y="311.75" type="curve" smooth="yes"/>
      <point x="203.65" y="306.95"/>
      <point x="203.65" y="302.25"/>
      <point x="203.65" y="297.45" type="curve"/>
      <point x="132.95" y="294.7"/>
      <point x="49.35" y="283.5"/>
    </contour>
    <contour>
      <point x="204.75" y="228.85" type="curve"/>
      <point x="201.6" y="98.80000000000001"/>
      <point x="187.8" y="78.95"/>
      <point x="162.7" y="78.95" type="curve" smooth="yes"/>
      <point x="138.60000000000002" y="78.95"/>
      <point x="120.25" y="111.15"/>
      <point x="120.25" y="221.9" type="curve"/>
      <point x="134.0" y="225.15"/>
      <point x="174.0" y="228.85"/>
    </contour>
  </outline>
</glyph>
<glyph name="gravecomb" format="2">
  <unicode hex="0300"/>
  <anchor x="-229.7" y="753.45" name="top"/>
  <anchor x="-174.4" y="541.0" name="_top"/>
  <outline>
    <contour>
      <point x="-216.95" y="595.45" type="line"/>
      <point x="-130.85" y="595.45" type="line"/>
      <point x="-193.9" y="789.45" type="line"/>
      <point x="-304.9" y="789.45" type="line"/>
    </contour>
  </outline>
</glyph>
<glyph name="acutecomb" format="2">
  <unicode hex="0301"/>
  <anchor x="-129.45" y="753.45" name="top"/>
  <anchor x="-174.4" y="541.0" name="_top"/>
  <outline>
    <contour>
      <point x="-214.55" y="595.45" type="line"/>
      <point x="-133.4" y="595.45" type="line"/>
      <point x="-44.9" y="789.45" type="line"/>
      <point x="-151.05" y="789.45" type="line"/>
    </contour>
  </outline>
</glyph>
<glyph name="uni0302" format="2">
  <unicode hex="0302"/>
  <anchor x="-174.4" y="765.7" name="top"/>
  <anchor x="-174.4" y="541.0" name="_top"/>
  <anchor x="-23.5" y="660.45" name="top_viet"/>
  <outline>
    <contour>
      <point x="-292.65" y="595.45" type="line"/>
      <point x="-207.0" y="595.45" type="line"/>
      <point x="-174.4" y="731.95" type="line"/>
      <point x="-142.25" y="595.45" type="line"/>
      <point x="-56.15" y="595.45" type="line"/>
      <point x="-117.1" y="789.45" type="line"/>
      <point x="-231.25" y="789.45" type="line"/>
    </contour>
  </outline>
</glyph>
<glyph name="tildecomb" format="2">
  <unicode hex="0303"/>
  <anchor x="-174.4" y="700.8000000000001" name="top"/>
  <anchor x="-174.4" y="541.0" name="_top"/>
  <outline>
    <contour>
      <point x="-295.09999999999997" y="599.5" type="curve"/>
      <point x="-233.60000000000002" y="599.5" type="line"/>
      <point x="-235.4" y="605.0999999999999"/>
      <point x="-236.2" y="613.8000000000001"/>
      <point x="-236.2" y="623.0" type="curve" smooth="yes"/>
      <point x="-236.2" y="641.4"/>
      <point x="-230.2" y="655.9"/>
      <point x="-217.3" y="655.9" type="curve" smooth="yes"/>
      <point x="-200.7" y="655.9"/>
      <point x="-152.70000000000002" y="603.9"/>
      <point x="-118.50000000000001" y="603.9" type="curve" smooth="yes"/>
      <point x="-74.30000000000001" y="603.9"/>
      <point x="-49.900000000000006" y="635.9"/>
      <point x="-49.900000000000006" y="706.7" type="curve" smooth="yes"/>
      <point x="-49.900000000000006" y="721.8000000000001"/>
      <point x="-50.900000000000006" y="737.9"/>
      <point x="-53.800000000000004" y="754.0" type="curve"/>
      <point x="-114.39999999999999" y="754.0" type="line"/>
      <point x="-112.60000000000001" y="747.5999999999999"/>
      <point x="-111.7" y="739.8000000000001"/>
      <point x="-111.7" y="732.4" type="curve" smooth="yes"/>
      <point x="-111.7" y="715.7"/>
      <point x="-116.10000000000001" y="695.9000000000001"/>
      <point x="-130.6" y="695.9000000000001" type="curve" smooth="yes"/>
      <point x="-151.9" y="695.9000000000001"/>
      <point x="-176.6" y="747.0"/>
      <point x="-228.4" y="747.0" type="curve" smooth="yes"/>
      <point x="-273.8" y="747.0"/>
      <point x="-299.0" y="712.5999999999999"/>
      <point x="-299.0" y="646.8000000000001" type="curve" smooth="yes"/>
      <point x="-299.0" y="632.7"/>
      <point x="-298.09999999999997" y="615.7"/>
    </contour>
  </outline>
</glyph>
<glyph name="uni0304" format="2">
  <unicode hex="0304"/>
  <anchor x="-174.4" y="737.45" name="top"/>
  <anchor x="-174.4" y="541.0" name="_top"/>
  <outline>
    <contour>
      <point x="-276.0" y="638.25" type="line"/>
      <point x="-72.8" y="638.25" type="line"/>
      <point x="-72.8" y="726.45" type="line"/>
      <point x="-276.0" y="726.45" type="line"/>
    </contour>
  </outline>
</glyph>
<glyph name="uni0306" format="2">
  <unicode hex="0306"/>
  <anchor x="-174.4" y="732.3" name="top"/>
  <anchor x="-174.4" y="541.0" name="_top"/>
  <outline>
    <contour>
      <point x="-173.85" y="601.8" type="curve" smooth="yes"/>
      <point x="-88.85" y="601.8"/>
      <point x="-51.8" y="635.0"/>
      <point x="-51.8" y="730.15" type="curve" smooth="yes"/>
      <point x="-51.8" y="736.9"/>
      <point x="-51.8" y="743.75"/>
      <point x="-52.35" y="751.05" type="curve"/>
      <point x="-114.35" y="751.95" type="line"/>
      <point x="-114.35" y="749.05"/>
      <point x="-114.35" y="746.25"/>
      <point x="-114.35" y="743.8" type="curve" smooth="yes"/>
      <point x="-114.35" y="703.2"/>
      <point x="-128.25" y="678.65"/>
      <point x="-173.85" y="678.65" type="curve" smooth="yes"/>
      <point x="-220.0" y="678.65"/>
      <point x="-233.9" y="703.2"/>
      <point x="-233.9" y="743.8" type="curve" smooth="yes"/>
      <point x="-233.9" y="746.25"/>
      <point x="-233.9" y="749.05"/>
      <point x="-233.9" y="751.95" type="curve"/>
      <point x="-296.45" y="751.05" type="line"/>
      <point x="-297.0" y="743.75"/>
      <point x="-297.0" y="736.9"/>
      <point x="-297.0" y="730.15" type="curve" smooth="yes"/>
      <point x="-297.0" y="625.1"/>
      <point x="-246.75" y="601.8"/>
    </contour>
  </outline>
</glyph>
<glyph name="uni0307" format="2">
  <unicode hex="0307"/>
  <anchor x="-174.4" y="696.35" name="top"/>
  <anchor x="-174.4" y="541.0" name="_top"/>
  <outline>
    <contour>
      <point x="-174.4" y="628.15" type="curve" smooth="yes"/>
      <point x="-145.9" y="628.15"/>
      <point x="-128.5" y="641.1"/>
      <point x="-128.5" y="684.1" type="curve" smooth="yes"/>
      <point x="-128.5" y="727.1"/>
      <point x="-145.9" y="740.05"/>
      <point x="-174.4" y="740.05" type="curve" smooth="yes"/>
      <point x="-202.0" y="740.05"/>
      <point x="-220.3" y="727.1"/>
      <point x="-220.3" y="684.1" type="curve" smooth="yes"/>
      <point x="-220.3" y="641.1"/>
      <point x="-202.0" y="628.15"/>
    </contour>
  </outline>
</glyph>
